<svg width="81" height="25" viewBox="0 0 81 25" fill="none" xmlns="http://www.w3.org/2000/svg">
<g clip-path="url(#clip0_1182_9852)">
<path fill-rule="evenodd" clip-rule="evenodd" d="M50.1323 19.6549C45.5005 23.065 38.7869 24.8843 33.0067 24.8843C24.9018 24.8843 17.6054 21.8902 12.0854 16.9103C11.6517 16.5187 12.0403 15.985 12.5607 16.29C18.5179 19.752 25.8837 21.8347 33.4924 21.8347C38.6238 21.8347 44.2688 20.7743 49.4592 18.5737C50.2433 18.241 50.8991 19.0866 50.1323 19.6549Z" fill="white"/>
<path fill-rule="evenodd" clip-rule="evenodd" d="M52.056 17.4543C51.4662 16.6989 48.1424 17.0974 46.6505 17.2741C46.196 17.3296 46.1266 16.9345 46.536 16.6504C49.1833 14.7894 53.5271 15.3265 54.0337 15.9503C54.5402 16.5776 53.9018 20.9267 51.4142 23.0025C51.0325 23.3214 50.6682 23.1516 50.8382 22.7288C51.3968 21.3357 52.6493 18.2133 52.056 17.4543Z" fill="white"/>
<path fill-rule="evenodd" clip-rule="evenodd" d="M46.7544 3.51287V1.7039C46.7544 1.43013 46.9626 1.24646 47.2124 1.24646H55.3207C55.5809 1.24646 55.7891 1.4336 55.7891 1.7039V3.25296C55.7856 3.51287 55.567 3.85248 55.1784 4.38963L50.9768 10.3814C52.5381 10.3433 54.1862 10.5755 55.6017 11.3725C55.9209 11.5527 56.0077 11.8161 56.0319 12.076V14.0063C56.0319 14.2697 55.7405 14.5781 55.4352 14.4187C52.9406 13.1122 49.6272 12.9701 46.8689 14.4325C46.5879 14.585 46.293 14.2801 46.293 14.0167V12.1835C46.293 11.8889 46.2964 11.3864 46.5913 10.9393L51.4591 3.96685H47.2228C46.9626 3.96685 46.7544 3.78318 46.7544 3.51287Z" fill="white"/>
<path fill-rule="evenodd" clip-rule="evenodd" d="M17.177 14.7998H14.7102C14.4742 14.7824 14.2869 14.6057 14.2695 14.3804V1.73498C14.2695 1.482 14.4812 1.281 14.7449 1.281H17.0452C17.2846 1.29139 17.4754 1.47507 17.4927 1.70379V3.35681H17.5378C18.1381 1.75923 19.2657 1.01416 20.7853 1.01416C22.3293 1.01416 23.2938 1.75923 23.9877 3.35681C24.5845 1.75923 25.941 1.01416 27.3948 1.01416C28.4287 1.01416 29.5598 1.44041 30.2502 2.39688C31.0308 3.46077 30.8712 5.00637 30.8712 6.36136L30.8678 14.3423C30.8678 14.5953 30.6561 14.7998 30.3925 14.7998H27.9291C27.6827 14.7824 27.485 14.5849 27.485 14.3423V7.64012C27.485 7.10644 27.5336 5.7757 27.4156 5.26974C27.2317 4.42071 26.6801 4.18159 25.9653 4.18159C25.3686 4.18159 24.7441 4.58012 24.4908 5.21776C24.2375 5.85541 24.2618 6.92277 24.2618 7.64012V14.3423C24.2618 14.5953 24.0501 14.7998 23.7865 14.7998H21.3231C21.0733 14.7824 20.879 14.5849 20.879 14.3423L20.8755 7.64012C20.8755 6.22968 21.108 4.15387 19.3559 4.15387C17.5829 4.15387 17.6523 6.17769 17.6523 7.64012V14.3423C17.6523 14.5953 17.4407 14.7998 17.177 14.7998Z" fill="white"/>
<path fill-rule="evenodd" clip-rule="evenodd" d="M62.77 1.01416C66.4304 1.01416 68.4115 4.15387 68.4115 8.14608C68.4115 12.0031 66.2222 15.0631 62.77 15.0631C59.1756 15.0631 57.2188 11.9234 57.2188 8.01092C57.2188 4.07416 59.1999 1.01416 62.77 1.01416ZM62.7908 3.59593C60.9728 3.59593 60.8583 6.07026 60.8583 7.6124C60.8583 9.15799 60.834 12.4571 62.77 12.4571C64.6817 12.4571 64.7719 9.79564 64.7719 8.1738C64.7719 7.10644 64.7268 5.83115 64.4042 4.81923C64.1266 3.93901 63.5749 3.59593 62.7908 3.59593Z" fill="white"/>
<path fill-rule="evenodd" clip-rule="evenodd" d="M73.1579 14.7998H70.7015C70.4551 14.7824 70.2574 14.5849 70.2574 14.3423L70.2539 1.69339C70.2747 1.4612 70.4794 1.281 70.7292 1.281H73.0157C73.2308 1.29139 73.4077 1.43695 73.4563 1.63448V3.5682H73.5014C74.1918 1.83894 75.1598 1.01416 76.8634 1.01416C77.9701 1.01416 79.0492 1.41269 79.7431 2.50431C80.3884 3.51622 80.3884 5.21776 80.3884 6.44107V14.4012C80.3607 14.623 80.1559 14.7998 79.9131 14.7998H77.4393C77.2138 14.7824 77.0264 14.6161 77.0021 14.4012V7.53269C77.0021 6.14997 77.1617 4.12614 75.4582 4.12614C74.858 4.12614 74.3063 4.52814 74.0322 5.13806C73.6853 5.91086 73.6402 6.68019 73.6402 7.53269V14.3423C73.6367 14.5953 73.4216 14.7998 73.1579 14.7998Z" fill="white"/>
<path fill-rule="evenodd" clip-rule="evenodd" d="M40.2921 8.75954C40.2921 9.71947 40.3164 10.52 39.8307 11.3725C39.4386 12.0656 38.8141 12.4918 38.1237 12.4918C37.1765 12.4918 36.6213 11.771 36.6213 10.7071C36.6213 8.60706 38.5053 8.22586 40.2921 8.22586V8.75954ZM42.7798 14.7652C42.6167 14.9107 42.3808 14.9211 42.1969 14.8241C41.3781 14.1449 41.2289 13.8295 40.7813 13.1815C39.4282 14.5607 38.4671 14.9731 36.715 14.9731C34.6368 14.9731 33.0234 13.6944 33.0234 11.1334C33.0234 9.13381 34.1059 7.77188 35.6533 7.10651C36.9926 6.51738 38.8627 6.41342 40.2921 6.25055V5.93172C40.2921 5.34606 40.3372 4.65297 39.9903 4.14701C39.6919 3.69304 39.1159 3.5059 38.6059 3.5059C37.6657 3.5059 36.8295 3.9876 36.6248 4.98565C36.5832 5.20744 36.4201 5.42577 36.1946 5.43616L33.8041 5.17972C33.6028 5.13467 33.3773 4.97179 33.4363 4.66337C33.9845 1.76624 36.6075 0.892944 38.9529 0.892944C40.1533 0.892944 41.7216 1.21177 42.6687 2.11972C43.8692 3.23906 43.7547 4.73267 43.7547 6.35797V10.1977C43.7547 11.3517 44.2335 11.8577 44.6845 12.4814C44.8407 12.7032 44.8754 12.9701 44.6741 13.1364C44.171 13.5557 43.2759 14.3355 42.7832 14.7721L42.7798 14.7652Z" fill="white"/>
<path fill-rule="evenodd" clip-rule="evenodd" d="M7.95227 8.75954C7.95227 9.71947 7.97655 10.52 7.49082 11.3725C7.09876 12.0656 6.47771 12.4918 5.78381 12.4918C4.83662 12.4918 4.28497 11.771 4.28497 10.7071C4.28497 8.60706 6.16892 8.22586 7.95227 8.22586V8.75954ZM10.4399 14.7652C10.2769 14.9107 10.0409 14.9211 9.85704 14.8241C9.03823 14.1449 8.89251 13.8295 8.44147 13.1815C7.08835 14.5607 6.13076 14.9731 4.37517 14.9731C2.30039 14.9731 0.683594 13.6944 0.683594 11.1334C0.683594 9.13381 1.76956 7.77188 3.3135 7.10651C4.65274 6.51738 6.52282 6.41342 7.95227 6.25055V5.93172C7.95227 5.34606 7.99737 4.65297 7.65388 4.14701C7.35203 3.69304 6.77609 3.5059 6.26954 3.5059C5.3293 3.5059 4.48967 3.9876 4.28497 4.98565C4.24333 5.20744 4.08027 5.42577 3.85822 5.43616L1.46424 5.17972C1.26301 5.13467 1.04095 4.97179 1.09647 4.66337C1.64812 1.76624 4.26762 0.892944 6.61303 0.892944C7.81348 0.892944 9.38171 1.21177 10.3289 2.11972C11.5294 3.23906 11.4149 4.73267 11.4149 6.35797V10.1977C11.4149 11.3517 11.8937 11.8577 12.3447 12.4814C12.5043 12.7032 12.539 12.9701 12.3378 13.1364C11.8347 13.5557 10.9395 14.3355 10.4469 14.7721L10.4399 14.7652Z" fill="white"/>
</g>
<defs>
<clipPath id="clip0_1182_9852">
<rect width="79.7056" height="23.9914" fill="white" transform="translate(0.683594 0.892944)"/>
</clipPath>
</defs>
</svg>
