<svg width="131" height="27" viewBox="0 0 131 27" fill="none" xmlns="http://www.w3.org/2000/svg">
<g clip-path="url(#clip0_1182_10177)">
<path d="M6.90065 19.7878C7.03949 19.731 7.16553 19.6469 7.27119 19.5405L20.491 6.31362C20.7009 6.09836 20.8184 5.80958 20.8184 5.50891C20.8184 5.20823 20.7009 4.91946 20.491 4.7042C20.3851 4.59752 20.2592 4.51286 20.1205 4.45508C19.9818 4.3973 19.833 4.36755 19.6827 4.36755C19.5324 4.36755 19.3837 4.3973 19.2449 4.45508C19.1063 4.51286 18.9803 4.59752 18.8745 4.7042L6.45591 17.1157L2.18988 12.8497C2.08404 12.743 1.95814 12.6584 1.81942 12.6006C1.6807 12.5428 1.53192 12.5131 1.38165 12.5131C1.23138 12.5131 1.0826 12.5428 0.943889 12.6006C0.80517 12.6584 0.679264 12.743 0.573426 12.8497C0.466108 12.9545 0.380826 13.0796 0.322599 13.2178C0.264371 13.356 0.234375 13.5044 0.234375 13.6544C0.234375 13.8044 0.264371 13.9529 0.322599 14.0911C0.380826 14.2292 0.466108 14.3544 0.573426 14.4592L5.66174 19.5405C5.76679 19.6457 5.8917 19.7292 6.02924 19.7859C6.16678 19.8426 6.31419 19.8714 6.46296 19.8708C6.61293 19.8728 6.7618 19.8446 6.90065 19.7878Z" fill="white"/>
<path d="M16.4841 15.5075C16.6662 15.6279 16.8801 15.6911 17.0983 15.6891C17.2442 15.691 17.3888 15.6627 17.5231 15.6058C17.6574 15.5489 17.7784 15.4648 17.8785 15.3588L25.9888 7.24142C26.0919 7.14005 26.1738 7.01916 26.2297 6.88579C26.2855 6.75248 26.3143 6.60935 26.3143 6.46482C26.3143 6.32024 26.2855 6.17712 26.2297 6.04379C26.1738 5.91045 26.0919 5.78958 25.9888 5.68821C25.8876 5.58621 25.7671 5.50526 25.6345 5.45001C25.5018 5.39477 25.3595 5.36633 25.2158 5.36633C25.072 5.36633 24.9297 5.39477 24.7971 5.45001C24.6644 5.50526 24.544 5.58621 24.4427 5.68821L16.3182 13.8126C16.1629 13.966 16.0569 14.1622 16.0138 14.3762C15.9707 14.5902 15.9924 14.8121 16.0762 15.0137C16.16 15.2152 16.302 15.3872 16.4841 15.5075Z" fill="white"/>
<path d="M23.8656 21.3537L27.0564 18.163C27.1599 18.0621 27.2423 17.9416 27.2987 17.8085C27.3552 17.6754 27.3846 17.5324 27.3853 17.3879C27.3859 17.2433 27.3578 17.1001 27.3025 16.9665C27.2473 16.8329 27.166 16.7116 27.0633 16.6098C26.9615 16.5076 26.8405 16.4265 26.7072 16.3711C26.5739 16.3158 26.4311 16.2874 26.2867 16.2874C26.1425 16.2874 25.9996 16.3158 25.8663 16.3711C25.7331 16.4265 25.6121 16.5076 25.5101 16.6098L22.3124 19.7935C22.1072 20.0013 21.9922 20.2816 21.9922 20.5736C21.9922 20.8657 22.1072 21.1459 22.3124 21.3537C22.4128 21.4586 22.5334 21.5419 22.6668 21.5989C22.8002 21.6559 22.9439 21.6853 23.089 21.6853C23.2341 21.6853 23.3778 21.6559 23.5112 21.5989C23.6447 21.5419 23.7652 21.4586 23.8656 21.3537Z" fill="white"/>
<path d="M20.8718 18.3528L27.0565 12.1681C27.2625 11.9621 27.3782 11.6827 27.3782 11.3915C27.3782 11.1002 27.2625 10.8208 27.0565 10.6149C26.8505 10.4089 26.5712 10.2932 26.2799 10.2932C25.9886 10.2932 25.7093 10.4089 25.5033 10.6149L19.3116 16.8136C19.1094 17.0187 18.9961 17.2952 18.9961 17.5832C18.9961 17.8712 19.1094 18.1477 19.3116 18.3528C19.4131 18.4575 19.5342 18.5411 19.6681 18.5991C19.8019 18.6569 19.9459 18.6878 20.0917 18.6901C20.2375 18.6878 20.3814 18.6569 20.5153 18.5991C20.6491 18.5411 20.7703 18.4575 20.8718 18.3528Z" fill="white"/>
<path d="M51.5622 9.00853C51.5622 9.0312 51.5277 9.04823 51.5105 9.02556C50.4425 7.56748 48.5822 6.68805 46.5038 6.68805C42.6454 6.68805 39.7344 9.64396 39.7344 13.5473C39.7344 17.4109 42.7143 20.4292 46.5038 20.4292C48.588 20.4292 50.4483 19.5441 51.5105 18.0804C51.5277 18.0577 51.5622 18.069 51.5622 18.0917V19.4193C51.5622 19.8278 51.8952 20.1569 52.2971 20.1569H52.9C52.9973 20.1561 53.0934 20.1365 53.183 20.099C53.2726 20.0615 53.3538 20.007 53.422 19.9385C53.4903 19.87 53.5442 19.7889 53.5807 19.6998C53.6172 19.6108 53.6357 19.5154 53.6349 19.4193V7.69798C53.6357 7.60209 53.6172 7.50707 53.5806 7.41828C53.544 7.32955 53.49 7.2488 53.4217 7.18078C53.3534 7.11272 53.2721 7.05875 53.1825 7.02187C53.093 6.98505 52.997 6.96606 52.9 6.96606H52.2971C52.1022 6.96905 51.9161 7.04725 51.7787 7.18404C51.6414 7.32082 51.5636 7.50528 51.5622 7.69798V9.00853ZM48.3756 18.1768C44.8961 19.3172 41.8186 16.8606 41.8186 13.5246C41.8063 12.8907 41.9223 12.2607 42.1595 11.6716C42.3968 11.0825 42.7506 10.5461 43.2003 10.0938C43.65 9.64157 44.1865 9.28253 44.7784 9.03771C45.3703 8.79289 46.0057 8.66723 46.6473 8.66809C47.3421 8.66072 48.0304 8.79999 48.6663 9.0766C49.3022 9.35326 49.871 9.76084 50.3346 10.2722C50.7983 10.7835 51.1461 11.3867 51.3548 12.0416C51.5635 12.6964 51.6284 13.3877 51.5449 14.0692C51.4835 14.9859 51.1502 15.8643 50.5865 16.5948C50.0228 17.3254 49.2539 17.8756 48.3756 18.1768ZM76.3832 6.69374C72.4332 6.69374 69.5739 9.5702 69.5739 13.5303C69.5739 17.5357 72.4332 20.4405 76.3832 20.4405C78.6801 20.4405 80.7009 19.4647 81.9299 17.7911C81.9857 17.7115 82.0232 17.6209 82.0394 17.5255C82.0557 17.4301 82.0503 17.3323 82.0237 17.2391C81.9977 17.146 81.951 17.0597 81.887 16.9864C81.823 16.9131 81.7433 16.8547 81.6544 16.8152L81.1836 16.5996C81.0127 16.5307 80.824 16.5166 80.645 16.5593C80.4655 16.6021 80.3044 16.6996 80.1846 16.8379C79.717 17.3641 79.1384 17.7825 78.4897 18.0639C77.841 18.3452 77.1376 18.4825 76.4293 18.4662C73.8569 18.4662 72.0655 16.94 71.7097 14.4777C71.7097 14.4607 71.727 14.4494 71.7498 14.4494H82.3947C82.5379 14.4495 82.6751 14.3955 82.7787 14.2983C82.8823 14.2012 82.9446 14.0684 82.9517 13.9274L82.9631 13.5303C82.9517 9.43401 80.3104 6.69374 76.3832 6.69374ZM76.3832 8.66809C78.8639 8.66809 80.5691 10.1716 80.8793 12.5998C80.8848 12.6168 80.8674 12.6339 80.856 12.6339H71.7672C71.7498 12.6339 71.7384 12.6168 71.7438 12.5998C72.1175 10.1319 73.84 8.66809 76.3832 8.66809ZM93.2983 6.69374C91.2367 6.69374 89.3483 7.61283 88.2917 9.0709C88.2798 9.08793 88.2342 9.08229 88.2342 9.05393V7.66392C88.2326 7.48326 88.1599 7.31035 88.0309 7.18208C87.9023 7.05382 87.7277 6.98038 87.5449 6.9774H86.8621C86.6766 6.9774 86.4987 7.04937 86.3664 7.1778C86.2346 7.30623 86.1586 7.48082 86.1554 7.66392V25.7509C86.1554 26.1254 86.4716 26.4374 86.8621 26.4374H87.5449C87.9181 26.4374 88.2342 26.1254 88.2342 25.7509V18.0974C88.2342 18.0747 88.2798 18.0634 88.2917 18.086C89.3651 19.5498 91.2199 20.4349 93.2983 20.4349C97.1566 20.4349 100.067 17.4903 100.067 13.5813C100.067 9.65529 97.1566 6.69374 93.2983 6.69374ZM91.4667 8.94041C92.2162 8.67493 93.0195 8.59374 93.8075 8.70378C94.5961 8.81388 95.3451 9.11191 95.9905 9.57215C96.6365 10.0324 97.1588 10.641 97.5129 11.3455C97.8671 12.0499 98.0423 12.829 98.0238 13.6154C98.0336 14.2513 97.9148 14.8828 97.6745 15.4727C97.4343 16.0627 97.0774 16.5994 96.624 17.0512C96.1711 17.503 95.6315 17.8609 95.0365 18.1039C94.4421 18.3469 93.8043 18.47 93.1605 18.4662C92.4636 18.4748 91.7731 18.3358 91.1359 18.0584C90.4981 17.7811 89.928 17.372 89.4638 16.8585C88.9995 16.3451 88.6524 15.7393 88.4452 15.082C88.238 14.4246 88.1757 13.7311 88.263 13.048C88.3248 12.1267 88.6622 11.2442 89.2327 10.5129C89.8033 9.78156 90.5805 9.23421 91.4667 8.94041ZM105.235 1.83159H104.816C104.599 1.83158 104.391 1.91628 104.238 2.0672C104.084 2.21813 103.996 2.42303 103.995 2.63722V6.9377C103.995 6.95473 103.978 6.97176 103.966 6.97176H102.433C102.216 6.97176 102.006 7.05723 101.853 7.20937C101.699 7.3615 101.612 7.56786 101.612 7.78307V7.97593C101.612 8.42414 101.98 8.78155 102.433 8.78155H103.966C103.978 8.78155 103.995 8.79294 103.995 8.80997V19.3569C103.995 19.7995 104.362 20.1682 104.816 20.1682H105.235C105.453 20.1667 105.66 20.0808 105.814 19.9289C105.968 19.7771 106.055 19.5716 106.056 19.3569V8.80997C106.056 8.79294 106.068 8.78155 106.091 8.78155H108.232C108.449 8.78161 108.657 8.69689 108.811 8.54595C108.965 8.39502 109.052 8.19011 109.053 7.97593V7.78307C109.053 7.56786 108.967 7.3615 108.813 7.20937C108.659 7.05723 108.45 6.97176 108.232 6.97176H106.091C106.068 6.97176 106.056 6.96042 106.056 6.9377V2.63722C106.055 2.42303 105.968 2.21813 105.814 2.0672C105.66 1.91628 105.452 1.83158 105.235 1.83159ZM112.562 0.946533C111.717 0.946533 111.046 1.57061 111.046 2.3649C111.046 3.12514 111.729 3.74922 112.562 3.74922C113.446 3.74922 114.117 3.15351 114.117 2.3649C114.112 1.5536 113.446 0.946533 112.562 0.946533ZM112.395 20.1625H112.734C112.964 20.1611 113.185 20.0695 113.347 19.908C113.51 19.7464 113.601 19.5279 113.601 19.3002V7.83411C113.601 7.60637 113.51 7.38791 113.347 7.22634C113.185 7.06477 112.964 6.97322 112.734 6.97176H112.395C112.28 6.971 112.166 6.9928 112.06 7.03586C111.954 7.07893 111.857 7.14244 111.776 7.22265C111.695 7.30287 111.631 7.39827 111.587 7.50322C111.544 7.60816 111.521 7.72065 111.522 7.83411V19.3002C111.522 19.7767 111.913 20.1625 112.395 20.1625ZM123.861 6.69374C119.819 6.69374 116.891 9.5702 116.891 13.5303C116.891 17.1953 119.469 20.015 123.023 20.3951C127.599 20.8944 131.469 16.8379 130.768 12.3559C130.246 9.00853 127.501 6.69374 123.861 6.69374ZM123.861 18.4605C121.031 18.4605 118.969 16.384 118.969 13.5246C118.969 10.9205 120.738 8.96878 123.247 8.69646C123.953 8.62563 124.668 8.70394 125.342 8.92626C126.016 9.14862 126.635 9.50989 127.157 9.98619C127.679 10.4625 128.093 11.0429 128.371 11.6891C128.649 12.3353 128.785 13.0325 128.77 13.7345C128.764 14.3638 128.631 14.9855 128.38 15.5641C128.13 16.1426 127.766 16.6665 127.31 17.1056C126.853 17.5448 126.314 17.8906 125.722 18.1231C125.13 18.3556 124.498 18.4702 123.861 18.4605ZM66.9212 6.97176H65.882C65.7199 6.97073 65.5604 7.00842 65.4161 7.08153C65.2724 7.15459 65.1482 7.261 65.0549 7.3916L62.3567 11.5502C62.3448 11.5673 62.3166 11.5673 62.3046 11.5502L59.5776 7.3916C59.4844 7.26062 59.3607 7.15399 59.2164 7.08088C59.0727 7.00772 58.9127 6.97029 58.7505 6.97176H57.7114C57.6187 6.97149 57.5275 6.99676 57.4489 7.04471C57.3697 7.0927 57.3057 7.16147 57.2639 7.24332C57.2222 7.32521 57.2043 7.41693 57.2124 7.50826C57.2206 7.59959 57.2542 7.68686 57.3095 7.76035L61.0702 13.2863C61.0816 13.292 61.0816 13.309 61.0702 13.3203L56.7471 19.3626C56.6923 19.4375 56.6598 19.5258 56.6522 19.6179C56.6446 19.71 56.663 19.8023 56.7053 19.8848C56.7471 19.9672 56.8111 20.0367 56.8908 20.0857C56.97 20.1347 57.0611 20.1613 57.1544 20.1625H58.1366C58.2961 20.163 58.4539 20.1262 58.5965 20.0553C58.7392 19.9843 58.8628 19.8811 58.9572 19.7541L62.3046 15.0451C62.3166 15.0338 62.3448 15.0338 62.3567 15.0451L65.6466 19.7427C65.7399 19.8733 65.8636 19.9797 66.0079 20.0528C66.1516 20.1259 66.3116 20.1635 66.4732 20.1625H67.4836C67.8974 20.1625 68.1328 19.7087 67.8974 19.3683L63.5911 13.292V13.2523L67.3285 7.76035C67.3844 7.68648 67.418 7.59867 67.4261 7.50685C67.4337 7.41497 67.4158 7.32283 67.373 7.24077C67.3307 7.15871 67.2661 7.08999 67.1859 7.04243C67.1061 6.99492 67.0145 6.9704 66.9212 6.97176Z" fill="white"/>
</g>
<defs>
<clipPath id="clip0_1182_10177">
<rect width="130.708" height="25.4909" fill="white" transform="translate(0.144531 0.946533)"/>
</clipPath>
</defs>
</svg>
