<svg width="186" height="30" viewBox="0 0 186 30" fill="none" xmlns="http://www.w3.org/2000/svg">
<g clip-path="url(#clip0_1182_9863)">
<path d="M55.1082 9.50224C55.835 9.48361 56.5527 9.59543 57.2427 9.8284C57.7856 10.0148 58.2824 10.3223 58.6965 10.723C58.9081 10.9373 59.0277 11.2169 59.0369 11.5244C59.0553 11.8226 58.9909 12.1208 58.8345 12.3724C58.6689 12.624 58.4204 12.8104 58.1352 12.885C57.7396 12.9688 57.3255 12.9036 56.9851 12.6893C56.7275 12.5495 56.4607 12.4283 56.1846 12.3351C55.8442 12.2233 55.4762 12.1674 55.1174 12.1767C54.3997 12.1208 53.7096 12.4004 53.222 12.9409C52.7712 13.528 52.5503 14.2641 52.5871 15.0003V16.7709C52.5503 17.5164 52.7712 18.2432 53.222 18.8303C53.7004 19.3615 54.3997 19.6504 55.1174 19.5945C55.5038 19.5945 55.881 19.5572 56.2583 19.464C56.5343 19.3988 56.8103 19.2963 57.0587 19.1565C57.3439 18.9887 57.6844 18.9235 58.0156 18.9701C58.2916 19.0167 58.5492 19.1565 58.7333 19.3615C58.9081 19.5665 59.0185 19.8274 59.0461 20.0977C59.0645 20.4145 58.9725 20.7314 58.7701 20.9736C58.3928 21.4489 57.8776 21.7844 57.3071 21.9428C56.5987 22.1664 55.8534 22.2783 55.1174 22.269C54.2801 22.2876 53.452 22.1478 52.67 21.8496C52.0351 21.598 51.4555 21.2066 50.9954 20.6941C50.563 20.2002 50.2317 19.6224 50.0385 18.9887C49.8361 18.3178 49.7257 17.6282 49.7349 16.9293V14.8699H49.7533C49.7533 14.1616 49.8545 13.4627 50.0569 12.8011C50.2501 12.1674 50.5814 11.5896 51.0138 11.0958C51.4739 10.5832 52.0351 10.1825 52.67 9.93091C53.452 9.63271 54.2801 9.49293 55.1174 9.51156L55.1082 9.50224Z" fill="white"/>
<path d="M64.2264 5.68166C64.4564 5.87736 64.5944 6.17556 64.6036 6.48308V21.1229C64.6036 21.4304 64.4564 21.7193 64.2264 21.9243C63.9504 22.1759 63.5823 22.3063 63.2051 22.2784C62.8187 22.297 62.4506 22.1666 62.147 21.9243C61.8986 21.7379 61.7514 21.4397 61.7422 21.1229V6.48308C61.7422 6.16624 61.8986 5.87736 62.147 5.68166C62.3954 5.46733 62.7083 5.34619 63.0395 5.32755H63.2051C63.5731 5.30891 63.9412 5.43006 64.2264 5.68166Z" fill="white"/>
<path d="M70.9412 9.85649C71.1713 10.0522 71.3093 10.3504 71.3185 10.6579V21.1229C71.3185 21.4304 71.1713 21.7193 70.9412 21.9243C70.6652 22.1759 70.2972 22.3064 69.92 22.2784C69.5335 22.297 69.1655 22.1666 68.8619 21.9243C68.6134 21.7379 68.4662 21.4397 68.457 21.1229V10.6579C68.457 10.3411 68.6134 10.0522 68.8619 9.85649C69.1103 9.64216 69.4231 9.52101 69.7543 9.50237H69.92C70.288 9.48374 70.656 9.60488 70.9412 9.85649ZM70.9412 5.45803C71.1713 5.65372 71.3093 5.94261 71.3185 6.25013V6.83721C71.3185 7.14473 71.1713 7.43361 70.9412 7.6293C70.656 7.88091 70.2972 8.00205 69.92 7.98342C69.5335 8.00205 69.1655 7.88091 68.8619 7.6293C68.6134 7.44293 68.4662 7.14473 68.457 6.83721V6.25013C68.457 5.93329 68.6134 5.64441 68.8619 5.45803C69.1103 5.2437 69.4231 5.12255 69.7543 5.10392H69.92C70.288 5.08528 70.656 5.20642 70.9412 5.45803Z" fill="white"/>
<path d="M79.9567 9.5117C80.6835 9.49306 81.4012 9.60488 82.0913 9.83785C82.6341 10.0242 83.1309 10.3317 83.545 10.7325C83.7566 10.9468 83.8762 11.2263 83.8854 11.5339C83.9038 11.8321 83.8394 12.1303 83.683 12.3819C83.5174 12.6335 83.269 12.8199 82.9837 12.8944C82.5881 12.9783 82.1741 12.913 81.8336 12.6987C81.576 12.5589 81.3092 12.4378 81.0332 12.3446C80.6927 12.2328 80.3247 12.1769 79.9659 12.1862C79.2482 12.1303 78.5582 12.4098 78.0705 12.9503C77.6197 13.5374 77.3989 14.2736 77.4357 15.0098V16.7803C77.3989 17.5258 77.6197 18.2527 78.0705 18.8398C78.549 19.3709 79.2482 19.6598 79.9659 19.6039C80.3523 19.6039 80.7295 19.5666 81.1068 19.4735C81.3828 19.4082 81.6496 19.3057 81.9072 19.1659C82.1925 18.9982 82.5329 18.933 82.8641 18.9796C83.1401 19.0262 83.3978 19.1659 83.5818 19.3709C83.7566 19.576 83.867 19.8369 83.8946 20.1071C83.9222 20.424 83.821 20.7315 83.6278 20.9738C83.2598 21.4397 82.7445 21.7752 82.1741 21.9336C81.4656 22.1573 80.7203 22.2691 79.9843 22.2598C79.147 22.2784 78.3189 22.1386 77.5369 21.8404C76.902 21.5888 76.3224 21.1974 75.8623 20.6849C75.4299 20.191 75.0987 19.6132 74.9054 18.9796C74.703 18.3086 74.5926 17.619 74.6018 16.9201V14.8607L74.5742 14.842C74.5742 14.1431 74.6754 13.4442 74.8778 12.7826C75.0711 12.1489 75.4023 11.5711 75.8347 11.0772C76.2948 10.5647 76.8744 10.1733 77.5093 9.92172C78.2913 9.62352 79.1194 9.48374 79.9567 9.50238V9.5117Z" fill="white"/>
<path d="M89.2317 5.68166C89.4617 5.87736 89.5997 6.17556 89.6089 6.48308V14.1711H90.7222L94.2369 9.84715C94.4945 9.6235 94.8258 9.50236 95.157 9.52099C95.5434 9.52099 95.9023 9.67009 96.1783 9.94966C96.4359 10.2199 96.5647 10.602 96.5003 10.984C96.4635 11.3102 96.3163 11.6177 96.0771 11.8414L92.9488 15.3359L96.8039 20.2189C96.9971 20.4612 97.0708 20.7781 96.9971 21.0763C96.9051 21.4583 96.6659 21.7845 96.3439 21.9802C96.0495 22.2038 95.6906 22.297 95.3226 22.2504C95.019 22.2225 94.7338 22.0734 94.5313 21.8311L90.667 16.6964H89.5997V21.1229C89.5997 21.4304 89.4525 21.7193 89.2225 21.9243C88.9465 22.1759 88.5784 22.3063 88.2012 22.2784C87.8148 22.297 87.4467 22.1666 87.1431 21.9243C86.8947 21.7379 86.7475 21.4397 86.7383 21.1229V6.48308C86.7383 6.16624 86.8947 5.87736 87.1431 5.68166C87.3915 5.46733 87.7044 5.34619 88.0356 5.32755H88.2012C88.5692 5.30891 88.9373 5.43006 89.2225 5.68166H89.2317Z" fill="white"/>
<path d="M110.735 4.83362C111.075 4.83362 111.416 4.86157 111.756 4.93612C112.06 4.99204 112.345 5.09454 112.612 5.24364C112.842 5.37411 113.044 5.54184 113.21 5.75618C113.357 5.94255 113.431 6.18484 113.431 6.41781C113.449 6.73465 113.348 7.03285 113.155 7.27513C112.934 7.49878 112.63 7.61993 112.317 7.59197C112.069 7.59197 111.821 7.56402 111.581 7.48947C111.305 7.41492 111.029 7.38696 110.744 7.38696C110.321 7.34037 109.898 7.47083 109.557 7.73175C109.299 8.06723 109.171 8.48657 109.217 8.91524V9.75393H111.084C111.36 9.75393 111.618 9.86575 111.811 10.0614C112.023 10.2665 112.143 10.5647 112.124 10.8629C112.143 11.1797 112.023 11.4872 111.811 11.7109C111.618 11.9066 111.36 12.0184 111.084 12.0184H109.207V21.1042C109.207 21.4117 109.06 21.7006 108.83 21.9056C108.563 22.1479 108.205 22.2783 107.846 22.2597C107.459 22.2877 107.073 22.1572 106.778 21.9056C106.539 21.7099 106.401 21.421 106.392 21.1042V12.0091H105.546C105.27 12.0091 105.012 11.8972 104.819 11.7015C104.598 11.4779 104.487 11.1704 104.506 10.8535C104.497 10.5553 104.607 10.2665 104.819 10.0521C105.012 9.85643 105.27 9.74461 105.546 9.74461H106.392V9.00842C106.392 7.47083 106.76 6.38985 107.496 5.76549C108.232 5.14114 109.309 4.83362 110.735 4.83362Z" fill="white"/>
<path d="M116.992 9.87506C117.222 10.0708 117.36 10.369 117.369 10.6765V16.9666C117.305 17.7028 117.572 18.439 118.096 18.9609C118.602 19.3988 119.246 19.6225 119.918 19.6039C120.581 19.6318 121.225 19.3988 121.721 18.9609C122.237 18.439 122.504 17.7121 122.439 16.9666V10.6765C122.439 10.369 122.586 10.0708 122.826 9.87506C123.111 9.63278 123.47 9.50231 123.847 9.52095C124.215 9.51163 124.583 9.63278 124.868 9.87506C125.117 10.0614 125.273 10.3596 125.282 10.6765V16.8641C125.282 17.591 125.172 18.3179 124.942 19.0168C124.509 20.3214 123.525 21.3651 122.255 21.8497C121.51 22.1386 120.709 22.2877 119.918 22.269C119.118 22.2877 118.326 22.1479 117.581 21.859C116.302 21.3744 115.309 20.3214 114.876 19.0075C114.646 18.3179 114.526 17.591 114.536 16.8548V10.6672C114.536 10.3503 114.692 10.0614 114.94 9.86575C115.189 9.65141 115.502 9.53027 115.833 9.51163H115.999C116.367 9.49299 116.735 9.61414 117.02 9.86575L116.992 9.87506Z" fill="white"/>
<path d="M134.079 9.47433C134.87 9.45569 135.671 9.58616 136.416 9.83776C137.042 10.0521 137.621 10.4062 138.1 10.8721C138.56 11.3288 138.91 11.8879 139.121 12.5029C139.351 13.1832 139.471 13.9007 139.462 14.6183V21.1135C139.462 21.4303 139.296 21.7285 139.048 21.9149C138.762 22.1572 138.404 22.2783 138.026 22.269C137.658 22.2876 137.29 22.1572 137.005 21.9149C136.766 21.7192 136.628 21.4303 136.619 21.1135V14.8047C136.683 14.0685 136.416 13.3416 135.901 12.8104C135.395 12.3725 134.751 12.1488 134.098 12.1675C133.435 12.1488 132.791 12.3725 132.276 12.8104C131.751 13.3323 131.485 14.0592 131.549 14.8047V21.1135C131.549 21.421 131.402 21.7099 131.172 21.9149C130.896 22.1665 130.528 22.297 130.15 22.269C129.764 22.2876 129.396 22.1572 129.092 21.9149C128.844 21.7285 128.697 21.4303 128.688 21.1135V14.8979C128.688 14.171 128.798 13.4441 129.028 12.7452C129.46 11.4313 130.454 10.3783 131.733 9.89367C132.478 9.60479 133.26 9.45569 134.061 9.46501L134.079 9.47433Z" fill="white"/>
<path d="M148.239 9.47433C149.031 9.45569 149.831 9.58616 150.576 9.83776C151.202 10.0521 151.782 10.4062 152.26 10.8721C152.72 11.3288 153.07 11.8879 153.281 12.5029C153.511 13.1832 153.631 13.9007 153.622 14.6183V21.1135C153.622 21.4303 153.456 21.7285 153.208 21.9149C152.922 22.1572 152.564 22.2783 152.186 22.269C151.818 22.2876 151.45 22.1572 151.165 21.9149C150.926 21.7192 150.788 21.4303 150.779 21.1135V14.8047C150.843 14.0685 150.576 13.3416 150.061 12.8104C149.555 12.3725 148.911 12.1488 148.258 12.1675C147.595 12.1488 146.951 12.3725 146.436 12.8104C145.912 13.3323 145.645 14.0592 145.709 14.8047V21.1135C145.709 21.421 145.562 21.7099 145.332 21.9149C145.056 22.1665 144.688 22.297 144.311 22.269C143.924 22.2876 143.556 22.1572 143.252 21.9149C143.004 21.7285 142.857 21.4303 142.848 21.1135V14.8979C142.848 14.171 142.958 13.4441 143.188 12.7452C143.621 11.4313 144.614 10.3783 145.893 9.89367C146.638 9.60479 147.42 9.45569 148.221 9.46501L148.239 9.47433Z" fill="white"/>
<path d="M164.282 9.9589C165.469 10.4901 166.37 11.5058 166.784 12.7452C166.968 13.3043 167.06 13.8914 167.06 14.4878C167.116 15.0656 166.959 15.6434 166.619 16.1093C166.214 16.4634 165.689 16.6311 165.165 16.5752H159.414V17.2089C159.387 17.9171 159.644 18.5974 160.132 19.1006C160.684 19.6038 161.42 19.8648 162.166 19.8088C162.57 19.8088 162.966 19.7809 163.371 19.725C163.665 19.6877 163.96 19.6131 164.226 19.492L164.88 19.1472C165.055 19.0447 165.257 18.9888 165.459 18.9795C165.745 18.9608 166.011 19.0727 166.214 19.2777C166.398 19.492 166.499 19.7622 166.508 20.0418C166.49 20.34 166.37 20.6196 166.168 20.8246C165.901 21.1135 165.588 21.3558 165.248 21.5328C164.815 21.7565 164.355 21.9335 163.877 22.0453C163.325 22.1851 162.764 22.2597 162.193 22.2504C161.42 22.2597 160.657 22.1292 159.939 21.859C159.295 21.626 158.706 21.2719 158.182 20.8246C157.685 20.3959 157.289 19.8648 157.004 19.2684C156.728 18.6719 156.59 18.0196 156.59 17.3673V14.7581C156.59 13.3696 157.142 12.0277 158.117 11.0492C158.596 10.5646 159.166 10.1826 159.792 9.92163C160.463 9.64207 161.19 9.49297 161.926 9.50228C162.736 9.48365 163.536 9.63275 164.282 9.9589ZM160.151 12.5682C159.7 13.0807 159.442 13.7423 159.414 14.4226H164.364V14.0685C164.392 13.4534 164.134 12.8664 163.674 12.475C163.168 12.0649 162.534 11.8599 161.889 11.8879C161.236 11.8506 160.611 12.1022 160.151 12.5775V12.5682Z" fill="white"/>
<path d="M172.758 5.68166C172.988 5.87736 173.126 6.17556 173.135 6.48308V21.1229C173.135 21.4304 172.988 21.7193 172.758 21.9243C172.482 22.1759 172.114 22.3063 171.736 22.2784C171.35 22.297 170.982 22.1666 170.678 21.9243C170.43 21.7379 170.283 21.4397 170.273 21.1229V6.48308C170.273 6.16624 170.43 5.87736 170.678 5.68166C170.927 5.46733 171.24 5.34619 171.571 5.32755H171.736C172.104 5.30891 172.472 5.43006 172.758 5.68166Z" fill="white"/>
<path d="M181.095 9.47428C181.638 9.47428 182.172 9.52088 182.696 9.6327C183.083 9.71657 183.469 9.84703 183.828 10.0148C184.085 10.1359 184.325 10.2943 184.527 10.49C184.674 10.6298 184.794 10.7882 184.877 10.9653C184.996 11.2169 185.033 11.5058 184.996 11.7853C184.987 12.0649 184.849 12.3258 184.619 12.4842C184.361 12.6799 184.039 12.7545 183.727 12.6893C183.46 12.624 183.211 12.5122 182.972 12.3817C182.843 12.3165 182.641 12.2233 182.356 12.1022C181.951 11.9624 181.518 11.8972 181.086 11.9158C180.663 11.8878 180.24 12.0183 179.908 12.2979C179.651 12.5402 179.503 12.885 179.503 13.2391C179.503 13.5466 179.66 13.8261 179.927 13.9659C180.267 14.1616 180.626 14.32 180.994 14.4319L182.392 14.8792C182.889 15.0283 183.359 15.2519 183.791 15.5408C184.785 16.1931 185.355 17.33 185.282 18.5228C185.328 19.5665 184.886 20.5729 184.095 21.2532C183.165 21.9801 182.015 22.3435 180.847 22.2876C180.359 22.2876 179.862 22.241 179.384 22.1571C178.933 22.0733 178.501 21.9428 178.077 21.7751C177.718 21.626 177.378 21.4396 177.056 21.2066C176.789 21.0202 176.559 20.7779 176.394 20.4984C176.338 20.3866 176.311 20.2561 176.292 20.135C176.274 19.9859 176.292 19.8368 176.329 19.6877C176.366 19.5386 176.44 19.3988 176.522 19.2683C176.614 19.1378 176.743 19.0353 176.9 18.9701C177.084 18.8769 177.286 18.8303 177.498 18.821C177.654 18.821 177.801 18.849 177.949 18.9049C178.077 18.9608 178.197 19.0353 178.307 19.1285L178.648 19.3895C179.31 19.7902 180.083 19.9765 180.856 19.902C181.298 19.9206 181.73 19.7995 182.107 19.5572C182.402 19.3522 182.577 19.026 182.577 18.6626C182.577 18.3085 182.42 17.9637 182.135 17.7493C181.794 17.5071 181.426 17.3207 181.031 17.1902C180.589 17.0318 180.111 16.8827 179.605 16.7243C179.108 16.5752 178.62 16.3609 178.179 16.0813C177.746 15.8204 177.369 15.4663 177.074 15.0469C176.762 14.5344 176.605 13.9287 176.633 13.3229C176.596 12.2606 177.028 11.2355 177.82 10.5366C178.74 9.77249 179.908 9.39042 181.095 9.45565V9.47428Z" fill="white"/>
<path d="M11.238 6.54822C11.1368 7.07939 11.2564 7.61988 11.5784 8.04854C11.79 8.3281 12.0661 8.56107 12.3789 8.70085C12.7469 8.83132 13.1518 8.81268 13.5106 8.6729C13.8694 8.55175 14.2651 8.57039 14.6055 8.73813C14.9459 8.90587 15.2035 9.20407 15.3323 9.5675C15.6728 10.285 15.3968 11.1424 14.7067 11.5151C14.2375 11.7574 13.9062 12.2047 13.8234 12.7359C13.7774 12.9688 13.7774 13.2111 13.8234 13.4441C13.9798 14.2455 14.6607 14.8326 15.4704 14.8512C16.2708 14.8419 16.9425 15.4849 16.9517 16.305C16.9609 17.1157 16.326 17.796 15.5164 17.8053C14.7159 17.8239 14.035 18.4203 13.9154 19.2311C13.7774 19.9952 14.173 20.7593 14.8815 21.0855C15.6084 21.3837 15.958 22.2131 15.682 22.9586C15.5716 23.3127 15.3231 23.6109 14.9919 23.7786C14.6607 23.9464 14.2835 23.9743 13.9338 23.8532C13.161 23.6388 12.3421 23.965 11.9281 24.6639C11.4588 25.3162 11.4956 26.2015 12.0109 26.8165H4.45703C8.21095 24.9435 10.7596 21.0109 10.6768 16.1279C10.6031 11.6269 7.6497 8.23491 4.54904 6.54822H11.238Z" fill="white"/>
<path d="M32.6574 0.38855C33.7431 0.38855 34.6172 1.28315 34.6172 2.37345V27.4037C34.6172 28.5033 33.7339 29.3885 32.6574 29.3885H2.24883C1.16314 29.3885 0.289062 28.4939 0.289062 27.4037V2.37345C0.289062 1.28315 1.17234 0.38855 2.24883 0.38855H32.6574ZM32.0961 6.54825H2.79167V26.8166H32.0961V6.54825ZM30.7988 2.2989C30.1088 2.2989 29.5475 2.86734 29.5475 3.56625C29.5475 4.26516 30.1088 4.8336 30.7988 4.8336C31.4889 4.8336 32.0501 4.26516 32.0501 3.56625C32.0501 2.86734 31.4889 2.2989 30.7988 2.2989ZM26.3273 2.2989C25.996 2.2989 25.674 2.42936 25.444 2.67165C25.214 2.91394 25.0759 3.23077 25.0759 3.56625C25.0759 4.26516 25.6372 4.8336 26.3273 4.8336C27.0173 4.8336 27.5786 4.26516 27.5786 3.56625C27.5786 2.86734 27.0173 2.2989 26.3273 2.2989ZM21.8557 2.2989C21.1656 2.2989 20.6044 2.86734 20.6044 3.56625C20.6044 4.26516 21.1656 4.8336 21.8557 4.8336C22.5457 4.8336 23.107 4.26516 23.107 3.56625C23.107 2.86734 22.5457 2.2989 21.8557 2.2989Z" fill="white"/>
<path d="M30.166 6.54822C25.9336 8.74745 23.4126 13.4721 24.3235 18.8769C24.9676 22.6976 27.6082 25.3814 30.4512 26.8072H21.5173C21.186 26.6395 20.91 26.3879 20.7168 26.071C20.266 25.4187 20.404 24.5148 21.0388 24.0395C21.4713 23.732 21.7289 23.2195 21.7289 22.6883C21.7289 22.446 21.7013 22.2131 21.6277 21.9894C21.3516 21.2253 20.588 20.75 19.7875 20.8525C18.9962 20.9923 18.2418 20.4518 18.1038 19.6504C17.9658 18.849 18.4994 18.0848 19.2907 17.9451C20.0543 17.7866 20.6156 17.1157 20.6248 16.3143C20.6432 15.5315 20.1371 14.8419 19.3919 14.6276C18.6374 14.4319 18.1682 13.6678 18.3338 12.9036C18.389 12.5309 18.5914 12.1954 18.895 11.9811C19.1987 11.7667 19.5759 11.6829 19.9439 11.7481C20.7444 11.8413 21.5081 11.394 21.8117 10.6392C22.1889 9.91229 22.0141 9.02701 21.3884 8.50516C20.7812 8.03922 20.6432 7.18189 21.0664 6.54822H30.1752H30.166Z" fill="white"/>
<path d="M36.1258 25.074C40.7042 25.074 44.4157 21.3149 44.4157 16.6778C44.4157 12.0407 40.7042 8.28162 36.1258 8.28162C31.5475 8.28162 27.8359 12.0407 27.8359 16.6778C27.8359 21.3149 31.5475 25.074 36.1258 25.074Z" fill="white"/>
<path d="M32.2997 15.4757V14.8234C32.2997 13.9475 32.7689 13.5747 33.6522 13.5747H33.6706C34.5538 13.5747 35.0231 13.9475 35.0231 14.8234V15.6155C35.0231 16.3051 34.517 16.6592 33.9282 17.1904C33.3853 17.675 33.0633 17.9918 33.0633 18.4018V19.0262H34.7379C34.9219 19.0262 35.0231 19.1194 35.0231 19.3151V19.4269C35.0231 19.6039 34.9311 19.7158 34.7379 19.7158H32.5665C32.3825 19.7158 32.2812 19.6133 32.2812 19.4269V18.3832C32.2812 17.6097 32.8609 17.1345 33.4866 16.5847C33.9926 16.1467 34.241 15.9324 34.241 15.5689V14.9259C34.241 14.432 34.0202 14.255 33.643 14.255C33.2657 14.255 33.0725 14.432 33.0725 14.9259V15.4757C33.0725 15.6621 32.9713 15.7646 32.7781 15.7646H32.5849C32.4009 15.7646 32.2997 15.6621 32.2997 15.4757Z" fill="white"/>
<path d="M36.4034 19.0447V19.4268C36.4034 19.6039 36.3114 19.7157 36.1182 19.7157H35.879C35.695 19.7157 35.5938 19.6132 35.5938 19.4268V19.0447C35.5938 18.8584 35.695 18.7559 35.879 18.7559H36.1182C36.3022 18.7559 36.4034 18.8584 36.4034 19.0447Z" fill="white"/>
<path d="M39.9731 14.8607V18.495C39.9731 19.3896 39.4578 19.781 38.593 19.781H38.5286C37.6545 19.781 37.1484 19.3896 37.1484 18.495V14.8607C37.1484 13.9661 37.6637 13.5747 38.5286 13.5747H38.593C39.467 13.5747 39.9731 13.9661 39.9731 14.8607ZM38.5562 14.3016C38.1329 14.3016 37.9121 14.4879 37.9121 15.0191V18.3459C37.9121 18.8864 38.1329 19.0635 38.5562 19.0635C38.9794 19.0635 39.2002 18.8771 39.2002 18.3459V15.0191C39.2002 14.4786 38.9794 14.3016 38.5562 14.3016Z" fill="white"/>
</g>
<defs>
<clipPath id="clip0_1182_9863">
<rect width="185" height="29" fill="white" transform="translate(0.289062 0.38855)"/>
</clipPath>
</defs>
</svg>
