<svg width="140" height="22" viewBox="0 0 140 22" fill="none" xmlns="http://www.w3.org/2000/svg">
<g clip-path="url(#clip0_1182_9904)">
<path d="M28.8676 21.2243H26.3072L31.1487 0.553015H33.7092L28.8676 21.2243ZM40.7853 21.2243H32.2194L37.1075 0.553015H39.668L35.3385 18.9481H41.3439C41.3439 18.9017 40.7853 21.2243 40.7853 21.2243ZM47.4889 13.2345L45.6268 21.2243H43.0198L44.8819 13.1416L43.4853 0.553015H46.0923L46.8372 10.6332L52.4236 0.553015H55.3099L47.4889 13.2345ZM104.936 2.82918H101.165L97.1148 21.2243H94.5078L98.5579 2.82918H94.4612L95.0199 0.506563H105.494C105.494 0.553015 104.936 2.82918 104.936 2.82918ZM104.843 21.2243H102.562L107.17 0.553015H109.684L105.122 21.2243H104.843ZM121.602 6.35956L119.321 16.5326C118.995 17.9726 118.576 18.9946 118.017 19.7378C117.179 20.8991 115.783 21.4566 113.874 21.4566C110.755 21.4566 108.986 20.1094 108.939 17.7868C108.939 17.09 109.032 16.4862 109.265 15.3713L111.546 5.19825C112.291 1.76078 114.06 0.227849 117.133 0.227849C120.205 0.227849 121.788 1.62142 121.835 3.99049C121.928 4.64082 121.835 5.33761 121.602 6.35956ZM117.086 2.36466C116.202 2.36466 115.503 2.64337 115.038 3.24725C114.665 3.71177 114.479 4.31565 114.153 5.52341L111.872 15.7429C111.733 16.3468 111.639 16.9507 111.639 17.3688C111.639 18.623 112.477 19.2733 113.874 19.2733C115.364 19.2733 116.155 18.4372 116.621 16.3004L118.902 6.2202C119.134 5.2447 119.228 4.73373 119.181 4.2692C119.274 3.01499 118.483 2.36466 117.086 2.36466ZM57.3117 0.553015H61.5946L62.7584 12.3984C62.9912 14.6745 63.0843 16.5326 63.224 19.041H63.2705C64.2481 16.5791 65.1326 14.721 66.2499 12.3984L72.1156 0.553015H76.4917L74.164 21.2243H71.3242L72.8139 8.86798C73.0933 6.63827 73.3726 4.73373 73.745 2.45756L73.6985 2.41111C72.6743 4.64082 71.7432 6.59182 70.6259 8.86798L64.6206 21.2243H60.9428L59.779 8.86798C59.5462 6.63827 59.4066 4.64082 59.2669 2.45756H59.2204C58.7083 4.64082 58.2428 6.63827 57.591 8.86798L54.2392 21.2243H51.3529L57.3117 0.553015ZM93.5302 10.8654C91.9939 18.8088 88.6421 21.5959 83.3815 21.5959C79.2383 21.5959 76.9106 19.8307 76.9106 15.2784C76.9106 13.9313 77.0503 12.5842 77.3762 10.9119C79.0055 2.96854 82.2643 0.181396 87.5713 0.181396C91.7146 0.181396 94.0423 1.94659 94.0423 6.49891C94.0423 7.89248 93.856 9.19315 93.5302 10.8654ZM87.2455 2.36466C83.8005 2.36466 81.4729 4.59437 80.2159 10.9583C79.8901 12.4448 79.7038 13.8848 79.7038 15.0926C79.7038 18.1584 81.0073 19.4127 83.6609 19.4127C87.1058 19.4127 89.4335 17.1829 90.6904 10.819C90.9697 9.33251 91.2025 7.89248 91.2025 6.68472C91.2491 3.66532 89.899 2.36466 87.2455 2.36466ZM9.22211 0.506563C8.71002 0.506563 4.42711 0.599467 4.42711 0.599467L0.0976562 21.2708H2.146C3.30984 21.2708 3.72882 21.2708 4.84609 21.2708C10.1532 21.2708 13.505 18.9017 15.0413 11.0048C15.3671 9.33251 15.5534 8.03184 15.5534 6.68472C15.5534 2.08594 13.3654 0.506563 9.22211 0.506563ZM12.4808 10.9583C11.1773 17.3223 9.08245 18.7623 5.59095 18.8088C4.38056 18.8088 4.10124 18.8088 3.17018 18.8088L6.47546 2.87563C7.49963 2.82918 7.7324 2.82918 8.71002 2.82918C11.3636 2.87563 12.9929 3.85113 12.9929 6.91698C12.9929 8.07829 12.7602 9.51832 12.4808 10.9583ZM137.151 0.506563L133.054 19.041L130.028 0.506563H125.745L121.09 21.2243H123.79L127.887 2.36466L130.912 21.2243H135.149L139.804 0.506563H137.151ZM22.3501 0.553015L13.7843 21.2243H16.531L18.0672 17.3688L19.0449 14.9532L19.3707 14.0242H22.257L22.1639 14.9532L22.0243 17.3688L21.7449 21.2243H24.3054L25.9347 0.553015H22.3501ZM20.3484 11.6087L23.6536 2.41111L22.5829 11.6087H20.3484Z" fill="white"/>
</g>
<defs>
<clipPath id="clip0_1182_9904">
<rect width="139.66" height="21.4145" fill="white" transform="translate(0.0976562 0.181396)"/>
</clipPath>
</defs>
</svg>
