<svg width="109" height="27" viewBox="0 0 109 27" fill="none" xmlns="http://www.w3.org/2000/svg">
<g clip-path="url(#clip0_1182_10175)">
<path d="M19.8076 5.45645C15.9839 5.45645 13.5329 8.00554 13.5329 11.535C13.5329 15.2606 15.9839 17.7117 20.0037 17.7117C21.7684 17.7117 23.8273 17.1234 25.0038 15.8489L23.141 14.0841C22.4547 14.7704 21.0821 15.1626 20.0037 15.1626C17.9448 15.1626 16.6702 14.0841 16.5722 12.7115H25.7881C26.2783 7.80946 23.7292 5.45645 19.8076 5.45645ZM16.6702 10.2605C17.1604 8.78987 18.435 8.00554 20.0037 8.00554C21.6704 8.00554 22.8469 8.78987 23.0429 10.2605H16.6702ZM31.5726 14.9665C30.6902 14.9665 30.1019 14.4763 30.1019 13.2998V8.29966H33.3373V5.84862H30.1019V2.61324L27.1607 2.90737V13.3978C27.1607 16.3391 28.8274 17.7117 31.3765 17.6136C32.2589 17.6136 32.9452 17.4175 33.8275 17.1234L32.9452 14.6724C32.553 14.8685 32.0628 14.9665 31.5726 14.9665ZM53.5339 5.45645C52.3574 5.45645 51.0829 5.65254 50.2005 7.12316L50.0044 5.84862H47.2593V17.5156H50.2005V11.437C50.2005 9.28008 51.6711 8.49575 53.1418 8.49575C54.1222 8.49575 54.5143 8.69183 55.1026 9.084L56.3771 6.63295C55.7889 5.84862 54.7104 5.5545 53.5339 5.45645ZM62.0636 5.5545C58.338 5.5545 55.985 8.29966 55.985 11.6331C55.985 14.9665 58.2399 17.7117 62.0636 17.7117C65.8872 17.7117 68.1421 15.0645 68.1421 11.6331C68.2402 8.29966 65.7891 5.5545 62.0636 5.5545ZM62.1616 15.0645C60.1027 15.0645 59.0243 13.3978 59.0243 11.6331C59.0243 9.86833 60.2008 8.20162 62.1616 8.20162C64.1224 8.20162 65.2989 9.96637 65.2989 11.6331C65.2989 13.3978 64.2205 15.0645 62.1616 15.0645ZM78.1424 11.7311C78.1424 13.4959 76.9659 15.0645 75.1031 15.0645C73.2403 15.0645 72.2599 13.692 72.2599 11.9272V5.84862H69.3186V11.9272C69.3186 15.5548 71.3775 17.6136 74.1227 17.6136C75.7894 17.6136 76.8679 17.0254 78.1424 15.8489L78.3385 17.4175H80.8876V5.84862H78.0444L78.1424 11.7311ZM89.2211 5.5545C87.7505 5.5545 86.574 6.14275 85.3975 7.31925L85.2014 5.75058H82.6523V17.4175H85.4955V11.437C85.4955 9.67225 86.672 8.10358 88.5348 8.10358C90.3976 8.10358 91.378 9.47617 91.378 11.2409V17.3195H94.3193V11.2409C94.2213 7.71141 92.0643 5.5545 89.2211 5.5545ZM105.202 0.946533V7.41729C104.516 6.24079 102.555 5.5545 101.378 5.5545C97.9468 5.5545 95.3978 7.61337 95.3978 11.6331C95.3978 15.4567 97.9468 17.7117 101.378 17.7117C102.849 17.7117 104.222 17.2215 105.104 15.8489L105.3 17.4175H108.045V0.946533L105.202 0.946533ZM101.574 14.9665C99.7116 14.9665 98.241 13.5939 98.241 11.535C98.241 9.47617 99.7116 8.20162 101.574 8.20162C103.339 8.20162 105.006 9.57421 105.006 11.535C105.006 13.692 103.437 14.9665 101.574 14.9665ZM43.7298 5.94666C42.3572 5.16233 39.612 5.16233 38.0433 5.45645C36.1805 5.94666 35.004 7.41729 34.906 9.18204L37.6512 9.77029C37.9453 8.49575 38.2394 8.00554 39.514 7.80946C40.2983 7.61337 41.5728 7.71141 42.2591 8.39771C42.6513 8.78987 42.6513 8.88792 42.6513 9.57421C42.6513 9.86833 42.063 9.96637 41.6709 10.0644C40.3963 10.3585 38.3375 10.5546 37.0629 10.8488C34.6119 11.535 34.2197 14.4763 35.4942 16.045C36.7688 17.6136 40.0042 18.0058 41.7689 16.8293C42.063 16.6332 42.2591 16.4371 42.6513 16.241V17.3195H45.6906V14.3783C45.6906 12.6135 45.7886 10.8488 45.6906 9.084C45.5925 7.71141 44.9062 6.63295 43.7298 5.94666ZM41.4748 14.7704C41.0826 14.9665 40.6905 15.0645 40.2983 15.2606C39.8081 15.3587 39.1218 15.4567 38.6316 15.3587C38.2394 15.2606 37.8472 15.0645 37.6512 14.7704C37.4551 14.5743 37.4551 14.3783 37.4551 14.0841C37.4551 13.888 37.5531 13.692 37.6512 13.4959C37.7492 13.2998 38.0433 13.1037 38.2394 13.0057C39.0237 12.7115 39.8081 12.5155 40.6905 12.5155L42.063 12.3194H42.4552C42.5532 12.3194 42.5532 12.3194 42.5532 12.4174C42.5532 12.6135 42.5532 12.8096 42.4552 13.0057C42.4552 13.2018 42.3572 13.3978 42.2591 13.5939C42.1611 13.9861 41.867 14.3783 41.4748 14.7704ZM6.37585 17.7117C2.55222 17.7117 0.29726 15.0645 0.29726 11.6331C0.29726 8.20162 2.65026 5.5545 6.37585 5.5545H13.6309C13.6309 5.5545 13.3368 7.41729 11.5721 8.20162H6.37585C4.31697 8.20162 3.14047 9.96637 3.14047 11.6331C3.14047 13.3978 4.21893 15.0645 6.27781 15.0645C8.33668 15.0645 9.41514 13.3978 9.41514 11.6331C9.41514 10.6527 9.02298 9.67225 8.33668 9.084H11.7681C12.1603 9.86833 12.2584 10.7507 12.2584 11.6331C12.2584 13.5939 11.474 15.2606 10.1995 16.3391C11.8662 17.3195 12.2584 18.6921 12.2584 20.0647C12.2584 23.3981 9.70927 25.457 6.27781 25.457C2.94439 25.457 0.493344 23.5942 0.199219 20.751L3.14047 20.4568C3.33655 21.8294 4.6111 22.8098 6.27781 22.8098C8.04256 22.8098 9.3171 21.9275 9.3171 20.1627C9.51318 18.398 7.94452 17.7117 6.37585 17.7117Z" fill="white"/>
</g>
<defs>
<clipPath id="clip0_1182_10175">
<rect width="107.846" height="25.4909" fill="white" transform="translate(0.296875 0.946533)"/>
</clipPath>
</defs>
</svg>
