<svg width="73" height="27" viewBox="0 0 73 27" fill="none" xmlns="http://www.w3.org/2000/svg">
<g clip-path="url(#clip0_1182_10192)">
<path fill-rule="evenodd" clip-rule="evenodd" d="M36.874 11.8464H43.0602V19.8455C42.0609 20.1646 41.1167 20.392 40.2317 20.5286C39.3467 20.654 38.4371 20.7224 37.5174 20.7224C35.16 20.7224 33.3665 20.0392 32.1236 18.6729C30.8827 17.3086 30.2617 15.3387 30.2617 12.7794C30.2617 10.2864 30.9857 8.35215 32.4233 6.9522C33.861 5.56447 35.8616 4.85889 38.4147 4.85889C40.0135 4.85889 41.5542 5.17701 43.0377 5.80307L41.9335 8.42047C40.8299 7.86917 39.6137 7.58091 38.38 7.57825C36.9546 7.57825 35.8044 8.05646 34.9418 9.00064C34.0792 9.94584 33.654 11.2316 33.654 12.8355C33.654 14.5087 33.9987 15.7945 34.689 16.6713C35.3793 17.5584 36.3918 17.9908 37.7132 17.9908C38.4035 17.9908 39.105 17.9224 39.8177 17.7746V14.5546H36.8618V11.8454L36.874 11.8464Z" fill="white"/>
<path fill-rule="evenodd" clip-rule="evenodd" d="M7.77032 0.946533L0.238281 8.40006L13.0948 13.6695L7.77032 0.946533Z" fill="white" fill-opacity="0.6"/>
<path fill-rule="evenodd" clip-rule="evenodd" d="M18.4298 0.946533H7.76953L13.0941 13.6695L18.4298 0.946533Z" fill="white" fill-opacity="0.4"/>
<path fill-rule="evenodd" clip-rule="evenodd" d="M18.4295 26.4038L25.9615 18.9503L13.0938 13.6686L18.4295 26.4038Z" fill="white" fill-opacity="0.8"/>
<path fill-rule="evenodd" clip-rule="evenodd" d="M7.76953 26.4038H18.4298L13.0941 13.6686L7.76953 26.4038Z" fill="white" fill-opacity="0.7"/>
<path fill-rule="evenodd" clip-rule="evenodd" d="M0.238281 18.9492L7.77032 26.4027L13.0948 13.6696L0.238281 18.9492Z" fill="white"/>
<path fill-rule="evenodd" clip-rule="evenodd" d="M0.238281 8.40015V18.9493L13.0948 13.6696L0.238281 8.40015Z" fill="white" fill-opacity="0.8"/>
<path fill-rule="evenodd" clip-rule="evenodd" d="M25.9615 18.994V8.45813L13.0938 13.7266L25.9615 18.994Z" fill="white"/>
<path fill-rule="evenodd" clip-rule="evenodd" d="M49.7781 20.5062H46.5234V4.08496H49.7781V20.5062ZM58.5867 20.7223C56.6657 20.7223 55.171 20.1982 54.0901 19.1521C53.0093 18.1049 52.4689 16.6132 52.4689 14.7024C52.4689 12.7223 52.9634 11.1969 53.9637 10.1161C54.964 9.03528 56.3435 8.49998 58.1034 8.49998C59.794 8.49998 61.1052 8.97819 62.0362 9.92237C62.9793 10.8676 63.4392 12.187 63.4392 13.8602V15.4192H55.746C55.7807 16.3297 56.057 17.0466 56.5617 17.5584C57.0797 18.0703 57.7924 18.3333 58.7132 18.3333C59.4259 18.3333 60.1039 18.264 60.7484 18.1161C61.3928 17.9683 62.0596 17.7287 62.7489 17.4106V19.9025C62.186 20.188 61.5763 20.392 60.9207 20.5286C60.2997 20.654 59.5187 20.7223 58.5867 20.7223ZM58.1269 10.7758C57.4366 10.7758 56.8962 10.992 56.5057 11.4253C56.1141 11.8576 55.8959 12.4715 55.8378 13.2688H60.4037C60.3915 12.4715 60.1845 11.8576 59.7715 11.4253C59.3566 10.992 58.8161 10.7758 58.1269 10.7758ZM73.662 20.5062L73.0298 18.9013H72.9483C72.3977 19.5844 71.8338 20.0626 71.2587 20.3237C70.6837 20.5857 69.9251 20.7213 68.9931 20.7213C67.843 20.7213 66.9467 20.4032 66.2911 19.7547C65.6355 19.1062 65.302 18.1845 65.302 16.9895C65.302 15.7373 65.7395 14.8156 66.6245 14.2242C67.5096 13.6328 68.8442 13.3025 70.6266 13.2352L72.6964 13.1658V12.6428C72.6964 11.4477 72.0745 10.8441 70.8448 10.8441C69.8904 10.8441 68.7749 11.1296 67.4871 11.6975L66.4063 9.52471C67.7747 8.81912 69.3041 8.45409 70.9712 8.45409C72.57 8.45409 73.7997 8.79567 74.6521 9.49004C75.5025 10.1844 75.9266 11.2316 75.9266 12.6305V20.495H73.663V20.5052L73.662 20.5062ZM72.6964 15.044L71.4423 15.0889C70.5001 15.1123 69.7986 15.2826 69.3265 15.6017C68.8677 15.9076 68.6373 16.3868 68.6373 17.0119C68.6373 17.9224 69.1654 18.3782 70.2126 18.3782C70.9712 18.3782 71.5687 18.162 72.0174 17.7297C72.466 17.2964 72.6964 16.7274 72.6964 16.0218V15.043V15.044ZM89.9568 20.5062H86.7031V13.6094C86.7031 12.7559 86.5543 12.1187 86.2667 11.6975C85.9792 11.2764 85.5306 11.0603 84.9106 11.0603C84.0817 11.0603 83.4729 11.3682 83.0926 11.9708C82.7133 12.5744 82.5298 13.5757 82.5298 14.9522V20.5062H79.2751V8.71614H81.7701L82.2076 10.2303H82.3911C82.7133 9.68377 83.1732 9.26266 83.7829 8.95575C84.3927 8.64782 85.0819 8.49998 85.864 8.49998C87.6463 8.49998 88.8535 9.08117 89.4867 10.2303H89.7743C90.0955 9.68377 90.5676 9.25145 91.1885 8.95575C91.8095 8.64782 92.511 8.49998 93.293 8.49998C94.639 8.49998 95.6617 8.84155 96.3632 9.52471C97.0535 10.2079 97.3981 11.3111 97.3981 12.8242V20.5174H94.1322V13.6206C94.1322 12.7671 93.9823 12.1299 93.6948 11.7088C93.4083 11.2877 92.9596 11.0715 92.3387 11.0715C91.5444 11.0715 90.9469 11.356 90.5563 11.9127C90.1648 12.4704 89.969 13.3698 89.969 14.5984V20.5052H89.9588L89.9568 20.5062Z" fill="white"/>
</g>
<defs>
<clipPath id="clip0_1182_10192">
<rect width="97.8849" height="25.4909" fill="white" transform="translate(0.238281 0.946533)"/>
</clipPath>
</defs>
</svg>
