<svg width="96" height="26" viewBox="0 0 96 26" fill="none" xmlns="http://www.w3.org/2000/svg">
<g clip-path="url(#clip0_1182_9888)">
<path d="M94.9774 4.55032C94.64 4.17024 94.1902 3.97996 93.5813 3.97996C92.9725 3.97996 92.5087 4.18282 92.1834 4.60054C91.8608 5.00444 91.6925 5.61062 91.6925 6.40756V12.1724C90.9434 11.3629 90.1663 10.7814 89.3791 10.3891C88.8855 10.1501 88.3055 9.97369 87.6586 9.88393C87.2821 9.83363 86.8955 9.80761 86.4697 9.80761C84.49 9.80761 82.8884 10.4906 81.6586 11.8556C80.4429 13.2216 79.8359 15.1179 79.8359 17.5562C79.8359 18.7082 79.9912 19.7819 80.2998 20.7688C80.6112 21.7547 81.048 22.6134 81.6457 23.3476C82.2406 24.0809 82.9507 24.6354 83.7658 25.0421C84.5801 25.4328 85.4594 25.6338 86.4168 25.6338C86.8574 25.6338 87.2691 25.5976 87.6586 25.5222C87.9169 25.4822 88.1624 25.4198 88.4086 25.3436C89.0156 25.1425 89.5845 24.8522 90.1022 24.4856C90.632 24.1051 91.1637 23.6129 91.6925 23.0182V23.3979C91.6925 24.119 91.8738 24.6614 92.2224 25.0532C92.5848 25.4328 93.0375 25.6338 93.5813 25.6338C94.1371 25.6338 94.5898 25.4459 94.9384 25.0793C95.2869 24.6997 95.4687 24.1441 95.4687 23.3979V6.20566C95.4687 5.48456 95.3 4.92812 94.9774 4.55032ZM90.9555 20.4528C90.6051 21.1861 90.1413 21.7295 89.5733 22.0831C88.9906 22.4377 88.3557 22.6134 87.6586 22.6134H87.6465C86.9475 22.6134 86.3136 22.4246 85.7308 22.058C85.1499 21.6793 84.6833 21.1219 84.3477 20.3892C84.0122 19.6428 83.8439 18.7458 83.8439 17.6838C83.8439 16.6853 83.9983 15.8004 84.3217 15.0546C84.633 14.2963 85.0848 13.7138 85.6546 13.3095C86.2364 12.8917 86.8834 12.7029 87.6204 12.7029H87.6586C88.3436 12.7029 88.9766 12.9052 89.5594 13.2965C90.1413 13.6882 90.6051 14.2586 90.9555 15.0039C91.305 15.7497 91.4723 16.6472 91.4723 17.6838C91.4723 18.7957 91.305 19.7196 90.9555 20.4528Z" fill="white"/>
<path d="M78.6064 20.6171C78.3629 20.4021 78.0255 20.2882 77.6109 20.2882C77.2364 20.2882 76.952 20.3766 76.7447 20.5408C76.2409 20.9963 75.8403 21.3611 75.5288 21.628C75.2193 21.8812 74.8699 22.1343 74.4943 22.3734C74.1337 22.6005 73.7452 22.7792 73.3594 22.8805C72.957 22.9931 72.5294 23.0434 72.0516 23.0434C71.9475 23.0434 71.8435 23.0434 71.7542 23.0303C71.1593 22.9931 70.6035 22.8275 70.0997 22.5242C69.503 22.1827 69.0382 21.6793 68.6757 21.0214C68.3263 20.3384 68.1469 19.5555 68.1338 18.671H75.9304C76.977 18.671 77.7913 18.5179 78.3629 18.2392C78.9438 17.9363 79.2283 17.3045 79.2283 16.3313C79.2283 15.2691 78.9438 14.232 78.3879 13.2095C77.8312 12.1971 77.0039 11.3629 75.8793 10.7185C74.7648 10.0747 73.4338 9.75778 71.8704 9.75778H71.7542C70.6035 9.76988 69.542 9.96064 68.5986 10.3142C67.6161 10.6935 66.7879 11.2368 66.1019 11.9319C65.4438 12.6396 64.9261 13.4867 64.5776 14.4726C64.229 15.4599 64.0469 16.5337 64.0469 17.6833C64.0469 20.137 64.7588 22.058 66.181 23.4862C67.5241 24.8392 69.3877 25.5473 71.7542 25.6218C71.8834 25.6338 72.0247 25.6338 72.1678 25.6338C73.2795 25.6338 74.2759 25.4961 75.1413 25.2058C76.0084 24.9146 76.7186 24.5591 77.2902 24.1311C77.8564 23.6882 78.2839 23.2341 78.5664 22.7651C78.8527 22.2981 78.9949 21.8812 78.9949 21.5388C78.9949 21.1479 78.8667 20.8316 78.6064 20.6171ZM69.2976 13.4742C69.9296 12.8042 70.7457 12.4758 71.7403 12.4758H71.7542C72.7878 12.4758 73.6289 12.8042 74.262 13.4612C74.8978 14.119 75.2705 15.1179 75.3625 16.4574H68.1338C68.2621 15.143 68.6506 14.1432 69.2976 13.4742Z" fill="white"/>
<path d="M61.6518 20.2882C61.2642 20.2882 60.9788 20.3766 60.7733 20.5408C60.2808 20.9963 59.8681 21.3619 59.5567 21.628C59.2471 21.8812 58.9107 22.1343 58.5352 22.3734C58.1615 22.6005 57.7851 22.7792 57.3845 22.8805C56.9959 22.9931 56.5563 23.0434 56.0785 23.0434C55.9753 23.0434 55.8721 23.0434 55.782 23.0303C55.1862 22.9931 54.6295 22.8275 54.1257 22.5242C53.5447 22.1827 53.0651 21.6793 52.7175 21.0214C52.354 20.3384 52.1728 19.5555 52.1602 18.671H59.9703C61.0058 18.671 61.8199 18.5179 62.4019 18.2392C62.9716 17.9363 63.2552 17.3045 63.2552 16.3313C63.2552 15.2691 62.9837 14.232 62.4279 13.2095C61.8711 12.1971 61.0309 11.3629 59.921 10.7185C58.8047 10.0747 57.4625 9.75778 55.9121 9.75778H55.782C54.6295 9.76988 53.5819 9.96064 52.6264 10.3142C51.6425 10.6935 50.8152 11.2368 50.1428 11.9319C49.4703 12.6396 48.9525 13.4867 48.6049 14.4726C48.2545 15.4599 48.0742 16.5337 48.0742 17.6838C48.0742 20.137 48.7983 22.058 50.2222 23.4862C51.5649 24.8392 53.4155 25.5473 55.782 25.6218C55.9232 25.6338 56.0525 25.6338 56.1957 25.6338C57.3194 25.6338 58.3037 25.4961 59.1672 25.2058C60.0345 24.9146 60.7464 24.5591 61.3143 24.1311C61.8962 23.6882 62.3098 23.2341 62.5952 22.7651C62.8805 22.2981 63.0218 21.8812 63.0218 21.5388C63.0218 21.1479 62.8936 20.8316 62.6482 20.6171C62.3898 20.4021 62.0524 20.2882 61.6518 20.2882ZM53.3249 13.4742C53.9569 12.8042 54.7707 12.4758 55.7681 12.4758H55.782C56.8156 12.4758 57.6559 12.8042 58.2907 13.4612C58.9358 14.119 59.2982 15.1179 59.4024 16.4574H52.1602C52.3034 15.143 52.6914 14.1432 53.3249 13.4742Z" fill="white"/>
<path d="M8.59766 23.0434V13.7403C8.86907 13.764 9.12791 13.7766 9.39932 13.7766C10.6922 13.7766 11.9094 13.4356 12.9426 12.8289V23.0434C12.9426 23.9152 12.7353 24.5601 12.3351 24.9908C11.9355 25.4198 11.4038 25.6338 10.7573 25.6338C10.1234 25.6338 9.61917 25.4198 9.20461 24.9779C8.80493 24.548 8.59766 23.9022 8.59766 23.0434Z" fill="white"/>
<path d="M46.1616 4.55032C45.8241 4.17024 45.3603 3.97996 44.7775 3.97996C44.1701 3.97996 43.7035 4.18282 43.3806 4.60054C43.0464 5.00444 42.8893 5.61062 42.8893 6.40756V12.1724C42.1392 11.3629 41.3635 10.7814 40.5744 10.3891C40.0716 10.1501 39.5013 9.97369 38.8557 9.88393C38.4812 9.83363 38.0927 9.80761 37.6664 9.80761C35.6867 9.80761 34.0707 10.4906 32.8559 11.8556C31.6401 13.2216 31.0312 15.1179 31.0312 17.5562C31.0312 18.7082 31.1879 19.7819 31.4835 20.7688C31.7949 21.7547 32.2471 22.6134 32.8434 23.3476C33.4368 24.0809 34.1483 24.6354 34.9645 25.0421C35.7786 25.4328 36.6566 25.6338 37.6135 25.6338C38.0401 25.6338 38.4547 25.5976 38.8557 25.5222C39.1137 25.4822 39.36 25.4198 39.6058 25.3436C40.2133 25.1425 40.7822 24.8522 41.2994 24.4856C41.8292 24.1051 42.3474 23.6129 42.8893 23.0182V23.3979C42.8893 24.119 43.0714 24.6614 43.4201 25.0532C43.7695 25.4328 44.2347 25.6338 44.7775 25.6338C45.3065 25.6338 45.7735 25.4459 46.124 25.0793C46.4725 24.6997 46.6398 24.1441 46.6398 23.3979V6.20566C46.6398 5.48456 46.4859 4.92812 46.1616 4.55032ZM42.1517 20.4528C41.8036 21.1861 41.3375 21.7295 40.757 22.0831C40.1873 22.4377 39.5408 22.6134 38.8557 22.6134H38.8418C38.1457 22.6134 37.5104 22.4246 36.9289 22.058C36.334 21.6793 35.8813 21.1219 35.5444 20.3892C35.2089 19.6428 35.0406 18.7458 35.0406 17.6838C35.0406 16.6853 35.1973 15.8004 35.5063 15.0546C35.8298 14.2963 36.269 13.7138 36.8509 13.3095C37.4206 12.8917 38.0787 12.7029 38.8041 12.7029H38.8557C39.5408 12.7029 40.1743 12.9052 40.7427 13.2965C41.3375 13.6882 41.8036 14.2586 42.1517 15.0039C42.4873 15.7497 42.6704 16.6472 42.6704 17.6838C42.6704 18.7957 42.4873 19.7196 42.1517 20.4528Z" fill="white"/>
<path d="M19.3161 11.9319V12.413C20.0271 11.5025 20.7908 10.8451 21.6184 10.4148C22.4592 9.99837 23.4156 9.78198 24.5017 9.78198C25.5493 9.78198 26.4932 10.01 27.3214 10.4529C28.149 10.8949 28.7565 11.5276 29.1706 12.3497C29.4424 12.8289 29.6107 13.3486 29.6873 13.9041C29.7655 14.447 29.8036 15.1542 29.8036 16.0149V23.2593C29.8036 24.0427 29.6107 24.6354 29.2472 25.0281C28.8861 25.4328 28.406 25.6338 27.8242 25.6338C27.2307 25.6338 26.7525 25.4328 26.3765 25.015C26.001 24.6103 25.8216 24.0176 25.8216 23.2593V16.7724C25.8216 15.4841 25.6399 14.4977 25.2774 13.8152C24.9154 13.1332 24.1778 12.7912 23.0931 12.7912C22.3816 12.7912 21.7342 13.0071 21.1519 13.4104C20.5714 13.8282 20.1308 14.3958 19.8585 15.1295C19.6651 15.7116 19.5736 16.7853 19.5736 18.3923V23.2593C19.5736 24.0548 19.3821 24.6354 19.0066 25.0421C18.631 25.4328 18.1533 25.6338 17.5575 25.6338C16.977 25.6338 16.5095 25.4328 16.1349 25.015C15.7603 24.6103 15.5781 24.0176 15.5781 23.2593V11.9947C15.5781 11.2499 15.7464 10.6935 16.0833 10.3394C16.4068 9.97369 16.8585 9.78198 17.4418 9.78198C17.7908 9.78198 18.1003 9.85735 18.3842 10.0239C18.6705 10.1867 18.902 10.4278 19.0702 10.7562C19.238 11.0837 19.3161 11.4769 19.3161 11.9319Z" fill="white"/>
<path d="M8.62155 0.744989C11.3115 -0.204117 14.3765 -0.153331 16.6779 1.79319C17.106 2.18499 17.5962 2.67817 17.7905 3.25968C18.0238 3.99287 16.9767 3.18297 16.8332 3.08331C16.0835 2.60233 15.3329 2.19804 14.4936 1.91934C9.96793 0.55471 5.68571 3.02014 3.02365 6.85048C1.91197 8.54441 1.18652 10.3258 0.592093 12.285C0.527958 12.5008 0.475907 12.7795 0.358344 12.967C0.242158 13.1838 0.307222 12.3878 0.307222 12.3613C0.3969 11.5531 0.566068 10.7692 0.773345 9.98527C2.00121 5.81295 4.71626 2.33706 8.62155 0.744989Z" fill="white"/>
<path d="M12.1263 11.0973C10.5104 11.9063 8.53058 11.2755 7.71589 9.69501C6.88817 8.11409 7.53557 6.18053 9.15149 5.38406C10.7684 4.57502 12.7482 5.20636 13.5619 6.78729C14.3897 8.36764 13.7432 10.3012 12.1263 11.0973Z" fill="white"/>
</g>
<defs>
<clipPath id="clip0_1182_9888">
<rect width="95.1801" height="25.4909" fill="white" transform="translate(0.289062 0.143188)"/>
</clipPath>
</defs>
</svg>
