<svg width="143" height="27" viewBox="0 0 143 27" fill="none" xmlns="http://www.w3.org/2000/svg">
<g clip-path="url(#clip0_1182_10169)">
<path fill-rule="evenodd" clip-rule="evenodd" d="M99.7293 20.5166C99.2969 20.522 98.8676 20.4415 98.4665 20.2797C98.0654 20.1179 97.7004 19.8781 97.3927 19.5742C96.7747 18.9563 96.3576 18.0177 96.3576 16.7509C96.3576 15.4686 96.7747 14.534 97.3927 13.916C97.7018 13.6151 98.0674 13.3782 98.4684 13.2191C98.8694 13.0601 99.298 12.9819 99.7293 12.9891C100.61 12.9891 101.448 13.2981 102.066 13.916C102.684 14.534 103.097 15.4686 103.097 16.7509C103.097 18.0332 102.684 18.9678 102.066 19.5858C101.757 19.8868 101.391 20.1236 100.99 20.2827C100.589 20.4418 100.161 20.52 99.7293 20.5127V20.5166ZM99.7293 8.89123C95.2569 8.89123 91.8697 12.1819 91.8697 16.7509C91.8697 21.2891 95.2569 24.6106 99.7293 24.6106C104.202 24.6106 107.589 21.2891 107.589 16.7509C107.589 12.1819 104.202 8.89123 99.7293 8.89123ZM62.5436 20.6247C62.1111 20.6301 61.6819 20.5496 61.2808 20.3878C60.8797 20.2261 60.5147 19.9863 60.2069 19.6824C59.589 19.0644 59.1757 18.1297 59.1757 16.8629C59.1757 15.5806 59.5928 14.6421 60.2069 14.028C60.5162 13.7259 60.8823 13.4881 61.284 13.3283C61.6858 13.1686 62.1152 13.09 62.5474 13.0972C63.428 13.0972 64.2662 13.4101 64.8841 14.0242C65.5021 14.6421 65.9153 15.5806 65.9153 16.8591C65.9153 18.1413 65.4982 19.0798 64.8841 19.6939C64.5748 19.9961 64.2088 20.2339 63.807 20.3936C63.4053 20.5534 62.9759 20.632 62.5436 20.6247ZM62.5436 8.99937C58.075 8.99937 54.6878 12.2939 54.6878 16.8591C54.6878 21.4011 58.075 24.7187 62.5436 24.7187C67.0161 24.7187 70.4033 21.3972 70.4033 16.8591C70.4033 12.2939 67.0161 9.00324 62.5474 9.00324L62.5436 8.99937ZM119.809 24.5604H124.27V15.7004C124.27 14.9666 124.502 14.3293 124.903 13.8813C125.127 13.6389 125.4 13.4478 125.704 13.3211C126.008 13.1945 126.336 13.1352 126.665 13.1474C127.468 13.1474 128.016 13.4178 128.368 13.8272C128.727 14.2443 128.909 14.8507 128.909 15.5845V24.5604H133.342V15.7004C133.342 14.9859 133.574 14.3486 133.976 13.889C134.193 13.6468 134.46 13.455 134.759 13.3269C135.058 13.1988 135.381 13.1376 135.706 13.1474C136.529 13.1474 137.073 13.4178 137.421 13.8272C137.776 14.2443 137.954 14.8507 137.954 15.5845V24.5604H142.299V14.7889C142.299 12.7921 141.642 11.336 140.604 10.3859C139.572 9.43967 138.197 9.01869 136.819 9.01869C135.834 9.01869 134.934 9.18862 134.127 9.59416C133.435 9.94176 132.829 10.4516 132.296 11.1622C131.435 9.76024 129.863 9.01869 128.009 9.01869C126.649 9.01869 125.085 9.5594 124.096 10.6022V9.38174H119.809V24.5604ZM118.129 9.39332V13.9392L117.781 13.8697C117.368 13.7886 117.009 13.7577 116.677 13.7577C115.731 13.7577 114.889 13.9894 114.286 14.5533C113.688 15.1133 113.274 16.0441 113.274 17.5427V24.5604H108.825V9.38174H113.158V10.8494C114.228 9.5594 115.893 9.30449 116.94 9.30449C117.272 9.30449 117.577 9.33925 117.866 9.36629L118.129 9.39332ZM37.9102 17.2453H42.2591L42.3093 17.2955C42.3402 17.3264 42.3633 17.3727 42.3672 17.4229C42.386 17.8312 42.4859 18.2317 42.6609 18.601C42.836 18.9703 43.0827 19.3012 43.3868 19.5742C43.9591 20.0414 44.6799 20.288 45.4184 20.2694C45.8273 20.2831 46.2343 20.2076 46.6111 20.0482C46.988 19.8888 47.3256 19.6493 47.6005 19.3463C48.1351 18.698 48.414 17.8765 48.3846 17.0367V4.32219H53.0888V17.168C53.0888 21.2813 49.9411 24.7187 45.4493 24.7187C43.2092 24.7187 41.3244 23.9733 40.0035 22.6795C38.7135 21.4165 37.9449 19.6128 37.9102 17.4191V17.2453ZM91.2401 6.38077L91.4873 6.45415V3.00902L91.3714 2.95881C91.1218 2.85955 90.8612 2.79082 90.5951 2.75411C90.2668 2.70004 89.8806 2.66528 89.4866 2.66528C87.9533 2.66528 86.2308 3.1751 85.3386 4.09045C84.4464 5.00195 83.952 6.30352 83.952 7.86387V8.58998H81.7119V12.5449H83.952V24.5604H88.4516V12.5449H91.4873V8.58998H88.4516V7.91794C88.4516 7.21888 88.6949 6.81334 89.0077 6.58161C89.3417 6.35424 89.7395 6.23925 90.1432 6.25331C90.7226 6.25331 91.0624 6.33056 91.2401 6.38077ZM80.1014 21.011L80.3331 20.9376V24.3943L80.225 24.4484C80.0628 24.5256 79.8001 24.599 79.495 24.6531C79.186 24.7033 78.8268 24.738 78.4522 24.738C77.0154 24.738 75.401 24.2282 74.5629 23.309C73.7248 22.3937 73.2613 21.0882 73.2613 19.524V12.5449H71.1564V8.60929H73.2613V4.34536H77.4828V8.61315H80.3331V12.5526H77.4828V19.4699C77.4828 20.1729 77.7145 20.5784 78.008 20.814C78.3093 21.0573 78.7071 21.1423 79.074 21.1423C79.6186 21.1423 79.9353 21.065 80.1014 21.0148V21.011Z" fill="white"/>
<path d="M6.90037 25.1744C7.37928 25.6379 7.03941 26.4374 6.35965 26.4374H2.08028C1.68144 26.4425 1.29683 26.2893 1.01083 26.0112C0.724834 25.7332 0.560791 25.3531 0.554688 24.9542V20.8139C0.554688 20.1496 1.37735 19.8213 1.86013 20.2887L6.90037 25.1744Z" fill="white"/>
<path d="M13.5799 25.495C13.2798 25.197 13.0416 24.8426 12.879 24.4522C12.7165 24.0618 12.6328 23.643 12.6328 23.2201C12.6328 22.7972 12.7165 22.3785 12.879 21.9881C13.0416 21.5976 13.2798 21.2432 13.5799 20.9453L18.1451 16.411C18.7542 15.8067 19.5774 15.4677 20.4354 15.4677C21.2934 15.4677 22.1166 15.8067 22.7257 16.411C23.0258 16.7089 23.264 17.0633 23.4265 17.4538C23.5891 17.8442 23.6728 18.2629 23.6728 18.6858C23.6728 19.1087 23.5891 19.5275 23.4265 19.9179C23.264 20.3083 23.0258 20.6627 22.7257 20.9607L18.1605 25.495C17.5514 26.0992 16.7282 26.4383 15.8702 26.4383C15.0122 26.4383 14.189 26.0992 13.5799 25.495Z" fill="white"/>
<path d="M1.52128 14.0977C1.22117 13.7998 0.982982 13.4453 0.820441 13.0549C0.6579 12.6645 0.574219 12.2458 0.574219 11.8229C0.574219 11.3999 0.6579 10.9812 0.820441 10.5908C0.982982 10.2004 1.22117 9.84595 1.52128 9.54799L9.2033 1.91232C9.81241 1.30806 10.6356 0.968994 11.4936 0.968994C12.3516 0.968994 13.1748 1.30806 13.7839 1.91232C14.084 2.21028 14.3222 2.56469 14.4848 2.95512C14.6473 3.34554 14.731 3.76427 14.731 4.18718C14.731 4.61009 14.6473 5.02882 14.4848 5.41925C14.3222 5.80967 14.084 6.16408 13.7839 6.46205L6.09805 14.0977C5.48911 14.7008 4.66671 15.0391 3.80967 15.0391C2.95262 15.0391 2.13023 14.7008 1.52128 14.0977Z" fill="white"/>
<path d="M7.79863 19.5433C7.49851 19.2453 7.26033 18.8909 7.09778 18.5005C6.93524 18.1101 6.85156 17.6913 6.85156 17.2684C6.85156 16.8455 6.93524 16.4268 7.09778 16.0364C7.26033 15.6459 7.49851 15.2915 7.79863 14.9936L18.1765 4.68136C18.7856 4.0771 19.6088 3.73804 20.4668 3.73804C21.3248 3.73804 22.148 4.0771 22.7571 4.68136C23.0572 4.97933 23.2954 5.33373 23.458 5.72416C23.6205 6.11459 23.7042 6.53332 23.7042 6.95623C23.7042 7.37914 23.6205 7.79786 23.458 8.18829C23.2954 8.57872 23.0572 8.93312 22.7571 9.23109L12.3793 19.5433C11.7701 20.1476 10.9469 20.4866 10.0889 20.4866C9.23096 20.4866 8.40773 20.1476 7.79863 19.5433Z" fill="white"/>
</g>
<defs>
<clipPath id="clip0_1182_10169">
<rect width="141.745" height="25.4909" fill="white" transform="translate(0.554688 0.946533)"/>
</clipPath>
</defs>
</svg>
