<svg width="91" height="18" viewBox="0 0 91 18" fill="none" xmlns="http://www.w3.org/2000/svg">
<g clip-path="url(#clip0_1182_9901)">
<path d="M21.4898 0.553833L15.3864 17.2235H18.5968L20.0352 13.2874H26.0142L27.4583 17.2235H30.6665L24.5526 0.553833H21.4898ZM0.90625 0.555024V17.2235H3.28762V0.554994L0.90625 0.555024ZM11.1259 0.555024L5.15272 8.88983L11.1271 17.2235H14.6154L8.64339 8.8898L14.6154 0.554994L11.1259 0.555024ZM32.1909 0.555024V17.2235H35.4001V6.35494L44.1559 17.2235H46.3884V0.554994H43.1791V11.1549L34.6408 0.554994L32.1909 0.555024ZM48.307 0.555024L48.3058 3.40733H52.7034L52.7046 17.2235H55.9139L55.9127 3.40733H60.3115L60.3103 0.555024H48.307ZM64.6929 0.555024L58.5918 17.2235H61.8011L63.2394 13.2874H69.2184L70.6626 17.2235H73.8719L67.7568 0.554994L64.6929 0.555024ZM75.3928 0.555024V17.2235H78.6067V10.4351H81.2288L86.095 17.2235H89.595L84.3881 10.0119C85.04 9.76304 85.56 9.41028 85.9892 8.95841C86.8233 8.10112 87.2997 6.81587 87.2997 5.50612C87.2997 4.19636 86.8233 2.90995 85.9892 2.05266C85.0611 1.07629 83.7988 0.554994 81.6555 0.554994L75.3928 0.555024ZM78.6067 3.41082H81.5125C82.6074 3.41082 83.1565 3.67225 83.5369 4.07709C83.8941 4.45811 84.0846 4.95843 84.0846 5.50615C84.0846 6.05386 83.8941 6.52976 83.5369 6.91078C83.1565 7.31562 82.6074 7.57822 81.5125 7.57822H78.6067V3.41082ZM23.0281 5.09801L24.9688 10.4352H21.0793L23.0281 5.09801ZM66.2313 5.09801L68.1719 10.4352H64.2824L66.2313 5.09801Z" fill="white"/>
<rect x="3.28906" y="0.558105" width="1.78381" height="16.6659" fill="white" fill-opacity="0.5"/>
</g>
<defs>
<clipPath id="clip0_1182_9901">
<rect width="89.6889" height="17.6925" fill="white" transform="translate(0.40625 0.0423584)"/>
</clipPath>
</defs>
</svg>
