<svg width="119" height="22" viewBox="0 0 119 22" fill="none" xmlns="http://www.w3.org/2000/svg">
<path d="M21.9794 11.8756C20.2805 12.3905 16.4334 13.545 13.6651 13.545C10.2978 13.545 14.4691 9.25611 11.8777 9.25611C8.39136 9.25611 2.29354 12.8142 0.886987 13.5901C0.579266 13.7598 0.390625 14.0784 0.390625 14.4236V21.5133L3.59752 17.0327H21.0138C21.8438 17.0327 22.5159 16.3747 22.5159 15.5619V12.2624C22.5159 11.9899 22.2459 11.7948 21.9794 11.8756Z" fill="white"/>
<path d="M21.0138 1.42175H11.4532L3.32871 1.45407C3.21081 0.781005 2.61187 0.263794 1.89268 0.263794C1.0886 0.263794 0.430711 0.907999 0.430711 1.69536V6.45301C0.430711 6.45763 0.43189 6.46224 0.43189 6.46802L0.430711 9.33577C0.43189 9.68789 0.819783 9.90724 1.13222 9.73291C3.32399 8.508 10.1917 4.87944 14.659 4.87944C18.1347 4.87944 12.7714 9.27111 16.2624 9.27111C18.3398 9.27111 20.9596 8.55764 22.0278 8.08084C22.3249 7.94807 22.5147 7.65829 22.5147 7.33966V2.89256C22.5159 2.08096 21.8427 1.42175 21.0138 1.42175Z" fill="white"/>
<path d="M30.8609 17.2059V1.31669H34.4344V2.80829C35.4885 1.56606 36.895 0.943788 38.6517 0.943788C39.7836 0.943788 40.7209 1.13543 41.4637 1.51757C42.2053 1.8997 42.8596 2.53121 43.4255 3.41093C44.6942 1.76694 46.4226 0.944942 48.6096 0.944942C53.0026 0.944942 55.2003 3.30703 55.2003 8.02889V17.2071H51.3048V8.48722C51.3048 7.07297 51.0655 6.04432 50.5868 5.40358C50.1082 4.76284 49.3324 4.44304 48.2583 4.44304C47.0864 4.44304 46.2469 4.82056 45.7399 5.5756C45.2318 6.33063 44.9783 7.59711 44.9783 9.37617V17.2059H41.0829V8.48722C41.0829 7.07297 40.8341 6.04432 40.3354 5.40358C39.8378 4.76284 39.042 4.44304 37.9479 4.44304C36.7759 4.44304 35.9506 4.81132 35.4731 5.54673C34.9945 6.2833 34.7551 7.55901 34.7551 9.37617V17.2059H30.8609Z" fill="white"/>
<path d="M73.5951 10.9532H61.0293C61.2639 11.9091 61.7756 12.6699 62.5667 13.2333C63.3578 13.7979 64.3388 14.0796 65.5107 14.0796C66.3313 14.0796 67.0045 13.9653 67.5315 13.7355C68.0585 13.5058 68.5761 13.0948 69.0843 12.5025H73.331C72.8429 13.9941 71.8762 15.2133 70.4319 16.16C68.9864 17.1066 67.3759 17.58 65.5991 17.58C63.1385 17.58 61.0588 16.7868 59.361 15.1994C57.6621 13.612 56.8132 11.6528 56.8132 9.3196C56.8132 6.98754 57.6432 5.00759 59.3032 3.38322C60.9621 1.7577 62.9841 0.944942 65.3669 0.944942C67.7874 0.944942 69.7893 1.74847 71.3715 3.35436C72.9538 4.96025 73.7437 7.00716 73.7437 9.49162C73.7413 10.0077 73.693 10.4949 73.5951 10.9532ZM60.9126 7.59826H69.9049C69.3967 5.49478 67.9135 4.44304 65.4529 4.44304C63.0501 4.44304 61.5374 5.49478 60.9126 7.59826Z" fill="white"/>
<path d="M91.4618 10.9532H78.896C79.1306 11.9091 79.6423 12.6699 80.4334 13.2333C81.2245 13.7979 82.2054 14.0796 83.3774 14.0796C84.198 14.0796 84.8712 13.9653 85.3982 13.7355C85.9252 13.5058 86.4428 13.0948 86.9509 12.5025H91.1977C90.7096 13.9941 89.7428 15.2133 88.2985 16.16C86.8531 17.1066 85.2426 17.58 83.4658 17.58C81.0052 17.58 78.9254 16.7868 77.2277 15.1994C75.5287 13.612 74.6798 11.6528 74.6798 9.3196C74.6798 6.98754 75.5098 5.00759 77.1699 3.38322C78.8288 1.7577 80.8508 0.944942 83.2335 0.944942C85.654 0.944942 87.656 1.74847 89.2382 3.35436C90.8204 4.96025 91.6104 7.00716 91.6104 9.49162C91.608 10.0077 91.5597 10.4949 91.4618 10.9532ZM78.7792 7.59826H87.7715C87.2634 5.49478 85.7802 4.44304 83.3196 4.44304C80.9168 4.44304 79.4041 5.49478 78.7792 7.59826Z" fill="white"/>
<path d="M93.248 17.2059V1.31669H96.8216V2.86486C97.3297 2.13868 97.8367 1.63648 98.3449 1.3594C98.853 1.08233 99.5062 0.943788 100.307 0.943788H100.629V4.61506C98.3048 4.61506 97.1434 5.86768 97.1434 8.37177V17.2059H93.248Z" fill="white"/>
<path d="M109.65 0.943788C112.071 0.943788 114.118 1.75193 115.787 3.36706C117.457 4.98334 118.291 6.95752 118.291 9.28959C118.291 11.5651 117.452 13.515 115.773 15.1405C114.093 16.7661 112.063 17.5788 109.681 17.5788C107.298 17.5788 105.263 16.7718 103.574 15.1555C101.884 13.5404 101.04 11.5755 101.04 9.26188C101.04 6.96676 101.88 5.00759 103.558 3.38207C105.237 1.75655 107.268 0.943788 109.65 0.943788ZM109.65 4.44304C108.353 4.44304 107.243 4.91177 106.32 5.84806C105.396 6.7855 104.934 7.92267 104.934 9.26073C104.934 10.5988 105.395 11.7371 106.32 12.6734C107.243 13.6108 108.353 14.0784 109.65 14.0784C110.966 14.0784 112.086 13.6097 113.011 12.6734C113.934 11.7371 114.396 10.5988 114.396 9.26073C114.396 7.92267 113.934 6.78435 113.011 5.84806C112.087 4.91177 110.967 4.44304 109.65 4.44304Z" fill="white"/>
</svg>
