<svg width="51" height="27" viewBox="0 0 51 27" fill="none" xmlns="http://www.w3.org/2000/svg">
<g clip-path="url(#clip0_1182_9938)">
<path d="M30.7027 24.1193H-74.3271L-75.1719 26.4374H29.8513L30.7027 24.1193Z" fill="white"/>
<path d="M25.22 10.2123H20.8531L17.4375 19.4797H26.2061L27.3402 16.4H22.9368L25.22 10.2123Z" fill="white"/>
<path d="M12.3474 12.6401H17.4676L18.3688 10.2123H9.0083L5.59766 19.4797H15.0613L15.9809 16.9853H10.756L11.1385 15.9543H16.0142L16.8456 13.6728H11.9749L12.3474 12.6401Z" fill="white"/>
<path d="M31.3281 10.2274L27.9258 19.4865H32.4157L35.8246 10.2207L31.3281 10.2274Z" fill="white"/>
<path d="M47.0056 10.2274L44.6659 16.5814C44.6975 15.9411 44.8322 13.4118 44.9037 11.9535C44.9353 11.3531 44.8056 10.8958 44.5196 10.5915C44.3033 10.3703 44.012 10.238 43.7031 10.2207H38.4882L35.0742 19.4881H38.8657L41.2836 12.9246L40.9975 19.4881H47.3465L50.7588 10.2207L47.0056 10.2274Z" fill="white"/>
<path d="M2.20762 10.2274L0.970409 13.5648H-1.28783L-0.0589314 10.2274H-4.33596L-7.73828 19.4948H-3.47124L-2.3072 16.3569H-0.0439682L-1.20801 19.4948H3.06402L6.473 10.2207L2.20762 10.2274Z" fill="white"/>
</g>
<defs>
<clipPath id="clip0_1182_9938">
<rect width="130.637" height="25.4909" fill="white" transform="translate(-79.8789 0.946533)"/>
</clipPath>
</defs>
</svg>
