<svg width="109" height="26" viewBox="0 0 109 26" fill="none" xmlns="http://www.w3.org/2000/svg">
<g clip-path="url(#clip0_1182_9841)">
<path d="M33.1149 19.5922V14.3468C33.1149 12.2894 34.0418 11.1137 36.0767 11.1137C36.348 11.1137 36.6419 11.1363 36.9358 11.1815V8.51361C36.8228 8.491 36.5515 8.44578 36.2349 8.44578C34.788 8.44578 33.567 9.14667 33.047 10.345V8.58144H30.4922V19.5922H33.1149ZM39.4756 6.41095C40.4252 6.41095 41.1939 5.66484 41.1939 4.71525C41.1939 3.76566 40.4252 2.99695 39.4756 2.99695C38.5486 2.99695 37.7799 3.76566 37.7799 4.71525C37.7799 5.66484 38.5486 6.41095 39.4756 6.41095ZM40.7869 19.5922V8.58144H38.1869V19.5922H40.7869ZM45.859 19.5922V13.239C45.859 11.792 46.6503 10.6389 48.1425 10.6389C49.793 10.6389 50.4034 11.7241 50.4034 13.0807V19.5922H53.0261V12.6285C53.0261 10.2093 51.7374 8.26491 49.0469 8.26491C47.826 8.26491 46.5146 8.78492 45.7911 10.051V8.58144H43.2363V19.5922H45.859ZM59.726 24.2271C63.8635 24.2271 65.3783 21.4913 65.3783 18.5521V8.58144H62.8461V9.98322C62.3713 9.07884 61.3086 8.37796 59.5903 8.37796C56.5607 8.37796 54.5032 10.7971 54.5032 13.7364C54.5032 16.8338 56.6511 19.0948 59.5903 19.0948C61.1956 19.0948 62.3034 18.3486 62.7782 17.4895V18.6426C62.7782 20.8809 61.7382 21.9435 59.6582 21.9435C58.1433 21.9435 57.0807 20.9261 56.8998 19.5695L54.4806 20.2026C54.7746 22.4183 56.8094 24.2271 59.726 24.2271ZM60.0199 16.8564C58.3016 16.8564 57.1485 15.6581 57.1485 13.7364C57.1485 11.8598 58.3468 10.6389 60.0199 10.6389C61.6478 10.6389 62.8461 11.8598 62.8461 13.7364C62.8461 15.6355 61.693 16.8564 60.0199 16.8564ZM72.4852 19.9313C75.7861 19.9313 78.2053 17.4669 78.2053 14.0755C78.2053 10.7067 75.7861 8.2423 72.4852 8.2423C69.2068 8.2423 66.7876 10.7067 66.7876 14.0755C66.7876 17.4669 69.2068 19.9313 72.4852 19.9313ZM72.4852 17.5799C70.8799 17.5799 69.4103 16.359 69.4103 14.0755C69.4103 11.792 70.8799 10.6163 72.4852 10.6163C74.113 10.6163 75.56 11.792 75.56 14.0755C75.56 16.3816 74.113 17.5799 72.4852 17.5799ZM85.0861 19.5922L89.4044 8.58144H86.6461L83.7973 16.4495L80.8807 8.58144H77.9867L82.4634 19.5922H85.0861ZM94.8156 19.9313C97.4609 19.9313 99.2018 18.3713 99.7896 16.4495L97.5739 15.7486C97.2122 16.8338 96.3982 17.6704 94.8156 17.6704C93.1877 17.6704 91.8764 16.4721 91.8086 14.799H99.8575C99.8801 14.7538 99.9253 14.392 99.9253 13.9624C99.9253 10.4806 97.9357 8.2423 94.5443 8.2423C91.7633 8.2423 89.1859 10.5484 89.1859 14.0303C89.1859 17.7608 91.8312 19.9313 94.8156 19.9313ZM97.28 12.8772H91.8764C91.9668 11.7015 92.9164 10.4354 94.5669 10.4354C96.3756 10.4354 97.2348 11.5885 97.28 12.8772ZM104.116 19.5922V14.3468C104.116 12.2894 105.043 11.1137 107.077 11.1137C107.349 11.1137 107.643 11.1363 107.937 11.1815V8.51361C107.823 8.491 107.552 8.44578 107.236 8.44578C105.789 8.44578 104.568 9.14667 104.048 10.345V8.58144H101.493V19.5922H104.116Z" fill="white"/>
<path fill-rule="evenodd" clip-rule="evenodd" d="M12.5885 24.6979C6.64799 24.6979 1.98408 20.7182 0.930464 14.9494C0.917352 14.8776 0.898948 14.7693 0.87525 14.6245L6.76159 14.6246C6.78739 14.7113 6.80716 14.776 6.82091 14.8187C7.69363 17.5266 10.064 18.9269 12.5885 18.9269C15.1171 18.9269 17.4912 17.5512 18.3604 14.8231C18.3743 14.7795 18.3943 14.7133 18.4203 14.6245H24.3017C24.282 14.7455 24.2668 14.8361 24.2561 14.8962C23.2215 20.6938 18.5472 24.6979 12.5885 24.6979ZM12.5885 0.170898C18.802 0.170898 23.6188 4.48516 24.3686 10.7161C24.3794 10.8054 24.3936 10.9402 24.4113 11.1205H18.6114C18.5947 11.0181 18.5816 10.9418 18.5722 10.8914C17.9576 7.60205 15.3663 5.94196 12.5885 5.94196C9.84246 5.94196 7.27868 7.5643 6.62662 10.7792C6.6115 10.8538 6.59115 10.9675 6.56558 11.1205H0.765625C0.791251 10.8673 0.812328 10.6783 0.828857 10.5535C1.64226 4.41024 6.4292 0.170898 12.5885 0.170898Z" fill="white"/>
</g>
<defs>
<clipPath id="clip0_1182_9841">
<rect width="108.336" height="25.4909" fill="white" transform="translate(0.347656 0.143188)"/>
</clipPath>
</defs>
</svg>
