<svg width="133" height="27" viewBox="0 0 133 27" fill="none" xmlns="http://www.w3.org/2000/svg">
<g clip-path="url(#clip0_1182_10160)">
<path d="M33.6958 22.7228C32.3389 22.7136 31.0049 22.3717 29.8109 21.7271C28.5723 21.0878 27.4982 20.171 26.6723 19.0482C26.6185 18.9818 26.5786 18.9052 26.555 18.8231C26.5313 18.7409 26.5244 18.6549 26.5347 18.5701C26.5449 18.4852 26.5721 18.4033 26.6147 18.3291C26.6572 18.255 26.7142 18.1902 26.7822 18.1385L28.2838 16.8122C28.4055 16.7023 28.5644 16.6428 28.7283 16.6457H28.8374C28.9333 16.6604 29.0251 16.6951 29.1067 16.7475C29.1884 16.7999 29.2581 16.8689 29.3114 16.95C29.8188 17.7651 30.5136 18.4474 31.3379 18.9398C32.1266 19.4098 33.0283 19.6568 33.9468 19.6568C34.9457 19.6568 35.6961 19.4616 36.1669 19.0482C36.6289 18.6602 36.8766 18.0763 36.8336 17.4757C36.8579 17.1575 36.8049 16.8382 36.6793 16.5448C36.5536 16.2515 36.359 15.9929 36.1119 15.7909C35.528 15.3488 34.584 14.9346 33.28 14.5482C29.4142 13.6091 27.4808 11.7865 27.4808 9.10196C27.4808 7.44586 28.0353 6.14901 29.1465 5.23851C30.2585 4.3296 31.7012 3.91298 33.5349 3.91298C34.7721 3.87573 36.0006 4.13138 37.1203 4.65908C38.2399 5.18679 39.219 5.97161 39.9777 6.94958C40.087 7.08679 40.1393 7.2608 40.1237 7.43551C40.1081 7.61023 40.0259 7.77225 39.8941 7.88796L38.4347 9.10515C38.3144 9.21735 38.1547 9.27747 37.9902 9.27243H37.9066C37.8128 9.26346 37.7222 9.23406 37.641 9.18631C37.5598 9.13856 37.49 9.07361 37.4366 8.99602C36.9891 8.34874 36.4008 7.81116 35.716 7.42355C35.0352 7.08324 34.2824 6.91192 33.5214 6.92409C32.7659 6.89419 32.0194 7.09659 31.3825 7.50401C31.1539 7.66648 30.9686 7.88249 30.8428 8.13315C30.717 8.3838 30.6545 8.66146 30.6608 8.94185C30.6313 9.51539 30.8791 10.069 31.3276 10.4315C31.8565 10.8736 32.8005 11.232 34.1308 11.5626C35.9382 12.0621 37.3522 12.7217 38.3798 13.5804C39.4631 14.5188 40.02 15.8228 40.02 17.4725C40.0247 18.4468 39.7336 19.3996 39.1851 20.2048C38.6254 21.0241 37.8433 21.6664 36.9308 22.0561C35.918 22.5238 34.811 22.7519 33.6958 22.7228ZM48.0711 22.777C46.8988 22.8061 45.7426 22.4993 44.7389 21.8928C43.7651 21.3141 42.9754 20.4711 42.4615 19.4616C41.9053 18.388 41.6286 17.1916 41.6569 15.9829C41.6255 14.783 41.9025 13.5951 42.4615 12.5329C42.9773 11.5253 43.767 10.6837 44.7397 10.1049C45.743 9.52391 46.8822 9.21884 48.0416 9.22066C49.012 9.19902 49.9706 9.4366 50.8185 9.90891C51.6323 10.3878 52.3482 11.0162 52.9287 11.761C53.0349 11.9014 53.0828 12.0774 53.0623 12.2523C53.0418 12.4271 52.9545 12.5873 52.8188 12.6994L51.5984 13.66C51.4759 13.7479 51.33 13.797 51.1794 13.801H51.0694C50.98 13.7883 50.8941 13.7569 50.8176 13.7089C50.741 13.6608 50.6754 13.5973 50.6249 13.5222C50.3573 13.0846 49.9819 12.723 49.5347 12.4718C49.0874 12.2207 48.5832 12.0884 48.0703 12.0876C47.4651 12.089 46.8712 12.2515 46.3496 12.5584C45.8274 12.882 45.4118 13.3521 45.1548 13.9102C44.8663 14.5626 44.7174 15.268 44.7174 15.9813C44.7174 16.6946 44.8663 17.4001 45.1548 18.0524C45.4105 18.618 45.8255 19.0976 46.3496 19.4329C46.8596 19.7662 47.4618 19.9298 48.0703 19.9005C48.6257 19.933 49.1802 19.8227 49.681 19.5803C50.135 19.3334 50.5333 18.9956 50.8472 18.587C50.9554 18.4545 51.1091 18.367 51.2782 18.3415C51.4474 18.316 51.62 18.3544 51.7625 18.4491L53.0705 19.3588C53.143 19.4096 53.2048 19.4741 53.2523 19.5488C53.2998 19.6235 53.3321 19.7068 53.3474 19.794C53.3626 19.8811 53.3605 19.9705 53.3412 20.0568C53.3218 20.1432 53.2856 20.2249 53.2346 20.2972C53.2352 20.3009 53.2349 20.3046 53.2339 20.3082C53.2329 20.3118 53.2311 20.3151 53.2287 20.3179C53.2262 20.3207 53.2232 20.3229 53.2198 20.3245C53.2165 20.326 53.2128 20.3267 53.2091 20.3267C52.6053 21.0694 51.8468 21.6715 50.9866 22.0911C50.0821 22.5456 49.0833 22.7805 48.0711 22.777ZM60.5377 22.777C59.3905 22.8024 58.2593 22.5051 57.2729 21.9189C56.2865 21.3327 55.4845 20.4813 54.9584 19.4616C54.4228 18.3853 54.1441 17.1995 54.1441 15.9972C54.1441 14.795 54.4228 13.6092 54.9584 12.5329C55.4749 11.5173 56.2673 10.6678 57.2445 10.082C58.2218 9.49615 59.3444 9.19763 60.4835 9.22066C61.3981 9.2147 62.3014 9.42198 63.1218 9.82607C63.3975 9.96626 63.6571 10.1335 63.8985 10.3255V10.2682C63.9014 10.0925 63.9727 9.92495 64.0972 9.80104C64.2217 9.67713 64.3896 9.60666 64.5653 9.60461H66.2341C66.6005 9.61019 66.8953 9.90413 66.9009 10.2682V21.7008C66.8977 21.876 66.8263 22.0431 66.7017 22.1663C66.5771 22.2895 66.4093 22.3592 66.2341 22.3604H64.5692C64.3939 22.3594 64.2259 22.2898 64.1011 22.1666C63.9764 22.0433 63.9048 21.8762 63.9017 21.7008V21.6721C63.65 21.8386 63.4022 21.9924 63.1513 22.1421C62.348 22.571 61.4483 22.7895 60.5377 22.777ZM60.4835 12.0908C59.8861 12.0883 59.2997 12.2512 58.7892 12.5616C58.2812 12.9018 57.8696 13.3674 57.5943 13.9134C57.2953 14.5619 57.1443 15.2688 57.1522 15.9829C57.1322 16.7073 57.2834 17.4262 57.5935 18.0811C57.8486 18.648 58.264 19.1279 58.7884 19.4616C59.2879 19.7962 59.8821 19.9619 60.4835 19.9324C61.0976 19.9302 61.7006 19.7679 62.2328 19.4616C62.7571 19.1286 63.1716 18.6484 63.4245 18.0811C63.714 17.4296 63.8635 16.7245 63.8635 16.0116C63.8635 15.2986 63.714 14.5936 63.4245 13.942C63.1605 13.3889 62.7479 12.92 62.2328 12.5878C61.7185 12.238 61.105 12.0636 60.4835 12.0908ZM69.759 4.00857H71.4239C71.7903 4.01415 72.0859 4.30809 72.0914 4.67213V21.7072C72.0883 21.8827 72.017 22.0501 71.8925 22.1738C71.768 22.2976 71.6002 22.3679 71.4247 22.37H69.759C69.5834 22.3681 69.4154 22.2978 69.2907 22.1741C69.166 22.0503 69.0946 21.8828 69.0915 21.7072V4.67213C69.0884 4.584 69.1035 4.49618 69.136 4.4142C69.1685 4.33221 69.2176 4.25784 69.2803 4.19577C69.3429 4.13357 69.4176 4.08486 69.4999 4.05267C69.5821 4.02047 69.6708 4.00546 69.759 4.00857ZM98.9397 22.3891C98.7954 22.3944 98.6536 22.3513 98.5367 22.2665C98.4199 22.1818 98.3349 22.0603 98.2952 21.9215L96.1014 15.1019L93.7435 21.947C93.6994 22.0811 93.6124 22.197 93.496 22.2769C93.3795 22.3567 93.2401 22.3962 93.0991 22.3891H91.4334C91.2891 22.3947 91.1471 22.3517 91.0302 22.2669C90.9133 22.1821 90.8284 22.0604 90.789 21.9215L86.9845 10.4896C86.936 10.3396 86.9417 10.1774 87.0005 10.0311C87.0592 9.88481 87.1675 9.76378 87.3063 9.68905C87.4191 9.63557 87.5423 9.6073 87.6671 9.60621H89.43C89.5745 9.60087 89.7165 9.64434 89.8333 9.7296C89.9501 9.81486 90.0347 9.93695 90.0736 10.0762L92.3806 17.2009L94.7193 10.0674C94.7642 9.93145 94.8504 9.81288 94.966 9.72833C95.0815 9.64377 95.2206 9.59745 95.3638 9.59585H97.004C97.1487 9.59071 97.291 9.63443 97.4079 9.71997C97.5248 9.80551 97.6095 9.9279 97.6484 10.0674L99.9035 17.1141L102.181 10.0674C102.226 9.93138 102.312 9.81275 102.427 9.72818C102.543 9.64361 102.682 9.59733 102.825 9.59585H104.41C104.505 9.60382 104.598 9.62373 104.687 9.654C104.845 9.71658 104.973 9.8367 105.045 9.99005C105.118 10.1434 105.129 10.3185 105.077 10.4801L101.302 21.9191C101.256 22.0546 101.17 22.1725 101.054 22.2564C100.939 22.3403 100.8 22.3858 100.657 22.3867L98.9397 22.3899V22.3891ZM111.852 22.777C110.706 22.8002 109.575 22.502 108.589 21.9161C107.603 21.3301 106.8 20.4799 106.272 19.4616C105.738 18.3848 105.46 17.1992 105.46 15.9972C105.46 14.7953 105.738 13.6096 106.272 12.5329C106.791 11.513 107.588 10.6608 108.571 10.0747C109.554 9.48857 110.683 9.1925 111.827 9.22066C112.735 9.22339 113.63 9.44297 114.436 9.86111C114.711 10.0005 114.971 10.167 115.212 10.3582V10.3032C115.215 10.1247 115.285 9.95384 115.409 9.82536C115.533 9.69687 115.701 9.62049 115.879 9.61178H117.574C117.94 9.61656 118.235 9.9105 118.241 10.2745V21.7072C118.238 21.8823 118.166 22.0492 118.042 22.1724C117.917 22.2956 117.749 22.3653 117.574 22.3668H115.909C115.733 22.3656 115.565 22.2959 115.441 22.1727C115.316 22.0495 115.244 21.8825 115.241 21.7072V21.6785C115.001 21.8504 114.75 22.0077 114.491 22.1493C113.676 22.5723 112.77 22.7879 111.852 22.777ZM111.827 12.0908C111.229 12.0881 110.642 12.2511 110.132 12.5616C109.623 12.9011 109.211 13.3669 108.937 13.9134C108.624 14.5572 108.471 15.2673 108.492 15.9829C108.473 16.7078 108.625 17.4255 108.937 18.0811C109.191 18.6467 109.607 19.127 110.132 19.4616C110.631 19.7971 111.226 19.9622 111.827 19.9324C112.432 19.9341 113.026 19.7717 113.547 19.4624C114.072 19.1286 114.487 18.6484 114.742 18.0811C115.032 17.4295 115.181 16.7245 115.181 16.0116C115.181 15.2987 115.032 14.5937 114.742 13.942C114.485 13.3833 114.069 12.9124 113.547 12.5878C113.043 12.2384 112.439 12.0637 111.827 12.0908ZM84.4752 18.3599C84.3216 18.2523 84.1331 18.2066 83.9473 18.232C83.7615 18.2574 83.5921 18.352 83.4731 18.4969C83.1749 18.8817 82.8078 19.2077 82.3905 19.4584C81.7382 19.7911 81.0122 19.9531 80.2804 19.9292C79.8379 19.9518 79.3961 19.8742 78.9878 19.7022C78.5795 19.5302 78.2154 19.2683 77.9225 18.9359C77.4591 18.3893 77.1429 17.7334 77.004 17.0304H85.702C85.8693 17.0314 86.031 16.9694 86.1547 16.8566C86.2784 16.7438 86.3551 16.5886 86.3695 16.4218C86.3934 16.1653 86.4022 15.9072 86.395 15.6491C86.409 14.5219 86.1328 13.4101 85.5928 12.4206C85.068 11.4511 84.2889 10.643 83.3393 10.0831C82.3897 9.52328 81.3054 9.23281 80.2031 9.24296C79.0514 9.23785 77.9195 9.5433 76.9267 10.1272C75.9594 10.707 75.1772 11.5503 74.6716 12.5584C74.1318 13.6277 73.8557 14.8106 73.8662 16.0084C73.84 17.2169 74.1166 18.4128 74.6708 19.4871C75.1945 20.4899 75.9823 21.3306 76.949 21.9183C77.9632 22.4986 79.1119 22.8024 80.2804 22.7993C81.487 22.8285 82.6814 22.5532 83.7535 21.9987C84.5382 21.56 85.227 20.9685 85.7792 20.259C85.8393 20.1813 85.8835 20.0925 85.9091 19.9977C85.9348 19.9029 85.9413 19.8039 85.9285 19.7065C85.9157 19.6091 85.8838 19.5153 85.8345 19.4303C85.7852 19.3453 85.7196 19.271 85.6414 19.2115C85.6376 19.2116 85.6338 19.2109 85.6302 19.2095C85.6266 19.2081 85.6234 19.206 85.6206 19.2034C85.6179 19.2007 85.6157 19.1975 85.6142 19.194C85.6127 19.1904 85.6119 19.1866 85.6119 19.1828L84.4752 18.3599ZM78.1152 12.8913C78.3973 12.6158 78.7324 12.4006 79.1002 12.2585C79.468 12.1165 79.8609 12.0508 80.2549 12.0653C81.1694 12.0653 81.8911 12.2827 82.3905 12.7822C82.8061 13.1999 83.0952 13.7265 83.2246 14.3013H77.1872C77.3822 13.7653 77.7 13.2824 78.1152 12.8913ZM131.817 9.90971C131.75 9.82594 131.666 9.75783 131.57 9.71019C131.475 9.66256 131.37 9.63657 131.263 9.63409H129.681C129.394 9.63409 129.138 9.80934 129.036 10.0762L125.789 18.4045L122.706 10.0372C122.65 9.91352 122.559 9.80876 122.445 9.73554C122.33 9.66232 122.197 9.62376 122.061 9.62453H120.312C120.201 9.62347 120.092 9.6509 119.995 9.70419C119.898 9.75748 119.816 9.83483 119.758 9.92882C119.694 10.0216 119.655 10.1293 119.645 10.2415C119.635 10.3537 119.654 10.4666 119.7 10.5693L124.223 22.444C124.149 22.8834 123.911 23.2782 123.557 23.5489C123.141 23.8245 122.335 23.8532 121.891 23.8691C121.706 23.8777 121.531 23.9568 121.402 24.0902C121.273 24.2237 121.2 24.4014 121.198 24.5869V25.718C121.197 25.8128 121.215 25.9068 121.251 25.9945C121.287 26.0822 121.34 26.1618 121.408 26.2286C121.475 26.2954 121.555 26.3481 121.643 26.3835C121.731 26.419 121.825 26.4364 121.92 26.4349C122.613 26.4349 123.753 26.4899 124.642 26.0478C126.472 25.0863 126.723 23.8946 127.251 22.5428L131.887 10.5056C131.916 10.4065 131.924 10.3028 131.912 10.2005C131.9 10.0982 131.867 9.99931 131.817 9.90971ZM9.61096 19.8846C9.21644 19.8882 8.83664 19.735 8.55506 19.4586C8.27348 19.1823 8.11317 18.8054 8.10939 18.4109C8.10865 18.2156 8.14639 18.0221 8.22046 17.8413C8.29452 17.6606 8.40345 17.4963 8.54104 17.3576C8.67862 17.219 8.84217 17.1089 9.02233 17.0334C9.20248 16.958 9.39573 16.9188 9.59104 16.9181H11.4248C11.9585 16.9181 12.3911 16.4879 12.3911 15.9574V12.27C12.3911 11.4567 13.0546 10.7963 13.8727 10.7963C14.6916 10.7963 15.3544 11.4567 15.3544 12.27V18.0747C15.3287 18.5258 15.1454 18.9536 14.8365 19.2832C14.5275 19.6129 14.1125 19.8235 13.664 19.8782H9.61096V19.8846Z" fill="white"/>
<path d="M9.61039 19.8041H13.6571C14.0858 19.7522 14.4825 19.5505 14.7772 19.2347C15.0718 18.9189 15.2456 18.5093 15.2678 18.0779V12.2708C15.2678 11.5005 14.6401 10.8767 13.8658 10.8767C13.0923 10.8767 12.4646 11.5005 12.4646 12.2708V15.9574C12.4621 16.2337 12.3508 16.4979 12.1549 16.6928C11.959 16.8877 11.6942 16.9975 11.4179 16.9985H9.59128C9.22054 16.999 8.86502 17.146 8.60234 17.4077C8.33967 17.6693 8.19117 18.0242 8.18928 18.395V18.4141C8.1939 18.7867 8.3461 19.1423 8.6125 19.4029C8.8789 19.6634 9.23776 19.8077 9.61039 19.8041ZM7.18478 15.5472C6.99073 15.5477 6.79848 15.51 6.619 15.4362C6.43952 15.3624 6.27632 15.254 6.13874 15.1172C6.00116 14.9803 5.89187 14.8177 5.81713 14.6386C5.74239 14.4596 5.70365 14.2675 5.70312 14.0735V8.26712C5.72736 7.81574 5.90957 7.38726 6.21787 7.05668C6.52617 6.7261 6.94091 6.51448 7.3895 6.45886H11.4457C11.8386 6.45837 12.2161 6.61205 12.4968 6.88688C12.7776 7.16171 12.9394 7.53575 12.9473 7.92857C12.9513 8.32288 12.7975 8.70286 12.5195 8.98325C12.2407 9.26445 11.8616 9.42297 11.4649 9.42456H9.62872C9.095 9.42456 8.66245 9.85472 8.66245 10.386V14.0727C8.66245 14.8852 8.00128 15.5448 7.18398 15.5464L7.18478 15.5472Z" fill="white"/>
<path d="M11.448 6.5426H7.40131C6.9721 6.59383 6.57488 6.79536 6.28005 7.11147C5.98523 7.42759 5.81184 7.83787 5.79061 8.26961V14.0767C5.7787 14.3291 5.83573 14.58 5.95558 14.8024C6.07542 15.0249 6.25357 15.2105 6.4709 15.3393C6.68865 15.4688 6.93729 15.5371 7.19061 15.5371C7.44394 15.5371 7.69258 15.4688 7.91033 15.3393C8.35403 15.0749 8.61531 14.5905 8.59062 14.0767V10.3869C8.58982 10.1105 8.69975 9.84526 8.89651 9.65089C8.994 9.55417 9.10963 9.47765 9.23675 9.4257C9.36388 9.37376 9.50001 9.34742 9.63734 9.34819H11.4671C11.8372 9.34778 12.1921 9.20125 12.4546 8.94048C12.7172 8.67971 12.8662 8.3258 12.8691 7.95575V7.93584C12.8612 7.56398 12.7081 7.21 12.4425 6.94961C12.1769 6.68923 11.8199 6.54314 11.448 6.5426Z" fill="white"/>
<path d="M12.0862 3.92261C13.6368 3.92025 15.1249 4.53336 16.2237 5.62731C16.7658 6.16707 17.1955 6.80899 17.4878 7.5159C17.7801 8.22282 17.9294 8.9807 17.9268 9.74568V20.917C17.8587 21.2958 17.6724 21.6432 17.3946 21.9095C17.1169 22.1758 16.7619 22.3474 16.3807 22.3995H8.91184C7.36426 22.4011 5.87899 21.7899 4.78073 20.6996C4.23913 20.1614 3.80938 19.5213 3.51626 18.8162C3.22315 18.1112 3.07244 17.3551 3.07284 16.5916V5.72928C3.07239 5.25045 3.26088 4.79079 3.59736 4.45013C3.93385 4.10946 4.39115 3.91532 4.86995 3.90987L12.0862 3.92261ZM12.1117 0.946554H4.75683C2.18544 0.95213 0.103156 3.02565 0.101562 5.58191V16.6465C0.101763 17.7949 0.329294 18.9318 0.771034 19.9918C1.21277 21.0518 1.85998 22.0138 2.67534 22.8225C4.32802 24.4616 6.56268 25.3793 8.89033 25.3748H16.6674C18.8835 25.1971 20.6599 23.4765 20.8973 21.2779V9.65965C20.8959 8.5125 20.6674 7.37699 20.2251 6.31853C19.7828 5.26008 19.1355 4.2996 18.3204 3.49245C16.6688 1.85685 14.4369 0.941538 12.1125 0.946554H12.1117Z" fill="white"/>
</g>
<defs>
<clipPath id="clip0_1182_10160">
<rect width="132.234" height="25.4909" fill="white" transform="translate(0.101562 0.946533)"/>
</clipPath>
</defs>
</svg>
