<svg width="72" height="26" viewBox="0 0 72 26" fill="none" xmlns="http://www.w3.org/2000/svg">
<path fill-rule="evenodd" clip-rule="evenodd" d="M9.31828 0.143188C7.54638 0.143188 5.81427 0.668618 4.34098 1.65303C2.8677 2.63745 1.71941 4.03664 1.04133 5.67366C0.363257 7.31069 0.185841 9.11202 0.531522 10.8499C0.877203 12.5877 1.73046 14.1841 2.98338 15.437C4.23631 16.6899 5.83263 17.5432 7.57049 17.8888C7.87433 17.9493 8.1801 17.9937 8.48661 18.0223C8.50697 18.1562 8.53039 18.2897 8.55689 18.4229C8.90257 20.1608 9.75582 21.7571 11.0087 23.01C12.2617 24.263 13.858 25.1162 15.5959 25.4619C17.3337 25.8076 19.135 25.6302 20.7721 24.9521C22.4091 24.274 23.8083 23.1257 24.7927 21.6524C25.7771 20.1792 26.3025 18.447 26.3025 16.6751C26.3025 14.2991 25.3587 12.0204 23.6785 10.3402C22.1977 8.85936 20.2517 7.95045 18.184 7.75572C18.2867 8.43915 18.3097 9.13015 18.2541 9.81505C18.8481 9.89387 19.4324 10.0499 19.9919 10.2817C21.2564 10.8054 22.3372 11.6924 23.0976 12.8305C23.858 13.9685 24.2639 15.3064 24.2639 16.6751C24.2639 18.5105 23.5348 20.2707 22.237 21.5685C20.9392 22.8663 19.179 23.5954 17.3436 23.5954C15.9749 23.5954 14.637 23.1895 13.499 22.4291C12.3609 21.6687 11.4739 20.5879 10.9502 19.3234C10.7694 18.8871 10.6347 18.4357 10.5468 17.9763C11.2986 17.8723 12.038 17.6726 12.7467 17.379C14.3837 16.7009 15.7829 15.5527 16.7673 14.0794C16.8156 14.0071 16.8628 13.9343 16.9088 13.8608C16.6715 14.2385 16.4058 14.5989 16.1134 14.9388C15.2718 15.917 14.2291 16.7021 13.0565 17.2405C11.8838 17.779 10.6088 18.0581 9.3184 18.0588C9.04881 18.0588 8.75916 18.0588 8.48066 18.012C8.41383 17.5695 8.38032 17.1226 8.3804 16.6751C8.3804 16.4369 8.3899 16.1991 8.4088 15.9623C7.36262 15.8236 6.35776 15.4468 5.47359 14.8561C4.33556 14.0957 3.44858 13.0149 2.9248 11.7503C2.40102 10.4858 2.26398 9.09441 2.531 7.75201C2.79802 6.40961 3.45711 5.17654 4.42492 4.20873C5.39274 3.24091 6.62581 2.58182 7.96821 2.3148C9.31061 2.04778 10.702 2.18483 11.9665 2.70861C13.2311 3.23238 14.3119 4.11937 15.0723 5.2574C15.5888 6.03045 15.9417 6.89576 16.115 7.8003C16.5235 7.74394 16.9363 7.71574 17.3504 7.71625C17.6282 7.71625 17.9038 7.72935 18.1751 7.75337C17.8893 5.87654 17.0121 4.12607 15.6532 2.76719C13.9731 1.08707 11.6943 0.143188 9.31828 0.143188Z" fill="white"/>
<path d="M8.37891 16.6751C8.37883 17.1226 8.41234 17.5694 8.47917 18.0119C8.75767 18.0587 9.04731 18.0587 9.31691 18.0587C10.6073 18.058 11.8823 17.7789 13.055 17.2405C14.2276 16.702 15.2703 15.9169 16.1119 14.9387C16.9534 13.9606 17.5741 12.8123 17.9313 11.5724C18.2886 10.3325 18.3742 9.03008 18.1822 7.75407C17.9082 7.72956 17.6297 7.71619 17.349 7.71619C16.1715 7.71473 15.0053 7.94538 13.9171 8.39495C12.8289 8.84452 11.8399 9.50419 11.0068 10.3363C10.1738 11.1683 9.51285 12.1564 9.06193 13.2441C8.611 14.3318 8.37891 15.4977 8.37891 16.6751Z" fill="white" fill-opacity="0.5"/>
<path d="M34.0039 13.2172C33.2374 12.9254 32.7005 12.6224 32.3908 12.3127H32.4019C32.1052 12.0261 31.8698 11.6822 31.7101 11.3019C31.5504 10.9216 31.4697 10.5127 31.4728 10.1002C31.4663 9.50274 31.6386 8.91694 31.9675 8.41808C32.3079 7.90917 32.7484 7.47482 33.2619 7.14142C33.8116 6.78195 34.4126 6.50777 35.0444 6.32819C35.6959 6.1384 36.371 6.04164 37.0496 6.04077C39.086 6.04077 40.8343 6.85772 42.2944 8.4916C42.4677 8.71046 42.5585 8.9834 42.5506 9.2625C42.5558 9.4308 42.5266 9.59839 42.4646 9.75496C42.4027 9.91153 42.3094 10.0538 42.1904 10.1729C42.0715 10.2921 41.9294 10.3857 41.7729 10.4479C41.6165 10.5101 41.4489 10.5396 41.2806 10.5347C41.0385 10.5418 40.8017 10.4628 40.6122 10.3119C40.4258 10.1632 40.248 10.004 40.0797 9.8351C39.6862 9.43116 39.2142 9.11206 38.6926 8.89748C38.1711 8.6829 37.6112 8.57738 37.0474 8.58741C35.8724 8.58741 34.9344 8.94612 34.2334 9.66354C34.1667 9.73546 34.1151 9.82006 34.0818 9.91231C34.0485 10.0046 34.0342 10.1026 34.0395 10.2005C34.0331 10.3022 34.0606 10.4032 34.1179 10.4875C34.1752 10.5718 34.2589 10.6347 34.3559 10.6662L40.0797 12.5488C40.8773 12.8585 41.4165 13.1615 41.6928 13.4534C41.9894 13.7406 42.2246 14.0849 42.3843 14.4655C42.544 14.8462 42.6248 15.2553 42.6219 15.6681C42.63 16.2672 42.4576 16.8549 42.1273 17.3547C41.7857 17.8611 41.3472 18.295 40.8372 18.6314C40.29 18.9952 39.6883 19.2697 39.0548 19.4446C38.4074 19.6319 37.7369 19.7271 37.063 19.7275C35.0087 19.7275 33.2597 18.9165 31.8159 17.2945C31.6408 17.0665 31.5467 16.7866 31.5486 16.4991C31.5433 16.3308 31.5726 16.1632 31.6345 16.0067C31.6965 15.8501 31.7898 15.7079 31.9088 15.5887C32.0277 15.4695 32.1698 15.376 32.3263 15.3137C32.4827 15.2515 32.6503 15.222 32.8186 15.2269C33.0687 15.2204 33.3126 15.3051 33.5048 15.4653C33.692 15.6235 33.8635 15.7772 34.0172 15.9243C34.4129 16.3292 34.8872 16.6487 35.411 16.8633C35.9348 17.0779 36.497 17.1829 37.063 17.172C38.2275 17.172 39.1647 16.8051 39.8747 16.0713C39.9968 15.9334 40.0621 15.7542 40.0574 15.57C40.0625 15.4654 40.0329 15.362 39.9733 15.2758C39.9137 15.1896 39.8274 15.1254 39.7277 15.0932L34.0039 13.2172Z" fill="white"/>
<path d="M47.0179 18.4508C47.0193 18.6199 46.9872 18.7875 46.9232 18.944C46.8593 19.1005 46.7649 19.2427 46.6454 19.3624C46.526 19.482 46.3839 19.5767 46.2276 19.6409C46.0712 19.7051 45.9036 19.7376 45.7345 19.7364C45.5683 19.7379 45.4035 19.7055 45.2503 19.6412C45.097 19.5768 44.9586 19.4818 44.8433 19.3621C44.7218 19.2439 44.6259 19.1021 44.5615 18.9453C44.4971 18.7886 44.4656 18.6202 44.469 18.4508V1.45543C44.4657 1.28601 44.4973 1.11773 44.5617 0.960987C44.6261 0.804247 44.7219 0.662381 44.8433 0.544164C45.0818 0.305931 45.4052 0.172119 45.7423 0.172119C46.0794 0.172119 46.4028 0.305931 46.6413 0.544164C46.7623 0.663179 46.8584 0.804999 46.9242 0.961416C46.99 1.11783 47.0241 1.28574 47.0245 1.45543V7.32405C47.9124 6.66201 48.9579 6.24378 50.0574 6.11088C51.1569 5.97799 52.272 6.13507 53.292 6.56652C54.049 6.89164 54.7394 7.35393 55.3284 7.93007C55.9189 8.51122 56.3923 9.20025 56.7232 9.9598C57.0657 10.7445 57.2403 11.5923 57.2356 12.4485V18.4508C57.235 18.6207 57.2006 18.7887 57.1344 18.9452C57.0682 19.1016 56.9716 19.2433 56.8502 19.3621C56.7323 19.4806 56.5923 19.5746 56.438 19.6388C56.2837 19.7029 56.1182 19.736 55.9511 19.736C55.784 19.736 55.6186 19.7029 55.4643 19.6388C55.31 19.5746 55.1699 19.4806 55.0521 19.3621C54.9314 19.2435 54.836 19.1015 54.7721 18.9448C54.7081 18.7881 54.6768 18.62 54.6801 18.4508V12.4485C54.6824 11.9395 54.5784 11.4356 54.3748 10.9691C53.9773 10.0509 53.2441 9.31925 52.325 8.92377C51.8585 8.72015 51.3546 8.61619 50.8456 8.61853C50.3345 8.61714 49.8287 8.72104 49.3595 8.92377C48.906 9.12095 48.4934 9.40132 48.143 9.75037C47.7926 10.1017 47.5127 10.5169 47.3186 10.9736C47.1175 11.4407 47.0151 11.9444 47.0179 12.453V18.4508Z" fill="white"/>
<path d="M70.2872 18.4643V18.2192C69.6891 18.6977 69.0161 19.0741 68.2953 19.3332C67.5578 19.5977 66.7795 19.7304 65.996 19.7254C65.0948 19.7397 64.2002 19.5692 63.3675 19.2243C62.5348 18.8794 61.7816 18.3675 61.1545 17.7201C60.5072 17.0925 59.9953 16.3389 59.6505 15.5059C59.3056 14.6728 59.135 13.7779 59.1493 12.8764C59.1352 11.9753 59.3059 11.0808 59.6507 10.2481C59.9956 9.41543 60.5074 8.66222 61.1545 8.03491C61.7903 7.3991 62.5451 6.89474 63.3758 6.55063C64.2065 6.20653 65.0968 6.02942 65.996 6.02942C66.8952 6.02942 67.7855 6.20653 68.6162 6.55063C69.4469 6.89474 70.2017 7.3991 70.8375 8.03491C71.4846 8.66222 71.9964 9.41543 72.3413 10.2481C72.6861 11.0808 72.8568 11.9753 72.8427 12.8764V18.4465C72.829 18.7761 72.6883 19.0877 72.4502 19.3161C72.2121 19.5445 71.8949 19.672 71.565 19.672C71.235 19.672 70.9178 19.5445 70.6797 19.3161C70.4416 19.0877 70.301 18.7761 70.2872 18.4465V18.4643ZM65.996 8.59638C65.4145 8.59063 64.8382 8.70754 64.3049 8.93949C63.7967 9.15653 63.3352 9.46974 62.9458 9.8619C62.5591 10.2547 62.2507 10.7174 62.0368 11.2254C61.8148 11.7518 61.7004 12.3174 61.7004 12.8887C61.7004 13.46 61.8148 14.0255 62.0368 14.5519C62.4656 15.5806 63.2796 16.401 64.3049 16.8378C64.8364 17.0643 65.4082 17.181 65.986 17.181C66.5637 17.181 67.1355 17.0643 67.667 16.8378C68.1769 16.6184 68.6398 16.303 69.0306 15.9088C69.4181 15.5152 69.7286 15.0528 69.9463 14.5452C70.1683 14.0212 70.2827 13.4578 70.2827 12.8887C70.2827 12.3195 70.1683 11.7562 69.9463 11.2321C69.7297 10.724 69.419 10.2613 69.0306 9.86858C68.6398 9.47433 68.1769 9.15891 67.667 8.93949C67.1401 8.70966 66.5709 8.59278 65.996 8.59638Z" fill="white"/>
</svg>
