<svg width="118" height="22" viewBox="0 0 118 22" fill="none" xmlns="http://www.w3.org/2000/svg">
<path d="M36.7741 4.54763C36.6385 5.04958 36.5095 5.55284 36.3805 6.05596C36.276 6.46334 36.1716 6.87063 36.0637 7.27705L35.6741 8.7441L35.6735 8.74634C35.0544 11.0775 34.4348 13.4107 33.8122 15.7409C33.6764 16.2471 33.5391 16.7529 33.4018 17.2584L33.4016 17.2592C33.1386 18.2279 32.8757 19.1965 32.624 20.1665C32.5637 20.4033 32.4475 20.4334 32.2451 20.4334C29.6922 20.4248 27.1393 20.4248 24.5864 20.4248C23.2116 20.4219 21.8369 20.4229 20.4621 20.4238C19.7747 20.4243 19.0873 20.4248 18.4 20.4248V20.4119C16.8572 20.4119 15.3148 20.4114 13.7726 20.4109C10.6888 20.41 7.60551 20.409 4.52036 20.4119C4.33524 20.4119 4.24483 20.3731 4.19317 20.1708C3.68532 18.3075 3.17615 16.4449 2.66696 14.5822C1.87257 11.6763 1.07812 8.77009 0.288458 5.86068C0.167167 5.41999 0.10283 4.96791 0.0383945 4.51514L0.0258472 4.42709C-0.00859354 4.20322 0.00432172 3.95783 0.245407 3.82868C0.495102 3.68661 0.744797 3.71675 0.977272 3.88895C1.60509 4.34736 2.23291 4.80433 2.8599 5.26068L2.86056 5.26117C3.31676 5.59322 3.77262 5.92502 4.22761 6.25675L4.75271 6.63787C6.49269 7.90072 8.22912 9.161 9.96199 10.4284C10.1471 10.5618 10.2246 10.5059 10.3408 10.3509C11.2765 9.09378 12.216 7.84051 13.1555 6.58723C13.6252 5.96062 14.0949 5.33401 14.5641 4.70692C15.0571 4.04608 15.5479 3.38525 16.0386 2.72442C16.5294 2.06359 17.0202 1.40276 17.5131 0.741933C17.6423 0.56973 17.7757 0.401831 17.9264 0.242543C18.1804 -0.0200673 18.6195 -0.0243723 18.8692 0.251153C19.0228 0.419395 19.164 0.60628 19.3033 0.790691L19.3039 0.791405L19.3042 0.791816C19.3286 0.824094 19.3529 0.856295 19.3772 0.888306C20.578 2.45066 21.7789 4.01193 22.9797 5.5732C24.1811 7.13527 25.3825 8.69734 26.5839 10.2605C26.7389 10.4643 26.9197 10.4886 27.1264 10.3337C29.9247 8.2457 32.7187 6.15773 35.5127 4.06546C35.5787 4.01667 35.6485 3.97171 35.7184 3.92675C35.7533 3.90427 35.7882 3.88177 35.8227 3.85882C36.0724 3.69092 36.3221 3.71675 36.5545 3.88895C36.7784 4.05254 36.8473 4.2721 36.7741 4.54763Z" fill="white"/>
<path d="M95.5387 2.60607C95.5344 8.62458 95.5344 14.6431 95.5387 20.6616C95.5387 20.8898 95.5085 20.9716 95.2459 20.963C94.6481 20.9473 94.0525 20.9499 93.4559 20.9524L93.4551 20.9524C93.2314 20.9534 93.0076 20.9543 92.7834 20.9543L92.7709 20.9542C92.5662 20.9522 92.4639 20.9511 92.4143 20.8995C92.3647 20.8479 92.3678 20.7456 92.374 20.5411L92.3744 20.5281C92.4175 19.0902 92.4562 17.648 92.495 16.2058C92.5536 14.1061 92.6082 12.0065 92.6627 9.91074L92.6672 9.73959C92.6672 9.69555 92.6557 9.64922 92.6444 9.60394C92.6403 9.58733 92.6362 9.57063 92.6327 9.55447L92.6222 9.56231C92.614 9.56829 92.6058 9.57421 92.5975 9.58011C92.5569 9.60926 92.5163 9.63838 92.4864 9.67502L91.9377 10.3436L91.9353 10.3465L91.9344 10.3476C89.892 12.8363 87.847 15.3283 85.8092 17.8202C85.6757 17.9838 85.6068 18.0097 85.4561 17.8245C83.2628 15.1323 81.0651 12.4443 78.8674 9.75634L78.8607 9.7482C78.8263 9.70085 78.7919 9.65349 78.7488 9.61905C78.7288 9.59903 78.6958 9.58935 78.664 9.58L78.6491 9.57557C78.6449 9.57431 78.6409 9.57302 78.6369 9.5717C78.6328 9.58394 78.6274 9.59662 78.622 9.60945C78.6102 9.63723 78.5981 9.66574 78.5981 9.69224C78.6003 9.80306 78.6045 9.91493 78.6088 10.0273C78.6131 10.142 78.6175 10.2572 78.6197 10.3724C78.656 11.759 78.691 13.1455 78.7259 14.5324C78.7779 16.5946 78.8299 18.6575 78.8866 20.7219C78.8952 20.9027 78.8478 20.9673 78.6713 20.9673C77.75 20.9673 76.8287 20.9673 75.9031 20.9716C75.7125 20.9753 75.7166 20.8654 75.721 20.749L75.7213 20.7422L75.7218 20.725C75.722 20.7196 75.7221 20.7142 75.7222 20.7088C75.7223 20.7046 75.7223 20.7003 75.7223 20.696C75.7266 19.3893 75.7266 18.0868 75.7266 16.7844V10.9536H75.7309V1.6202C75.7309 1.47812 75.742 1.33826 75.7531 1.19902L75.7531 1.1985C75.7574 1.14392 75.7618 1.08919 75.7654 1.03471C75.7915 1.06445 75.8178 1.09419 75.8442 1.12401C75.9438 1.23655 76.0447 1.35048 76.1399 1.46952C77.0999 2.67567 78.0605 3.88182 79.0212 5.08816C80.7488 7.25755 82.477 9.42758 84.2034 11.5994C84.4601 11.9176 84.7118 12.2392 84.9638 12.561C85.1173 12.7572 85.2711 12.9536 85.426 13.1492C85.6326 13.4075 85.6369 13.4032 85.8307 13.1578L92.5724 4.67251L95.2976 1.22413C95.2998 1.22039 95.3019 1.21665 95.304 1.21296L95.3063 1.2087C95.3151 1.19281 95.3233 1.17793 95.3363 1.16817C95.3966 1.12942 95.4569 1.09498 95.5171 1.06054C95.5195 1.07157 95.522 1.08261 95.5245 1.09367L95.5249 1.0951C95.536 1.14399 95.5473 1.19342 95.5473 1.24566C95.5455 1.4259 95.5425 1.60684 95.5394 1.78791L95.5394 1.78885C95.5347 2.06156 95.53 2.33459 95.53 2.60607H95.5387Z" fill="white"/>
<path fill-rule="evenodd" clip-rule="evenodd" d="M117.084 10.7621C117.083 10.8854 117.081 11.0094 117.081 11.1345C117.185 12.7317 116.956 14.2901 116.25 15.7538C114.851 18.6598 112.587 20.4937 109.401 21.118C107.468 21.5011 105.526 21.415 103.705 20.6272C100.558 19.2711 98.6382 16.8602 97.9537 13.5281C97.4414 11.0311 97.6438 8.56863 98.8148 6.26972C100.812 2.34348 104.683 0.668801 108.381 1.00029C110.873 1.21985 112.927 2.26168 114.593 4.04399C116.156 5.71436 117.008 7.72484 117.081 10.0324C117.09 10.2724 117.087 10.5144 117.084 10.7596V10.7621ZM113.056 15.1339C113.564 14.2341 113.848 13.2526 113.973 12.2366C114.21 10.2734 113.895 8.41365 112.755 6.75619C111.734 5.27955 110.365 4.27646 108.549 3.99663C106.159 3.6264 104.084 4.3109 102.582 6.20084C100.528 8.78389 100.33 11.6984 101.673 14.6431C102.771 17.0367 104.739 18.3067 106.728 18.3541C109.81 18.367 111.907 17.1745 113.056 15.1339Z" fill="white"/>
<path d="M55.1009 16.0766C54.8297 18.6898 53.2497 20.2009 50.8389 20.9328C49.0393 21.4752 47.214 21.458 45.4188 20.9328C43.9249 20.4893 42.7324 19.5982 41.8111 18.3325C41.1094 17.3681 40.8166 16.2833 40.7219 15.1295C40.7158 15.0483 40.7124 14.9671 40.709 14.8861C40.7028 14.7395 40.6967 14.5934 40.6745 14.4493C40.6358 14.2039 40.7391 14.1652 40.9544 14.1695C41.2708 14.1787 41.5873 14.1769 41.9053 14.1752C42.0329 14.1745 42.1608 14.1738 42.289 14.1738V14.1479C42.4393 14.1479 42.5901 14.1484 42.7413 14.1489C43.0446 14.1499 43.3491 14.1508 43.6537 14.1479C43.8431 14.1436 43.9292 14.191 43.9378 14.4149C44.0067 16.421 45.1992 17.8632 47.1709 18.2937C48.2128 18.5176 49.2589 18.4832 50.2361 17.9967C51.7386 17.2433 52.0443 15.3663 50.8819 14.1609C50.1888 13.4376 49.3019 13.0243 48.4151 12.6153C47.9898 12.4174 47.5623 12.225 47.1352 12.0328C46.3733 11.6899 45.6125 11.3475 44.8677 10.9751C43.9765 10.5274 43.1973 9.92034 42.5946 9.10668C41.9101 8.17678 41.6819 7.12204 41.7207 5.99411C41.7853 4.13861 42.7625 2.85139 44.2908 1.92149C45.7416 1.03895 47.3431 0.901189 48.9963 1.00021C50.5633 1.09492 51.941 1.62444 53.1292 2.64044C53.8309 3.24316 54.3733 3.9578 54.7608 4.79729C54.8469 4.9738 54.7995 5.02116 54.6359 5.08143C53.7878 5.40431 52.9484 5.7358 52.1046 6.0716C51.9539 6.13187 51.8764 6.11465 51.7903 5.95966C51.3727 5.25794 50.869 4.62939 50.1027 4.27638C48.8887 3.72532 47.6488 3.69519 46.4391 4.26346C45.1518 4.87478 44.8246 6.56668 45.7589 7.64295C46.2841 8.24997 46.9815 8.6116 47.7004 8.93448C48.0481 9.0911 48.3964 9.24674 48.7447 9.40239C49.6602 9.81145 50.576 10.2207 51.4803 10.6479C52.337 11.0569 53.1292 11.5735 53.7921 12.258C54.8297 13.3257 55.2516 14.6129 55.1009 16.0809V16.0766Z" fill="white"/>
<path d="M67.7622 20.9801C70.0051 20.3344 71.6282 18.9696 72.4806 16.7741C72.8508 15.814 72.9498 14.8066 72.9283 13.7691C72.9042 12.5215 72.9096 11.274 72.915 10.0264C72.9174 9.49165 72.9197 8.95692 72.9197 8.42218V2.01622C72.9197 1.6632 72.9197 1.65889 72.5753 1.65889C72.3596 1.65766 72.1443 1.65572 71.9291 1.65379C71.3927 1.64896 70.8571 1.64414 70.3194 1.65028C69.9553 1.65462 69.7941 1.6164 69.7233 1.67954C69.6534 1.74182 69.6715 1.90271 69.6693 2.30035C69.6642 4.02356 69.6637 5.74833 69.6631 7.47278C69.6628 8.62188 69.6624 9.77085 69.6607 10.9191C69.6607 11.2536 69.6664 11.5891 69.6721 11.9248C69.6868 12.7947 69.7015 13.6664 69.6177 14.5268C69.4196 16.5932 68.4381 17.6566 66.6515 18.1388C65.6785 18.3971 64.6883 18.4143 63.7068 18.2335C62.3033 17.9838 61.2572 17.2347 60.7061 15.8915C60.4478 15.2544 60.3402 14.5828 60.3402 13.8983C60.3373 11.272 60.3383 8.64382 60.3392 6.01628C60.3397 4.70275 60.3402 3.38938 60.3402 2.07649C60.3402 2.05336 60.3392 2.03024 60.3383 2.00728C60.3364 1.96185 60.3345 1.91705 60.3402 1.87415C60.3574 1.71055 60.2929 1.65459 60.1293 1.65459C59.1951 1.65889 58.2608 1.65889 57.3266 1.65459C57.1243 1.65459 57.0683 1.72347 57.0683 1.93442C57.0712 4.49435 57.0703 7.05237 57.0693 9.61103C57.0688 10.8906 57.0683 12.1703 57.0683 13.4505C57.0683 13.9155 57.0813 14.3804 57.12 14.8454C57.3826 17.8805 58.9712 19.8091 61.7049 20.851C62.5444 21.1695 63.427 21.2384 64.3138 21.303C65.4848 21.3848 66.6429 21.303 67.7622 20.9801Z" fill="white"/>
</svg>
