<svg width="72" height="25" viewBox="0 0 72 25" fill="none" xmlns="http://www.w3.org/2000/svg">
<path d="M4.24719 15.4526V0.892944H0.757812V15.6357C0.757812 21.1757 4.60973 24.8386 9.59455 24.8386C12.0417 24.8386 14.1715 23.8771 15.7576 22.2288V24.4265H19.2017V0.892944H15.7123V15.4526C15.7123 19.207 13.2199 21.7252 10.0024 21.7252C6.73961 21.6794 4.24719 19.2528 4.24719 15.4526ZM22.6457 24.4723H25.9539V22.3204C27.4946 23.9228 29.6698 24.8843 32.0263 24.8843C37.0111 24.8843 40.9537 20.901 40.9537 15.9105C40.9537 10.9199 37.0111 6.93658 32.0263 6.93658C29.6698 6.93658 27.5399 7.89806 25.9992 9.50054V0.892944H22.6457V24.4723ZM25.9539 15.9105C25.9539 12.5681 28.5822 9.95839 31.7997 9.95839C35.0172 9.95839 37.6455 12.5681 37.6455 15.9105C37.6455 19.207 35.0172 21.8625 31.7997 21.8625C28.5369 21.8625 25.9539 19.207 25.9539 15.9105ZM42.9476 15.8647C42.9476 20.9926 46.8901 24.8386 51.9656 24.8386C55.0471 24.8386 57.5849 23.465 59.3069 21.1757L56.8598 19.3443C55.5909 21.0384 53.9142 21.8625 51.9656 21.8625C49.1106 21.8625 46.7995 19.7564 46.3463 16.9635H60.1679V15.8647C60.1679 10.7367 56.5879 6.93658 51.6937 6.93658C46.7089 6.93658 42.9476 11.0115 42.9476 15.8647ZM51.6031 9.91261C54.0955 9.91261 56.18 11.6524 56.7692 14.308H46.3917C47.0261 11.6524 49.1106 9.91261 51.6031 9.91261ZM71.3611 10.3247V7.1655H70.1829C68.3249 7.1655 66.9654 8.03542 66.1044 9.40897V7.30286H62.8416V24.4723H66.195V14.6743C66.195 12.0187 67.7811 10.2789 70.0016 10.2789H71.3611V10.3247Z" fill="white"/>
</svg>
