<svg width="145" height="41" viewBox="0 0 145 41" fill="none" xmlns="http://www.w3.org/2000/svg">
<path fill-rule="evenodd" clip-rule="evenodd" d="M64.582 16.065V27.3533C64.582 27.3533 68.6918 28.3736 75.1283 28.3736C81.5212 28.3736 85.6745 27.358 85.6745 27.358V23.5258C85.6745 23.5258 81.2104 24.401 75.0855 24.401C72.1142 24.401 70.1433 24.0522 69.0858 23.9428C69.081 23.0239 69.0881 20.4118 69.0858 19.4795C70.271 19.3621 72.2632 19.0196 75.1291 19.0196C81.0915 19.041 85.6753 19.929 85.6753 19.929V16.0658C85.6753 16.0658 81.5838 15.0479 75.1291 15.0479C68.626 15.0471 64.582 16.065 64.582 16.065Z" fill="white"/>
<path fill-rule="evenodd" clip-rule="evenodd" d="M90.6836 28.1198H95.3031V15.2571H90.6836V28.1198Z" fill="white"/>
<path fill-rule="evenodd" clip-rule="evenodd" d="M28.8867 28.1198H33.5054V15.2571H28.8867V28.1198Z" fill="white"/>
<path fill-rule="evenodd" clip-rule="evenodd" d="M55.0021 23.2538C55.0021 23.2538 51.6653 20.7835 46.7565 18.2403C42.4596 16.015 38.6797 15.2785 38.6797 15.2785V28.1198H43.1501V21.2568C44.2235 21.6928 45.3794 22.1629 46.7501 22.8748C51.659 25.4188 54.9989 28.1198 54.9989 28.1198H59.4852V15.2571H55.0029L55.0021 23.2538Z" fill="white"/>
<path fill-rule="evenodd" clip-rule="evenodd" d="M14.344 22.7456C13.3126 21.7816 6.30844 15.0375 6.30844 15.0375L2.87891 18.1626L14.344 28.4631L25.8035 18.1697L22.3835 15.0375C22.3835 15.0375 15.3801 21.7816 14.344 22.7456Z" fill="white"/>
<path fill-rule="evenodd" clip-rule="evenodd" d="M127.08 13.2625C128.072 13.2625 128.875 12.461 128.875 11.4708V4.49998C128.875 3.50822 128.072 2.70593 127.08 2.70593H120.113C119.123 2.70593 118.323 3.50822 118.323 4.49998C118.323 4.49998 118.323 9.83375 118.323 9.84247C118.323 11.5025 117.057 12.9287 116.515 13.494C115.966 14.064 114.497 15.2611 112.149 15.265H105.723V25.8604H116.315V19.4334C116.323 17.0844 117.512 15.6162 118.083 15.07C118.651 14.5246 120.075 13.2625 121.733 13.2625C121.744 13.2625 127.08 13.2625 127.08 13.2625Z" fill="white"/>
<path fill-rule="evenodd" clip-rule="evenodd" d="M140.432 16.5635C139.333 15.4552 137.799 14.783 136.097 14.783C132.613 14.783 129.834 17.6187 129.834 21.0046C129.834 21.6254 130.103 22.7939 130.103 23.2942C130.103 25.9618 127.944 28.1198 125.28 28.1198H120.114C119.124 28.1198 118.324 28.9236 118.324 29.9146V36.8847C118.324 37.8756 119.124 38.6787 120.114 38.6787H127.081C128.073 38.6787 128.876 37.8756 128.876 36.8847C128.876 34.2606 128.876 31.7158 128.876 31.7158C128.876 29.0521 131.037 26.891 133.702 26.891C134.199 26.891 135.37 27.1597 135.992 27.1597C139.376 27.1597 142.209 24.3834 142.209 20.9008C142.208 19.1963 141.523 17.6774 140.432 16.5635Z" fill="white"/>
</svg>
