<svg width="91" height="18" viewBox="0 0 91 18" fill="none" xmlns="http://www.w3.org/2000/svg">
<g clip-path="url(#clip0_1182_9899)">
<path d="M0.46875 0.17594H4.17091L7.33041 8.26762L10.502 0.17594L13.6615 8.26762L16.8089 0.17594H20.511L13.6615 17.6496L10.4538 9.14797L7.33041 17.6496L0.46875 0.17594ZM21.9943 0.139762H32.3049V3.56456H25.4312V7.00142H30.5804V10.4262H25.4312V13.8751H32.3049V17.2879H21.9943V0.139762ZM41.8075 0.0432898L41.8195 0.0674076C44.118 0.0766881 46.3213 0.98574 47.9577 2.59983L45.5096 5.04784C44.4605 4.03487 43.2425 3.51633 41.8436 3.51633C40.4591 3.49866 39.1285 4.05271 38.1657 5.04784C37.1527 6.07286 36.6462 7.30289 36.6462 8.72586C36.6239 10.109 37.1737 11.4398 38.1657 12.4039C39.3548 13.6083 41.0588 14.153 42.7261 13.8619C44.3934 13.5709 45.8119 12.4808 46.5226 10.9447H41.6507V7.67669H50.4177C50.7422 10.3237 49.8253 12.9721 47.9336 14.8519C46.2332 16.5402 44.1831 17.3964 41.8075 17.3964C39.5049 17.4321 37.2908 16.5107 35.6935 14.8519C33.9932 13.1757 33.149 11.1377 33.149 8.72586C33.1157 6.42027 34.0365 4.20336 35.6935 2.59983C37.3697 0.887428 39.4078 0.0432898 41.8075 0.0432898ZM51.9372 0.17594H55.374V13.851H62.2357V17.2638H51.9372V0.17594ZM70.7012 0.0432898C73.0094 0.00877729 75.2286 0.934748 76.8276 2.59983C78.5275 4.30017 79.3841 6.33816 79.3841 8.72586C79.418 11.0341 78.4921 13.2529 76.8276 14.8519C75.1269 16.5402 73.0889 17.3844 70.7012 17.3844C68.3993 17.4108 66.1865 16.4961 64.5752 14.8519C62.8749 13.1637 62.0307 11.1136 62.0307 8.72586C61.9974 6.42027 62.9182 4.20336 64.5752 2.59983C66.2755 0.887428 68.3135 0.0432898 70.7012 0.0432898ZM70.7012 3.50427C69.3146 3.47634 67.9801 4.03203 67.0232 5.03578C65.9982 6.0608 65.4916 7.29083 65.4916 8.71384C65.4711 10.0989 66.0256 11.4307 67.0232 12.3918C68.0361 13.3928 69.2541 13.8992 70.7012 13.8992C72.0773 13.9157 73.4007 13.3715 74.3668 12.3918C75.3923 11.3789 75.8987 10.1489 75.8987 8.71384C75.9193 7.32867 75.365 5.99698 74.3668 5.03578C73.3542 4.01074 72.1242 3.50427 70.7012 3.50427ZM78.5518 0.17594H90.4059V3.57662H86.209V17.2638H82.7605V3.57662H78.5518V0.17594Z" fill="white"/>
</g>
<defs>
<clipPath id="clip0_1182_9899">
<rect width="89.9371" height="17.6925" fill="white" transform="translate(0.46875 0.0423584)"/>
</clipPath>
</defs>
</svg>
