<svg width="121" height="27" viewBox="0 0 121 27" fill="none" xmlns="http://www.w3.org/2000/svg">
<g clip-path="url(#clip0_1182_9958)">
<path d="M76.8596 17.699C76.9617 17.3586 77.059 17.0522 77.1514 16.7459C77.3459 16.104 77.5404 15.4621 77.7398 14.825C78.0705 13.7358 78.406 12.6465 78.7367 11.5572C78.8923 11.0515 79.043 10.5458 79.1986 10.0352C79.2959 9.71423 79.5779 9.49054 79.9037 9.50999C80.1372 9.52458 80.3706 9.50999 80.604 9.50999C81.1097 9.50999 81.2751 9.67533 81.4112 10.113C81.5814 10.6722 81.7516 11.2266 81.9169 11.7858C82.0969 12.3839 82.2768 12.982 82.4616 13.5753C82.7339 14.4555 83.0159 15.3308 83.2931 16.2061C83.4439 16.6875 83.5898 17.1689 83.7697 17.6503C83.8037 17.5045 83.8378 17.3634 83.8669 17.2175C84.0225 16.4492 84.1733 15.676 84.324 14.9029C84.4116 14.4409 84.4942 13.9789 84.5818 13.517C84.6936 12.9383 84.8103 12.3645 84.927 11.7907C85.0097 11.3822 85.0875 10.9737 85.1653 10.5652C85.282 9.97196 85.3987 9.3787 85.5154 8.78544C85.6273 8.19704 85.7391 7.60864 85.851 7.02024C85.885 6.84031 85.9142 6.65552 85.9531 6.4756C85.9968 6.28109 86.2011 6.1352 86.4685 6.13034C86.8576 6.12062 87.2514 6.12062 87.6405 6.13034C87.942 6.1352 88.0976 6.36376 88.0392 6.67498C87.9566 7.11749 87.8885 7.56001 87.8058 8.00252C87.694 8.57634 87.5724 9.15015 87.4557 9.72396C87.3438 10.2929 87.232 10.8619 87.1202 11.4308C87.0083 11.9949 86.8965 12.559 86.7846 13.1231C86.6679 13.692 86.5512 14.261 86.4345 14.8299C86.3081 15.4621 86.1768 16.0942 86.0503 16.7264C85.9142 17.4072 85.7877 18.0929 85.6467 18.7736C85.5252 19.3864 85.389 19.9942 85.2674 20.6069C85.2188 20.8501 85.1799 21.0932 84.9708 21.2537C84.8978 21.3072 84.8055 21.3704 84.7228 21.3753C84.3289 21.3947 83.9302 21.419 83.5411 21.3898C83.2445 21.3704 83.0743 21.1321 82.9868 20.8695C82.8117 20.3589 82.6561 19.8435 82.4908 19.328C82.2573 18.5986 82.0191 17.8692 81.7808 17.1397C81.596 16.5659 81.4015 15.997 81.2118 15.428C80.9201 14.5381 80.6234 13.6434 80.3317 12.7535C80.3171 12.7049 80.2976 12.6611 80.2685 12.5687C80.142 12.9529 80.0253 13.2933 79.9183 13.6385C79.7773 14.081 79.6509 14.5284 79.505 14.9709C78.9944 16.5562 78.4789 18.1415 77.9586 19.7219C77.8176 20.145 77.6863 20.5778 77.5161 20.9911C77.414 21.2342 77.2243 21.4044 76.9228 21.3996C76.5776 21.3996 76.2275 21.4287 75.8822 21.4044C75.6245 21.385 75.4154 21.1807 75.3376 20.8014C75.2014 20.145 75.0798 19.4836 74.9437 18.8223C74.7832 18.0345 74.613 17.2516 74.4574 16.4638C74.3456 15.9046 74.2532 15.3454 74.1365 14.7861C74.0003 14.1054 73.8447 13.4343 73.7085 12.7535C73.5724 12.0727 73.4508 11.3919 73.3146 10.716C73.1931 10.1081 73.0618 9.50513 72.9402 8.89728C72.8575 8.4888 72.7895 8.08033 72.7068 7.67185C72.6484 7.38008 72.5901 7.08345 72.522 6.79655C72.4296 6.40752 72.6338 6.1352 73.0277 6.1352C73.3633 6.1352 73.7037 6.1352 74.0392 6.1352C74.4088 6.1352 74.5498 6.24219 74.6227 6.58745C74.754 7.21961 74.8853 7.85664 75.0118 8.49367C75.1965 9.43219 75.3813 10.3658 75.5661 11.3044C75.7509 12.238 75.9357 13.1668 76.1205 14.1005C76.3053 15.039 76.4901 15.9727 76.6748 16.9112C76.7235 17.1495 76.7624 17.3877 76.811 17.626C76.811 17.6455 76.8256 17.6601 76.8499 17.7087L76.8596 17.699Z" fill="white"/>
<path d="M48.036 17.6551C48.109 17.4315 48.1868 17.2126 48.2549 16.9841C48.3667 16.6194 48.4688 16.2498 48.5758 15.8851C48.746 15.321 48.9162 14.7618 49.0864 14.2025C49.3101 13.4731 49.5289 12.7486 49.7526 12.0191C49.9568 11.3578 50.1659 10.6965 50.3702 10.0351C50.4723 9.70931 50.7543 9.49048 51.0753 9.50993C51.3282 9.52452 51.5859 9.50993 51.8388 9.50993C52.2424 9.5148 52.4661 9.68986 52.5584 10.0837C52.6557 10.4825 52.7967 10.8667 52.9183 11.2557C53.2392 12.2866 53.565 13.3175 53.886 14.3484C54.1 15.0438 54.3091 15.7441 54.523 16.4394C54.6446 16.8382 54.7662 17.2418 54.9315 17.6406C54.9655 17.4947 55.0044 17.3536 55.0336 17.2078C55.1649 16.5561 55.2962 15.9045 55.4226 15.2529C55.5345 14.6597 55.6415 14.0713 55.7533 13.478C55.8311 13.0695 55.9284 12.6659 56.0062 12.2574C56.1229 11.669 56.225 11.0758 56.3368 10.4825C56.4244 10.0205 56.5314 9.56343 56.6189 9.10632C56.7259 8.56655 56.8183 8.02678 56.9204 7.48701C56.9836 7.14661 57.042 6.80135 57.1295 6.46095C57.1878 6.2324 57.3289 6.13514 57.6449 6.12542C58.0291 6.11083 58.4181 6.11569 58.8023 6.12542C59.0941 6.12542 59.2691 6.37342 59.2108 6.66519C59.1135 7.1612 59.0357 7.66207 58.9433 8.16294C58.8315 8.73675 58.7099 9.31056 58.5932 9.88437C58.4813 10.4533 58.3695 11.0223 58.2577 11.5912C58.1458 12.1504 58.0291 12.7048 57.9124 13.264C57.8103 13.7746 57.7082 14.2901 57.606 14.8007C57.4942 15.3696 57.3824 15.9386 57.2705 16.5075C57.1684 17.023 57.0614 17.5384 56.9544 18.0588C56.8377 18.6228 56.7259 19.1869 56.6092 19.7462C56.5362 20.0963 56.4633 20.4464 56.4001 20.8014C56.3466 21.1223 56.1083 21.3703 55.7874 21.3849C55.4324 21.3995 55.0725 21.419 54.7175 21.3898C54.4063 21.3655 54.241 21.1223 54.1535 20.8549C53.8228 19.8629 53.5018 18.8708 53.1809 17.8788C52.8794 16.9549 52.5876 16.031 52.2861 15.107C52.0284 14.3193 51.7658 13.5315 51.5081 12.7437C51.4935 12.6951 51.474 12.6513 51.44 12.5589C51.3136 12.9479 51.2017 13.2883 51.0899 13.6287C50.9197 14.1588 50.7592 14.6888 50.589 15.2189C50.0881 16.775 49.5873 18.3262 49.0815 19.8823C48.96 20.2519 48.8433 20.6215 48.6925 20.9764C48.5807 21.2293 48.3764 21.3995 48.0652 21.3898C47.7345 21.3801 47.4039 21.3898 47.0732 21.3898C46.8836 21.3898 46.6404 21.1953 46.5821 20.9764C46.4945 20.6506 46.4216 20.3248 46.3535 19.9942C46.2417 19.469 46.1395 18.9487 46.0326 18.4235C45.9353 17.9177 45.8429 17.412 45.7408 16.9063C45.6581 16.4978 45.5609 16.0942 45.4782 15.6857C45.3712 15.1702 45.2788 14.6548 45.1767 14.1393C45.0746 13.6287 44.9773 13.123 44.8704 12.6124C44.778 12.1553 44.6807 11.6982 44.5883 11.2411C44.5056 10.8375 44.423 10.4339 44.3452 10.0351C44.2528 9.56829 44.1701 9.0966 44.0777 8.62977C43.961 8.06082 43.8394 7.49673 43.7227 6.92778C43.6741 6.6895 43.6012 6.43664 43.8297 6.24699C43.9124 6.18377 44.0242 6.13028 44.1263 6.12542C44.4911 6.11083 44.8558 6.12056 45.2205 6.12056C45.4928 6.12056 45.7213 6.18864 45.7943 6.56793C45.9353 7.30222 46.0763 8.0365 46.2222 8.77079C46.3535 9.43699 46.4994 10.1032 46.6307 10.7694C46.7571 11.4162 46.8787 12.058 47.0051 12.7048C47.117 13.2835 47.2385 13.8573 47.3504 14.436C47.4671 15.0195 47.5741 15.603 47.6908 16.1866C47.788 16.6729 47.8902 17.1591 47.9874 17.6454C48.002 17.6454 48.0166 17.6454 48.0263 17.6454L48.036 17.6551Z" fill="white"/>
<path d="M117.956 11.3627V11.1877C117.956 9.59267 117.961 7.9928 117.951 6.3978C117.951 6.13035 118.184 5.92124 118.403 5.91638C118.782 5.91152 119.162 5.90666 119.541 5.91638C119.77 5.92124 120.003 6.17897 120.013 6.41239C120.013 6.44643 120.013 6.4756 120.013 6.50964C120.013 11.2752 120.013 16.0456 120.013 20.8112C120.013 20.9327 119.979 21.0738 119.915 21.171C119.857 21.2634 119.736 21.3655 119.638 21.3753C119.23 21.4044 118.817 21.4044 118.408 21.3996C118.214 21.3996 118.034 21.171 118.034 20.9668C118.034 20.6556 118.034 20.3395 118.034 19.9796C117.907 20.1255 117.815 20.2519 117.703 20.3541C117.494 20.534 117.275 20.6993 117.056 20.8744C116.589 21.2488 116.045 21.4433 115.471 21.5357C115.038 21.6038 114.591 21.5989 114.153 21.6087C113.54 21.6233 112.947 21.4968 112.398 21.2342C111.42 20.7625 110.739 20.0039 110.326 19.0022C110.112 18.4819 109.942 17.947 109.884 17.3829C109.845 17.0036 109.811 16.6243 109.781 16.245C109.767 16.031 109.743 15.8122 109.752 15.5982C109.791 14.9952 109.815 14.3923 109.927 13.7941C110.078 12.9869 110.365 12.2429 110.822 11.5621C111.128 11.105 111.522 10.75 111.989 10.468C112.573 10.113 113.21 9.93793 113.886 9.87471C114.333 9.83581 114.776 9.86985 115.218 9.90389C115.665 9.94279 116.084 10.0595 116.477 10.2589C117.003 10.5215 117.474 10.8619 117.859 11.3092C117.883 11.3336 117.893 11.3725 117.912 11.4065C117.931 11.3919 117.951 11.3822 117.966 11.3676L117.956 11.3627ZM111.858 15.7149C111.858 15.7149 111.824 15.7149 111.809 15.7149C111.848 16.1769 111.872 16.6389 111.931 17.096C111.994 17.6114 112.145 18.1074 112.402 18.5597C112.855 19.3572 113.574 19.7462 114.459 19.8386C114.737 19.8678 115.019 19.824 115.296 19.8094C116.02 19.7705 116.609 19.4544 117.08 18.9098C117.669 18.2339 117.893 17.4218 117.946 16.5562C117.975 16.1137 117.946 15.6615 117.956 15.2189C117.97 14.6062 117.888 14.013 117.635 13.4391C117.382 12.8702 117.027 12.4034 116.512 12.0435C115.991 11.6837 115.403 11.6253 114.805 11.6059C114.547 11.5961 114.284 11.6496 114.032 11.6983C113.385 11.8198 112.879 12.1748 112.509 12.7097C112.096 13.3127 111.95 14.013 111.858 14.7181C111.814 15.0439 111.853 15.3794 111.853 15.7101L111.858 15.7149Z" fill="white"/>
<path d="M97.0106 20.0379C96.8599 20.1984 96.7091 20.3637 96.5535 20.5145C96.077 20.9813 95.4983 21.2585 94.8661 21.4433C94.1999 21.6378 93.5143 21.6378 92.8383 21.594C92.0554 21.5454 91.3406 21.2682 90.7084 20.7917C90.261 20.4561 89.8915 20.0574 89.6386 19.5614C89.4052 19.0994 89.3177 18.6034 89.3566 18.0928C89.4101 17.3293 89.7116 16.668 90.2951 16.1525C90.7425 15.7587 91.2531 15.4523 91.8123 15.2529C92.2694 15.0876 92.7411 14.9563 93.2176 14.8396C93.524 14.7618 93.8449 14.7423 94.161 14.6937C94.5889 14.6305 95.0217 14.5624 95.4497 14.4992C95.7901 14.4506 96.1353 14.4117 96.4757 14.3679C96.607 14.3484 96.7383 14.3095 96.8696 14.3095C97.0252 14.3095 97.0349 14.2269 97.0349 14.1053C97.0349 13.7114 97.0495 13.3078 96.928 12.9285C96.8502 12.6902 96.7432 12.4568 96.607 12.2526C96.2812 11.7663 95.7755 11.5718 95.2162 11.5086C94.8807 11.4697 94.5403 11.4259 94.2048 11.4453C93.2322 11.5037 92.459 11.8927 92.0506 12.8361C91.9533 13.0647 91.7831 13.1619 91.54 13.1571C91.2725 13.1522 91.0051 13.1473 90.7425 13.1571C90.1735 13.1814 90.0665 12.9091 90.1735 12.4033C90.2562 12.0192 90.4507 11.6982 90.6987 11.3919C91.3795 10.5555 92.284 10.1227 93.3198 9.9476C93.8012 9.8698 94.2972 9.83576 94.7835 9.85034C95.5907 9.87466 96.3785 10.0011 97.1176 10.3609C98.0659 10.8229 98.6397 11.5815 98.912 12.5832C99.0384 13.0403 99.087 13.5072 99.087 13.9837C99.087 16.2449 99.087 18.5013 99.087 20.7625C99.087 20.85 99.0773 20.9424 99.053 21.0299C98.9801 21.278 98.8439 21.3898 98.5959 21.3947C98.2506 21.4044 97.9005 21.4044 97.5504 21.3947C97.2343 21.3801 97.1079 21.2439 97.0836 20.9278V20.0477C97.0836 20.0477 97.0738 20.0233 97.069 20.0136L97.0252 20.0428L97.0106 20.0379ZM97.0495 15.7684C96.7286 15.817 96.4563 15.8608 96.1839 15.9045C95.4545 16.0164 94.7251 16.1136 93.9957 16.2352C93.2614 16.3568 92.5563 16.5562 91.9533 17.0181C91.6372 17.2613 91.4233 17.5774 91.3795 17.9615C91.3066 18.618 91.5205 19.1578 92.1089 19.5273C92.6146 19.8434 93.1641 19.9747 93.7525 19.9844C94.2875 19.9942 94.8029 19.9018 95.2843 19.6829C95.8484 19.4252 96.2666 19.0022 96.5632 18.4575C96.8064 18.0101 96.9474 17.5287 96.9814 17.023C97.0106 16.6145 97.0252 16.206 97.0495 15.7732V15.7684Z" fill="white"/>
<path d="M70.329 16.4006H62.991C62.8792 16.3812 62.9181 16.4687 62.9132 16.5174C62.9132 17.0863 63.0299 17.6309 63.2488 18.1561C63.5211 18.8175 63.949 19.3378 64.5714 19.6879C64.8729 19.8581 65.1987 19.9408 65.544 19.9894C65.9476 20.0429 66.3367 19.9991 66.7257 19.9116C67.1633 19.8143 67.5378 19.5809 67.9025 19.3329C68.1942 19.1384 68.379 18.8515 68.5979 18.5889C68.6805 18.4917 68.8313 18.4139 68.9528 18.409C69.3856 18.3847 69.8233 18.3798 70.2561 18.3993C70.5819 18.4138 70.7278 18.691 70.6111 19.0557C70.4895 19.4496 70.2609 19.7803 69.9546 20.0526C69.6725 20.3006 69.3954 20.5486 69.089 20.7626C68.559 21.1322 67.9608 21.3364 67.3335 21.4871C66.643 21.6525 65.9428 21.6428 65.2474 21.6039C64.6103 21.5698 63.9879 21.3948 63.419 21.0933C62.8841 20.8064 62.4221 20.4271 62.0331 19.9554C61.5225 19.3329 61.2161 18.6132 61.0119 17.8449C60.9341 17.5629 60.9 17.2662 60.8806 16.9745C60.8417 16.4687 60.832 15.963 60.8125 15.4524L60.8222 15.4427V15.4329C60.8465 15.0147 60.8465 14.5917 60.9146 14.1832C61.0654 13.2787 61.3814 12.4375 61.9309 11.6886C62.3735 11.0856 62.923 10.6139 63.6038 10.3027C64.0414 10.1033 64.4985 9.96228 64.9848 9.91852C65.3641 9.88448 65.7483 9.84071 66.1324 9.8553C67.0807 9.8942 67.9851 10.0839 68.7875 10.6285C69.5996 11.178 70.1539 11.9269 70.5041 12.8362C70.7132 13.3808 70.8445 13.9352 70.8882 14.5187C70.9174 14.9369 70.9514 15.3551 70.9612 15.7782C70.9758 16.2402 70.8202 16.3909 70.3679 16.4104H70.3339L70.329 16.4006ZM62.8841 14.8883H68.8507C68.9091 14.4069 68.8215 13.9449 68.6805 13.5024C68.4617 12.8022 68.0532 12.2284 67.4065 11.8345C66.891 11.5184 66.3221 11.426 65.7337 11.4406C65.1355 11.4552 64.5812 11.6205 64.1095 11.9998C63.1855 12.7389 62.9132 13.7553 62.8792 14.8883H62.8841Z" fill="white"/>
<path d="M104.289 11.4746C104.508 11.0758 104.834 10.7889 105.218 10.5555C105.675 10.2735 106.171 10.1373 106.701 10.1081C107.163 10.0838 107.63 10.0741 108.092 10.0546C108.378 10.0449 108.69 10.3124 108.661 10.6382C108.636 10.8959 108.661 11.1585 108.661 11.4211C108.661 11.7177 108.451 11.9317 108.155 11.9317C107.693 11.9317 107.231 11.9219 106.769 11.9317C106.234 11.9511 105.719 12.0581 105.276 12.3839C104.819 12.7194 104.498 13.1474 104.401 13.7115C104.352 13.9886 104.323 14.2755 104.323 14.5576C104.318 16.6291 104.323 18.7056 104.318 20.7771C104.318 21.2294 104.114 21.4044 103.71 21.3947C103.355 21.3898 103.005 21.3947 102.65 21.385C102.363 21.385 102.212 21.1807 102.217 20.889C102.217 20.8501 102.217 20.8112 102.217 20.7771C102.217 17.4169 102.217 14.0567 102.217 10.6965C102.217 10.6138 102.198 10.5312 102.212 10.4534C102.246 10.2443 102.431 10.0692 102.655 10.0595C103.015 10.0449 103.375 10.0352 103.73 10.0595C104.046 10.0789 104.26 10.2929 104.255 10.6284C104.255 10.9153 104.255 11.2022 104.255 11.4892C104.265 11.4843 104.279 11.4746 104.289 11.4697V11.4746Z" fill="white"/>
<path d="M97.0702 20.1692V20.9229C97.0702 20.9229 97.0312 20.8986 97.0312 20.8889C97.0312 20.6603 97.0312 20.4318 97.0312 20.2032C97.0312 20.1935 97.0556 20.1789 97.0702 20.1692Z" fill="white"/>
<path d="M63.5791 16.4006H63.6135L63.5938 16.4399C63.5938 16.4399 63.584 16.4153 63.5742 16.4006H63.5791Z" fill="white"/>
<path d="M68.4737 16.4006C68.4737 16.4006 68.4982 16.4006 68.508 16.4006C68.5031 16.4153 68.4982 16.4252 68.4884 16.4399C68.4835 16.4252 68.4786 16.4153 68.4688 16.4006H68.4737Z" fill="white"/>
<path d="M62.9932 16.4006C62.9932 16.4006 63.0177 16.4006 63.0275 16.4006C63.0226 16.4153 63.0177 16.4252 63.0079 16.4399C63.003 16.4252 62.9981 16.4153 62.9883 16.4006H62.9932Z" fill="white"/>
<path d="M63.0908 16.4006H63.1252L63.1056 16.4399C63.1056 16.4399 63.0957 16.4153 63.0859 16.4006H63.0908Z" fill="white"/>
<path d="M63.1885 16.4006H63.2228L63.2032 16.4399C63.2032 16.4399 63.1934 16.4153 63.1836 16.4006H63.1885Z" fill="white"/>
<path d="M63.2822 16.4006C63.2822 16.4006 63.3068 16.4006 63.3166 16.4006L63.297 16.4399C63.297 16.4399 63.2872 16.4153 63.2773 16.4006H63.2822Z" fill="white"/>
<path d="M63.3799 16.4006H63.4142C63.4142 16.4006 63.4044 16.4252 63.3946 16.4399C63.3897 16.4252 63.3848 16.4153 63.375 16.4006H63.3799Z" fill="white"/>
<path d="M63.4776 16.4006C63.4776 16.4006 63.5021 16.4006 63.5119 16.4006C63.507 16.4153 63.5021 16.4252 63.4923 16.4399C63.4874 16.4252 63.4825 16.4153 63.4727 16.4006H63.4776Z" fill="white"/>
<path d="M97.0127 20.0383L97.057 20.0088C97.057 20.0088 97.0669 20.0334 97.0718 20.0432C97.0521 20.0432 97.0324 20.0432 97.0078 20.0432L97.0127 20.0383Z" fill="white"/>
<path d="M63.6768 16.4006H63.7111L63.6915 16.4399C63.6915 16.4399 63.6817 16.4153 63.6719 16.4006H63.6768Z" fill="white"/>
<path d="M63.7744 16.4006C63.7744 16.4006 63.799 16.4006 63.8088 16.4006C63.8039 16.4153 63.799 16.4252 63.7891 16.4399C63.7842 16.4252 63.7793 16.4153 63.7695 16.4006H63.7744Z" fill="white"/>
<path d="M63.8721 16.4006H63.9064C63.9064 16.4006 63.8966 16.4252 63.8868 16.4399C63.8819 16.4252 63.877 16.4153 63.8672 16.4006H63.8721Z" fill="white"/>
<path d="M63.9698 16.4006C63.9698 16.4006 63.9943 16.4006 64.0041 16.4006L63.9845 16.4399C63.9845 16.4399 63.9747 16.4153 63.9648 16.4006H63.9698Z" fill="white"/>
<path d="M64.0674 16.4006H64.1017L64.0821 16.4399C64.0821 16.4399 64.0723 16.4153 64.0625 16.4006H64.0674Z" fill="white"/>
<path d="M64.1651 16.4006H64.1994L64.1798 16.4399C64.1798 16.4399 64.17 16.4153 64.1602 16.4006H64.1651Z" fill="white"/>
<path d="M64.2627 16.4006C64.2627 16.4006 64.2872 16.4006 64.297 16.4006C64.2921 16.4153 64.2872 16.4252 64.2774 16.4399C64.2725 16.4252 64.2676 16.4153 64.2578 16.4006H64.2627Z" fill="white"/>
<path d="M64.3643 16.4006H64.3986C64.3986 16.4006 64.3888 16.4252 64.379 16.4399C64.3741 16.4252 64.3692 16.4153 64.3594 16.4006H64.3643Z" fill="white"/>
<path d="M64.4619 16.4006C64.4619 16.4006 64.4865 16.4006 64.4963 16.4006L64.4766 16.4399C64.4766 16.4399 64.4668 16.4153 64.457 16.4006H64.4619Z" fill="white"/>
<path d="M64.5596 16.4006H64.5939L64.5743 16.4399C64.5743 16.4399 64.5645 16.4153 64.5547 16.4006H64.5596Z" fill="white"/>
<path d="M64.6572 16.4006H64.6916C64.6916 16.4006 64.6818 16.4252 64.672 16.4399C64.6671 16.4252 64.6622 16.4153 64.6523 16.4006H64.6572Z" fill="white"/>
<path d="M70.3291 16.4006H70.3635L70.3438 16.4399C70.3438 16.4399 70.334 16.4153 70.3242 16.4006H70.3291Z" fill="white"/>
<path d="M64.8487 16.4006H64.883L64.8634 16.4399C64.8634 16.4399 64.8536 16.4153 64.8438 16.4006H64.8487Z" fill="white"/>
<path d="M64.9463 16.4006C64.9463 16.4006 64.9708 16.4006 64.9806 16.4006L64.961 16.4399C64.961 16.4399 64.9512 16.4153 64.9414 16.4006H64.9463Z" fill="white"/>
<path d="M65.044 16.4006H65.0783L65.0587 16.4399C65.0587 16.4399 65.0489 16.4153 65.0391 16.4006H65.044Z" fill="white"/>
<path d="M65.1455 16.4006H65.1799C65.1799 16.4006 65.1701 16.4252 65.1602 16.4399C65.1553 16.4252 65.1504 16.4153 65.1406 16.4006H65.1455Z" fill="white"/>
<path d="M65.2432 16.4006C65.2432 16.4006 65.2677 16.4006 65.2775 16.4006C65.2726 16.4153 65.2677 16.4252 65.2579 16.4399C65.253 16.4252 65.2481 16.4153 65.2383 16.4006H65.2432Z" fill="white"/>
<path d="M65.3408 16.4006H65.3752L65.3555 16.4399C65.3555 16.4399 65.3457 16.4153 65.3359 16.4006H65.3408Z" fill="white"/>
<path d="M65.4385 16.4006H65.4728L65.4532 16.4399C65.4532 16.4399 65.4434 16.4153 65.4336 16.4006H65.4385Z" fill="white"/>
<path d="M65.5362 16.4006C65.5362 16.4006 65.5607 16.4006 65.5705 16.4006C65.5656 16.4153 65.5607 16.4252 65.5509 16.4399C65.546 16.4252 65.5411 16.4153 65.5312 16.4006H65.5362Z" fill="white"/>
<path d="M65.6338 16.4006H65.6681C65.6681 16.4006 65.6583 16.4252 65.6485 16.4399C65.6436 16.4252 65.6387 16.4153 65.6289 16.4006H65.6338Z" fill="white"/>
<path d="M65.7315 16.4006C65.7315 16.4006 65.756 16.4006 65.7658 16.4006C65.7609 16.4153 65.756 16.4252 65.7462 16.4399C65.7413 16.4252 65.7364 16.4153 65.7266 16.4006H65.7315Z" fill="white"/>
<path d="M65.8291 16.4006H65.8635L65.8438 16.4399C65.8438 16.4399 65.834 16.4153 65.8242 16.4006H65.8291Z" fill="white"/>
<path d="M65.9229 16.4006H65.9572L65.9376 16.4399C65.9376 16.4399 65.9278 16.4153 65.918 16.4006H65.9229Z" fill="white"/>
<path d="M66.0283 16.4006C66.0283 16.4006 66.0529 16.4006 66.0627 16.4006C66.0578 16.4153 66.0529 16.4252 66.043 16.4399C66.0381 16.4252 66.0332 16.4153 66.0234 16.4006H66.0283Z" fill="white"/>
<path d="M66.1221 16.4006H66.1564C66.1564 16.4006 66.1466 16.4252 66.1368 16.4399C66.1319 16.4252 66.127 16.4153 66.1172 16.4006H66.1221Z" fill="white"/>
<path d="M66.2197 16.4006C66.2197 16.4006 66.2443 16.4006 66.2541 16.4006L66.2345 16.4399C66.2345 16.4399 66.2247 16.4153 66.2148 16.4006H66.2197Z" fill="white"/>
<path d="M66.3174 16.4006H66.3517L66.3321 16.4399C66.3321 16.4399 66.3223 16.4153 66.3125 16.4006H66.3174Z" fill="white"/>
<path d="M66.4151 16.4006H66.4494C66.4494 16.4006 66.4396 16.4252 66.4298 16.4399C66.4249 16.4252 66.42 16.4153 66.4102 16.4006H66.4151Z" fill="white"/>
<path d="M66.5127 16.4006C66.5127 16.4006 66.5372 16.4006 66.547 16.4006C66.5421 16.4153 66.5372 16.4252 66.5274 16.4399C66.5225 16.4252 66.5176 16.4153 66.5078 16.4006H66.5127Z" fill="white"/>
<path d="M66.6104 16.4006H66.6447C66.6447 16.4006 66.6349 16.4252 66.6251 16.4399C66.6202 16.4252 66.6153 16.4153 66.6055 16.4006H66.6104Z" fill="white"/>
<path d="M66.708 16.4006C66.708 16.4006 66.7325 16.4006 66.7424 16.4006L66.7227 16.4399C66.7227 16.4399 66.7129 16.4153 66.7031 16.4006H66.708Z" fill="white"/>
<path d="M66.8096 16.4006C66.8096 16.4006 66.8341 16.4006 66.8439 16.4006L66.8243 16.4399C66.8243 16.4399 66.8145 16.4153 66.8047 16.4006H66.8096Z" fill="white"/>
<path d="M66.9072 16.4006C66.9072 16.4006 66.9318 16.4006 66.9416 16.4006C66.9367 16.4153 66.9318 16.4252 66.922 16.4399C66.9171 16.4252 66.9122 16.4153 66.9023 16.4006H66.9072Z" fill="white"/>
<path d="M67.0049 16.4006C67.0049 16.4006 67.0294 16.4006 67.0392 16.4006C67.0343 16.4153 67.0294 16.4252 67.0196 16.4399C67.0147 16.4252 67.0098 16.4153 67 16.4006H67.0049Z" fill="white"/>
<path d="M67.1026 16.4006H67.1369L67.1173 16.4399C67.1173 16.4399 67.1075 16.4153 67.0977 16.4006H67.1026Z" fill="white"/>
<path d="M67.2002 16.4006H67.2345C67.2345 16.4006 67.2247 16.4252 67.2149 16.4399C67.21 16.4252 67.2051 16.4153 67.1953 16.4006H67.2002Z" fill="white"/>
<path d="M67.2979 16.4006C67.2979 16.4006 67.3224 16.4006 67.3322 16.4006C67.3273 16.4153 67.3224 16.4252 67.3126 16.4399C67.3077 16.4252 67.3028 16.4153 67.293 16.4006H67.2979Z" fill="white"/>
<path d="M67.3916 16.4006C67.3916 16.4006 67.4161 16.4006 67.426 16.4006C67.421 16.4153 67.4161 16.4252 67.4063 16.4399C67.4014 16.4252 67.3965 16.4153 67.3867 16.4006H67.3916Z" fill="white"/>
<path d="M67.4893 16.4006C67.4893 16.4006 67.5138 16.4006 67.5236 16.4006L67.504 16.4399C67.504 16.4399 67.4942 16.4153 67.4844 16.4006H67.4893Z" fill="white"/>
<path d="M67.5908 16.4006C67.5908 16.4006 67.6154 16.4006 67.6252 16.4006C67.6203 16.4153 67.6154 16.4252 67.6056 16.4399C67.6007 16.4252 67.5957 16.4153 67.5859 16.4006H67.5908Z" fill="white"/>
<path d="M67.6885 16.4006H67.7228L67.7032 16.4399C67.7032 16.4399 67.6934 16.4153 67.6836 16.4006H67.6885Z" fill="white"/>
<path d="M67.7862 16.4006C67.7862 16.4006 67.8107 16.4006 67.8205 16.4006L67.8009 16.4399C67.8009 16.4399 67.7911 16.4153 67.7812 16.4006H67.7862Z" fill="white"/>
<path d="M67.8838 16.4006C67.8838 16.4006 67.9083 16.4006 67.9181 16.4006C67.9132 16.4153 67.9083 16.4252 67.8985 16.4399C67.8936 16.4252 67.8887 16.4153 67.8789 16.4006H67.8838Z" fill="white"/>
<path d="M67.9815 16.4006H68.0158L67.9962 16.4399C67.9962 16.4399 67.9864 16.4153 67.9766 16.4006H67.9815Z" fill="white"/>
<path d="M68.0791 16.4006C68.0791 16.4006 68.1036 16.4006 68.1135 16.4006L68.0938 16.4399C68.0938 16.4399 68.084 16.4153 68.0742 16.4006H68.0791Z" fill="white"/>
<path d="M68.1768 16.4006C68.1768 16.4006 68.2013 16.4006 68.2111 16.4006C68.2062 16.4153 68.2013 16.4252 68.1915 16.4399C68.1866 16.4252 68.1817 16.4153 68.1719 16.4006H68.1768Z" fill="white"/>
<path d="M68.2744 16.4006H68.3088L68.2891 16.4399C68.2891 16.4399 68.2793 16.4153 68.2695 16.4006H68.2744Z" fill="white"/>
<path d="M68.376 16.4006C68.376 16.4006 68.4005 16.4006 68.4103 16.4006C68.4054 16.4153 68.4005 16.4252 68.3907 16.4399C68.3858 16.4252 68.3809 16.4153 68.3711 16.4006H68.376Z" fill="white"/>
<path d="M70.2315 16.4006C70.2315 16.4006 70.256 16.4006 70.2658 16.4006C70.2609 16.4153 70.256 16.4252 70.2462 16.4399C70.2413 16.4252 70.2364 16.4153 70.2266 16.4006H70.2315Z" fill="white"/>
<path d="M68.5713 16.4006H68.6056L68.586 16.4399C68.586 16.4399 68.5762 16.4153 68.5664 16.4006H68.5713Z" fill="white"/>
<path d="M68.669 16.4006C68.669 16.4006 68.6935 16.4006 68.7033 16.4006C68.6984 16.4153 68.6935 16.4252 68.6837 16.4399C68.6788 16.4252 68.6739 16.4153 68.6641 16.4006H68.669Z" fill="white"/>
<path d="M68.7627 16.4006C68.7627 16.4006 68.7872 16.4006 68.797 16.4006C68.7921 16.4153 68.7872 16.4252 68.7774 16.4399C68.7725 16.4252 68.7676 16.4153 68.7578 16.4006H68.7627Z" fill="white"/>
<path d="M68.8604 16.4006H68.8947L68.8751 16.4399C68.8751 16.4399 68.8653 16.4153 68.8555 16.4006H68.8604Z" fill="white"/>
<path d="M68.958 16.4006C68.958 16.4006 68.9825 16.4006 68.9924 16.4006C68.9875 16.4153 68.9825 16.4252 68.9727 16.4399C68.9678 16.4252 68.9629 16.4153 68.9531 16.4006H68.958Z" fill="white"/>
<path d="M69.0557 16.4006C69.0557 16.4006 69.0802 16.4006 69.09 16.4006C69.0851 16.4153 69.0802 16.4252 69.0704 16.4399C69.0655 16.4252 69.0606 16.4153 69.0508 16.4006H69.0557Z" fill="white"/>
<path d="M69.1573 16.4006H69.1916L69.172 16.4399C69.172 16.4399 69.1622 16.4153 69.1523 16.4006H69.1573Z" fill="white"/>
<path d="M69.2549 16.4006C69.2549 16.4006 69.2794 16.4006 69.2892 16.4006C69.2843 16.4153 69.2794 16.4252 69.2696 16.4399C69.2647 16.4252 69.2598 16.4153 69.25 16.4006H69.2549Z" fill="white"/>
<path d="M69.3526 16.4006C69.3526 16.4006 69.3771 16.4006 69.3869 16.4006L69.3673 16.4399C69.3673 16.4399 69.3575 16.4153 69.3477 16.4006H69.3526Z" fill="white"/>
<path d="M69.4502 16.4006H69.4845L69.4649 16.4399C69.4649 16.4399 69.4551 16.4153 69.4453 16.4006H69.4502Z" fill="white"/>
<path d="M69.5479 16.4006C69.5479 16.4006 69.5724 16.4006 69.5822 16.4006C69.5773 16.4153 69.5724 16.4252 69.5626 16.4399C69.5577 16.4252 69.5528 16.4153 69.543 16.4006H69.5479Z" fill="white"/>
<path d="M69.6455 16.4006C69.6455 16.4006 69.67 16.4006 69.6799 16.4006L69.6602 16.4399C69.6602 16.4399 69.6504 16.4153 69.6406 16.4006H69.6455Z" fill="white"/>
<path d="M69.7432 16.4006H69.7775L69.7579 16.4399C69.7579 16.4399 69.7481 16.4153 69.7383 16.4006H69.7432Z" fill="white"/>
<path d="M69.8408 16.4006C69.8408 16.4006 69.8654 16.4006 69.8752 16.4006C69.8703 16.4153 69.8654 16.4252 69.8555 16.4399C69.8506 16.4252 69.8457 16.4153 69.8359 16.4006H69.8408Z" fill="white"/>
<path d="M69.9424 16.4006C69.9424 16.4006 69.9669 16.4006 69.9767 16.4006L69.9571 16.4399C69.9571 16.4399 69.9473 16.4153 69.9375 16.4006H69.9424Z" fill="white"/>
<path d="M70.0401 16.4006H70.0744C70.0744 16.4006 70.0646 16.4252 70.0548 16.4399C70.0499 16.4252 70.045 16.4153 70.0352 16.4006H70.0401Z" fill="white"/>
<path d="M70.1377 16.4006C70.1377 16.4006 70.1622 16.4006 70.172 16.4006C70.1671 16.4153 70.1622 16.4252 70.1524 16.4399C70.1475 16.4252 70.1426 16.4153 70.1328 16.4006H70.1377Z" fill="white"/>
<path d="M64.751 16.4006C64.751 16.4006 64.7755 16.4006 64.7853 16.4006C64.7804 16.4153 64.7755 16.4252 64.7657 16.4399C64.7608 16.4252 64.7559 16.4153 64.7461 16.4006H64.751Z" fill="white"/>
<path d="M60.8125 15.4231V15.4329V15.4426C60.8076 15.4377 60.7979 15.428 60.793 15.4231C60.8027 15.4231 60.8076 15.4231 60.8174 15.4231H60.8125Z" fill="white"/>
<path d="M104.289 11.4745C104.289 11.4745 104.264 11.4896 104.254 11.4946C104.264 11.4896 104.279 11.4795 104.289 11.4745Z" fill="white"/>
<path d="M25.0273 4.72498C25.0273 4.72498 25.0718 4.76942 25.0915 4.7941C25.0718 4.76942 25.0471 4.74966 25.0273 4.72498Z" fill="white"/>
<path d="M18.5528 21.4579C18.3778 21.2828 18.193 21.1175 18.0179 20.9424C17.7456 20.6653 17.4781 20.3784 17.2058 20.1012L17.1329 20.0136C16.8411 19.7219 16.5493 19.4252 16.2527 19.1335C15.8102 18.6861 15.3628 18.2436 14.9154 17.7962C14.5459 17.4266 14.1763 17.0571 13.8067 16.6875C13.4128 16.2887 13.0189 15.8851 12.6251 15.4815C12.6007 15.4572 12.5861 15.4183 12.5667 15.3842C12.3479 15.0828 12.1242 14.7813 11.9054 14.4798C11.8665 14.4263 11.847 14.3679 11.8178 14.3096C11.4969 13.8038 11.2537 13.2592 11.0981 12.6805C11.0009 12.3061 10.889 11.9365 10.8112 11.5572C10.7529 11.2849 10.7383 11.0029 10.7091 10.7257V10.5944C10.6994 10.3415 10.6751 10.0935 10.6799 9.84064C10.6848 9.5975 10.7237 9.3495 10.748 9.10636C10.748 9.06746 10.7675 9.03341 10.7772 8.99938C10.7869 8.97506 10.7918 8.95075 10.8015 8.9313C10.8015 8.91671 10.8015 8.90698 10.8064 8.89726C10.8501 8.65898 10.8939 8.4207 10.9377 8.18242C11.069 7.78854 11.1954 7.38979 11.3364 6.9959C11.4045 6.81111 11.5017 6.63605 11.5893 6.45613C11.6476 6.33456 11.6963 6.20812 11.7692 6.09628C11.9977 5.75588 12.2263 5.41062 12.4792 5.07995C12.8196 4.62771 13.2183 4.2241 13.6657 3.86911C13.8262 3.74268 13.9769 3.60166 14.1374 3.4655C14.079 3.42173 14.0207 3.38769 13.9672 3.34393C13.6657 3.06675 13.3739 2.77498 13.053 2.52211C12.4257 2.0261 11.7206 1.65653 10.9668 1.39394C10.359 1.17998 9.73168 1.03409 9.08979 0.990326C8.66186 0.956286 8.22421 0.970875 7.79142 0.985463C7.24192 1.00005 6.70215 1.1119 6.17211 1.27237C5.76849 1.42312 5.35515 1.55441 4.96127 1.72947C4.43608 1.95803 3.96439 2.27897 3.52188 2.64368C3.28846 2.83819 3.0745 3.05702 2.85081 3.26126C2.75355 3.38283 2.6563 3.49954 2.55418 3.62111L2.45692 3.71836C2.20892 4.08794 1.9366 4.44778 1.70805 4.83195C1.36765 5.42035 1.12938 6.05251 0.959178 6.71385C0.959178 6.73817 0.959178 6.75762 0.954315 6.78193C0.891098 7.18068 0.793842 7.57944 0.769528 7.98305C0.745214 8.40611 0.784117 8.83404 0.798705 9.2571C0.84247 9.56346 0.866784 9.87468 0.930001 10.1762C1.26067 11.6642 1.98037 12.9431 3.02587 14.0421C3.23497 14.2609 3.44893 14.4749 3.65317 14.6986C3.98384 15.0584 4.30965 15.428 4.64032 15.7879C4.85429 16.0164 5.07797 16.2352 5.29194 16.4687C5.62261 16.8236 5.94355 17.1883 6.26936 17.5482C6.51737 17.8205 6.76537 18.088 7.01337 18.3554C7.43157 18.8077 7.84977 19.255 8.26798 19.7073C8.71535 20.1887 9.16273 20.6701 9.61497 21.1515C10.0234 21.5892 10.4319 22.0317 10.8355 22.4694C11.2392 22.907 11.6525 23.3495 12.0561 23.7872C12.4597 24.2248 12.8682 24.6674 13.2767 25.105C13.6851 25.5427 14.0936 25.9754 14.5167 26.4228C14.8717 26.0533 15.2218 25.6885 15.5768 25.319C15.8151 25.0758 16.0533 24.8327 16.2916 24.5847C16.5396 24.327 16.7925 24.0741 17.0405 23.8164C17.235 23.617 17.4246 23.4176 17.6192 23.2231C17.7213 23.1113 17.8283 23.0043 17.9304 22.8973C18.261 22.5618 18.5966 22.2214 18.9272 21.8858C18.8008 21.7399 18.6792 21.5892 18.5479 21.4482L18.5528 21.4579ZM11.5115 6.25189C11.5115 6.25189 11.5115 6.25675 11.5066 6.26161C11.5066 6.26161 11.5066 6.25675 11.5066 6.25189C11.5066 6.25189 11.4969 6.25189 11.492 6.24702C11.4969 6.24702 11.5017 6.24703 11.5066 6.25189H11.5115ZM1.10506 9.44189C1.07589 9.41758 1.04185 9.39813 1.01267 9.37868C1.04671 9.39813 1.08075 9.41758 1.10992 9.44189H1.10506ZM7.45589 8.11921C7.44616 8.11921 7.4413 8.11434 7.43157 8.10948C7.4413 8.10948 7.44616 8.10948 7.45589 8.11921ZM7.36836 8.37694C7.36836 8.37694 7.32945 8.38666 7.30514 8.39152C7.32459 8.38666 7.34404 8.3818 7.36349 8.37207L7.36836 8.37694ZM7.36836 8.09003C7.36836 8.09003 7.35863 8.09489 7.35377 8.09976C7.35863 8.09976 7.36349 8.09003 7.36836 8.09003C7.36836 8.09003 7.38295 8.09003 7.38295 8.09489C7.37808 8.09489 7.37322 8.09489 7.36836 8.09489V8.09003ZM7.33432 7.69614C7.33432 7.69614 7.36349 7.73018 7.37808 7.74477C7.36349 7.73018 7.34404 7.71073 7.33432 7.69614C7.32459 7.70587 7.31487 7.72046 7.30514 7.73018C7.31487 7.71559 7.32459 7.70587 7.33918 7.69128L7.33432 7.69614ZM7.29541 8.13866C7.29541 8.13866 7.30514 8.15325 7.31 8.15811C7.31 8.15325 7.30028 8.14352 7.29541 8.13866ZM7.16412 8.05113C7.15926 8.03654 7.14953 8.02681 7.14467 8.01709C7.14953 8.03168 7.15926 8.0414 7.16412 8.05113ZM7.2322 8.37694C7.2322 8.37694 7.2322 8.36721 7.22734 8.36235C7.24192 8.35748 7.25651 8.35262 7.2711 8.34776C7.25651 8.35262 7.24192 8.35748 7.22734 8.36721C7.22734 8.36721 7.22734 8.37694 7.22734 8.3818L7.2322 8.37694ZM7.11063 7.72046C7.1009 7.73504 7.09118 7.74963 7.07659 7.76422C7.08631 7.74963 7.09604 7.73504 7.10576 7.72046H7.11063ZM7.07659 7.70101C7.062 7.72046 7.04741 7.73991 7.02796 7.75936C7.03769 7.76908 7.05227 7.77881 7.062 7.78367C7.05227 7.77395 7.04255 7.76422 7.02796 7.7545C7.04741 7.73504 7.062 7.71559 7.07659 7.69614V7.70101ZM6.27909 6.71385C6.27909 6.71385 6.28881 6.75762 6.29854 6.78193C6.25964 6.7868 6.2256 6.79652 6.19156 6.80139C6.2256 6.79652 6.2645 6.7868 6.29854 6.78193C6.29368 6.75762 6.28881 6.73817 6.27909 6.71385ZM6.15752 6.75276L6.12348 6.76248C6.12348 6.76248 6.1332 6.79652 6.13807 6.81111C6.13807 6.79652 6.12834 6.77707 6.12348 6.76248C6.1332 6.76248 6.14779 6.75276 6.15752 6.75276ZM5.87548 6.37832C5.82198 6.41722 5.76363 6.45126 5.71014 6.49017C5.76849 6.45126 5.82198 6.41722 5.87548 6.37832ZM5.69069 6.50475C5.69069 6.50475 5.71014 6.53393 5.71986 6.54852C5.74418 6.53393 5.76849 6.51934 5.78794 6.50962C5.76363 6.5242 5.74418 6.53879 5.71986 6.55338C5.71014 6.53879 5.70041 6.5242 5.69069 6.50962V6.50475ZM5.62261 6.05251C5.62261 6.05251 5.65179 6.07683 5.66151 6.08655C5.65179 6.07683 5.6372 6.0671 5.62261 6.05251ZM5.57398 6.10114C5.57398 6.10114 5.56912 6.11087 5.56426 6.11087C5.58371 6.12059 5.60316 6.13518 5.61775 6.14491C5.59829 6.13518 5.57884 6.12545 5.55939 6.11573C5.55939 6.11573 5.56912 6.106 5.56912 6.10114H5.57398ZM5.40865 6.13518C5.40865 6.14491 5.41837 6.16436 5.41837 6.17895C5.41837 6.16436 5.40865 6.14977 5.40378 6.13518H5.40865ZM5.28221 5.74129L5.28708 5.75102C5.28221 5.76074 5.26762 5.77047 5.25304 5.78019C5.26276 5.77047 5.27735 5.76074 5.28221 5.74616C5.28221 5.74616 5.28221 5.74129 5.28221 5.73643V5.74129ZM5.22872 5.71212C5.22872 5.71212 5.20441 5.74129 5.20441 5.75102C5.20441 5.74129 5.21413 5.7267 5.22872 5.71212ZM5.47186 5.88718C5.47186 5.88718 5.48645 5.92122 5.49618 5.93581C5.48645 5.92122 5.48159 5.90177 5.47186 5.88718ZM5.27249 6.16436C5.28708 6.16436 5.30166 6.15949 5.31139 6.15463C5.2968 6.15463 5.28221 6.15949 5.27249 6.16436ZM5.14119 6.10114C5.14119 6.10114 5.14119 6.06224 5.14119 6.04765C5.14119 6.06224 5.14119 6.07683 5.14119 6.10114C5.23358 6.05738 5.31139 6.02334 5.38919 5.98443C5.31139 6.02334 5.22872 6.05738 5.14119 6.10114ZM5.02935 5.45439C5.02935 5.45439 5.02448 5.45439 5.01962 5.45925C5.01962 5.45925 5.02448 5.45925 5.02935 5.45439ZM5.00503 5.41062C5.00503 5.41062 5.01476 5.42521 5.01962 5.43494C5.01962 5.42521 5.0099 5.42035 5.00503 5.41062C5.00503 5.41062 4.99531 5.41548 4.99044 5.42035C4.99531 5.42035 5.00017 5.41548 5.00503 5.41062ZM4.77648 5.19179C4.77648 5.19179 4.77648 5.24529 4.77648 5.26474C4.77648 5.24529 4.77648 5.21611 4.77648 5.19179ZM4.77648 5.28419C4.7473 5.28419 4.71326 5.28419 4.68409 5.28905C4.71326 5.28905 4.7473 5.28905 4.77648 5.27933V5.28419ZM4.6695 5.19666H4.55279C4.59169 5.19666 4.6306 5.19666 4.6695 5.19666ZM4.47499 5.49329C4.4604 5.52733 4.45067 5.56137 4.43608 5.59541C4.44581 5.56137 4.4604 5.52733 4.47012 5.49329H4.47499ZM4.39718 5.22097C4.44581 5.31823 4.43608 5.36686 4.41177 5.40576C4.44095 5.36686 4.44581 5.31823 4.39718 5.22097ZM4.4215 5.6489C4.41177 5.67808 4.40204 5.70725 4.38746 5.74129C4.33397 5.70239 4.2902 5.65862 4.26102 5.61C4.2902 5.65862 4.3291 5.70239 4.38259 5.74129C4.39232 5.70725 4.40204 5.67808 4.41663 5.6489H4.4215ZM4.29993 5.50301C4.31938 5.48843 4.33883 5.47384 4.35828 5.45925C4.33883 5.47384 4.31938 5.48843 4.30479 5.50301H4.29993ZM4.33883 5.27446C4.28534 5.32309 4.23671 5.36199 4.22698 5.40576C4.23671 5.35713 4.28534 5.31823 4.33883 5.27446ZM4.00329 4.82708C4.00329 4.82708 3.99357 4.84167 3.99357 4.84654C3.99357 4.84167 4.00329 4.83681 4.00329 4.82708ZM3.64831 4.44292V4.47696C3.65317 4.47696 3.64831 4.45751 3.65317 4.44292H3.64831ZM3.624 4.78332C3.59482 4.77359 3.56564 4.76387 3.53647 4.75414C3.5316 4.77359 3.52674 4.78818 3.52188 4.80763C3.52674 4.78818 3.5316 4.76873 3.53647 4.74928C3.56564 4.759 3.59482 4.76873 3.624 4.77846V4.78332ZM3.61913 4.35053C3.56078 4.39916 3.51701 4.4332 3.47811 4.46724C3.47811 4.4721 3.47811 4.47696 3.48297 4.48669C3.48297 4.48182 3.48297 4.4721 3.47811 4.46724C3.52188 4.4332 3.56564 4.39916 3.624 4.35053H3.61913ZM3.23011 3.70864C3.23011 3.70864 3.2447 3.7135 3.25442 3.71836C3.2447 3.71836 3.23497 3.70864 3.23011 3.70864ZM3.22038 3.72809C3.22038 3.72809 3.22038 3.72809 3.22038 3.73295C3.22038 3.73295 3.22038 3.73295 3.22038 3.72809ZM2.81677 3.87884C2.80704 3.87397 2.79732 3.87397 2.79246 3.86911C2.79246 3.87397 2.80704 3.87884 2.81677 3.87884ZM2.79732 3.85938C2.79732 3.85938 2.79732 3.8448 2.80218 3.83993C2.80218 3.8448 2.79732 3.85452 2.79732 3.85938ZM2.773 3.60166C2.75355 3.62111 2.73897 3.64542 2.71951 3.66487L2.74383 3.68432C2.74383 3.68432 2.78273 3.64542 2.80704 3.62597C2.80704 3.62597 2.79732 3.61624 2.79246 3.61138C2.79732 3.61138 2.80218 3.62111 2.80704 3.62597C2.78273 3.64542 2.76328 3.66487 2.74383 3.68432L2.71951 3.66001C2.71951 3.66001 2.75842 3.61624 2.773 3.59679V3.60166ZM1.86366 10.2005C1.82476 10.1567 1.77613 10.1178 1.73236 10.0838C1.78099 10.1227 1.82476 10.1567 1.86366 10.2005C1.8977 10.2345 1.92201 10.2832 1.94633 10.3221C1.92201 10.2783 1.89284 10.2345 1.86366 10.2005ZM2.46665 10.8132C2.37425 10.6965 2.27214 10.6041 2.15543 10.5166C2.26727 10.6041 2.37425 10.6965 2.46178 10.8083C2.57849 10.9542 2.70979 11.0807 2.84108 11.2071C2.70979 11.0807 2.57363 10.9494 2.46178 10.8083L2.46665 10.8132ZM2.97724 4.05876C2.99669 4.07821 3.01128 4.09766 3.03073 4.11225C3.01128 4.0928 2.99669 4.07335 2.97724 4.05876ZM3.06477 4.14629C3.06477 4.14629 3.09395 4.11711 3.10854 4.10252L3.06477 4.14629ZM3.12313 11.5037C3.12313 11.5037 3.09395 11.4745 3.08422 11.4551C3.09881 11.4697 3.10854 11.4843 3.12313 11.4989C3.28846 11.6642 3.45866 11.8198 3.62886 11.9803C3.46352 11.8198 3.29332 11.6593 3.12313 11.4989V11.5037ZM3.68235 4.85626C3.63372 4.87085 3.58509 4.88544 3.4927 4.91461C3.58023 4.88544 3.62886 4.87085 3.68235 4.85626C3.68235 4.84167 3.68721 4.82708 3.69208 4.80763C3.68721 4.82222 3.68721 4.83681 3.68235 4.85626ZM5.89006 14.2366C5.75877 14.0956 5.63233 13.9497 5.49131 13.8136C5.62747 13.9497 5.7539 14.0956 5.89006 14.2366C6.11375 14.47 6.33744 14.7035 6.55627 14.9417C6.33258 14.7083 6.10889 14.4749 5.8852 14.2415L5.89006 14.2366ZM7.31 15.5982C7.13494 15.4231 6.93557 15.2675 6.75078 15.1071C6.7216 15.0828 6.69243 15.0633 6.66811 15.039C6.69729 15.0633 6.72647 15.0828 6.75078 15.1022C6.94043 15.2675 7.1398 15.4183 7.31487 15.5933C7.40726 15.6857 7.48993 15.7879 7.57259 15.89C7.48993 15.7879 7.4024 15.6857 7.31487 15.5982H7.31ZM7.78656 8.5909C7.78656 8.5909 7.79628 8.5909 7.80115 8.59576C7.80115 8.59576 7.79142 8.59576 7.78656 8.5909ZM7.79628 8.56172C7.79628 8.56172 7.79142 8.57631 7.78656 8.58117C7.78656 8.57631 7.78656 8.56659 7.79142 8.56172C7.79142 8.56172 7.79628 8.56172 7.80115 8.56659C7.80115 8.56659 7.79628 8.56659 7.79142 8.56659L7.79628 8.56172ZM7.84977 8.36235C7.84977 8.36235 7.84977 8.36235 7.84977 8.35748C7.84977 8.35748 7.84977 8.35748 7.84977 8.36235ZM7.87895 8.37207C7.87895 8.37207 7.88381 8.36235 7.88381 8.35748C7.88381 8.36235 7.88381 8.37207 7.87895 8.37207ZM8.23394 9.18416C8.23394 9.18416 8.27284 9.1404 8.28743 9.11608C8.26798 9.1404 8.25339 9.15985 8.23394 9.18416ZM8.38468 9.24252C8.38468 9.24252 8.39927 9.22793 8.40413 9.2182C8.40413 9.2182 8.38955 9.23279 8.38468 9.24252ZM10.5389 5.27446C10.5389 5.27446 10.5389 5.26474 10.5389 5.25987C10.5389 5.25987 10.5389 5.2696 10.5389 5.27446ZM10.4222 5.2696C10.4271 5.29878 10.4611 5.32309 10.4854 5.3474C10.4951 5.33282 10.5097 5.31823 10.5243 5.3085C10.5146 5.32309 10.5 5.33768 10.4854 5.35227C10.4611 5.32309 10.4271 5.30364 10.4222 5.27446V5.2696ZM10.3784 10.6819C10.3784 10.6819 10.393 10.6916 10.4027 10.6916C10.393 10.6916 10.3833 10.6819 10.3784 10.6819ZM10.3638 10.7111C10.3638 10.7111 10.3833 10.7257 10.3882 10.7208C10.3882 10.7208 10.393 10.7111 10.3979 10.7062C10.3979 10.7111 10.3979 10.7208 10.393 10.7257C10.3833 10.7257 10.3736 10.7159 10.3638 10.7159V10.7111ZM10.4417 10.857C10.4417 10.857 10.4611 10.891 10.4708 10.9105C10.3882 10.9494 10.3006 10.9883 10.218 11.0272C10.2082 11.0077 10.1936 10.9883 10.1839 10.9688C10.2715 10.9348 10.3541 10.8959 10.4417 10.857ZM10.4417 11.212C10.4319 11.2022 10.4222 11.1876 10.4125 11.1779C10.4222 11.1876 10.4319 11.1974 10.4417 11.212ZM9.51285 9.98653C9.51285 10.0157 9.51285 10.0497 9.51772 10.0789C9.51772 10.0497 9.50799 10.0157 9.51285 9.98653ZM9.42532 10.4096C9.39128 10.2977 9.36697 10.1956 9.40587 10.1032C9.36697 10.1956 9.39128 10.2929 9.42532 10.4047V10.4096ZM9.41074 9.66072C9.38642 9.7288 9.37183 9.77256 9.35724 9.82119C9.37183 9.77256 9.38642 9.73366 9.41074 9.66072ZM9.36697 9.97194C9.36697 9.96221 9.36697 9.95249 9.36211 9.94276C9.36211 9.95249 9.36211 9.96221 9.37183 9.9768L9.36697 9.97194ZM9.21622 10.4582C9.21622 10.4582 9.21622 10.4582 9.21622 10.4631C9.21622 10.4631 9.21622 10.4631 9.21622 10.4582ZM9.19677 10.4242C9.19677 10.4242 9.20164 10.4242 9.2065 10.4242C9.2065 10.4242 9.20163 10.4242 9.19677 10.4242ZM9.19677 10.4582H9.18705C9.18705 10.4582 9.19191 10.4582 9.19677 10.4631V10.4582ZM9.3232 9.78715C9.29403 9.75797 9.27944 9.73852 9.2843 9.72393C9.2843 9.73852 9.29403 9.75797 9.3232 9.78715ZM9.33779 9.90386C9.27944 9.91358 9.22109 9.92817 9.16273 9.9379C9.16759 9.96221 9.17246 9.98166 9.17732 10.006C9.17732 9.98166 9.16759 9.96221 9.15787 9.93304C9.21622 9.92331 9.27458 9.90872 9.33293 9.899L9.33779 9.90386ZM9.05089 3.85938C9.05089 3.85938 9.08006 3.88856 9.09465 3.89829C9.08006 3.88856 9.06548 3.87397 9.05089 3.86425V3.85938ZM9.01685 3.93233C9.01685 3.93233 9.00712 3.95178 9.00226 3.9615C9.00226 3.95178 9.01198 3.94205 9.01685 3.93233ZM9.01685 9.77743C9.00226 9.78229 8.99253 9.79201 8.98281 9.80174C8.99253 9.79688 9.00226 9.78715 9.01685 9.77743ZM8.96336 9.81147C8.95363 9.81147 8.94877 9.79688 8.93904 9.78715C8.94877 9.79688 8.95363 9.8066 8.96336 9.81147ZM8.50139 9.44189C8.50139 9.44189 8.51598 9.44675 8.5257 9.45648C8.51598 9.45162 8.50625 9.44675 8.50139 9.44675C8.49653 9.44675 8.49166 9.45162 8.48194 9.46134C8.4868 9.45648 8.49166 9.44675 8.50139 9.44675V9.44189ZM8.45763 9.48079C8.45763 9.48079 8.47221 9.47107 8.47708 9.46134C8.47221 9.46621 8.46735 9.47593 8.45763 9.48079ZM8.51598 16.7799C8.51598 16.7799 8.50139 16.7556 8.49166 16.7458C8.50139 16.7507 8.51112 16.7701 8.51598 16.775V16.7799ZM8.51598 9.52456C8.51598 9.52456 8.48194 9.50025 8.46735 9.48566C8.4868 9.50025 8.50139 9.5197 8.52084 9.52456C8.53543 9.52456 8.55974 9.5197 8.59865 9.50997C8.55974 9.5197 8.53543 9.53428 8.52084 9.52942L8.51598 9.52456ZM8.61323 9.50025C8.61323 9.50025 8.58892 9.48566 8.57433 9.47593C8.58892 9.48079 8.59378 9.48566 8.61323 9.49538V9.50025ZM9.38156 17.6746C9.21622 17.5142 9.05089 17.3585 8.88555 17.1981C9.05089 17.3537 9.21622 17.5142 9.38156 17.6746C9.42532 17.7184 9.46909 17.767 9.51285 17.8157C9.46909 17.767 9.43019 17.7184 9.38156 17.6746ZM9.77058 10.7743C9.68305 10.7694 9.59552 10.7646 9.50799 10.7597C9.59552 10.7597 9.68305 10.7694 9.77058 10.7743ZM9.98941 4.80763C10.004 4.80277 10.0186 4.79304 10.0332 4.78332C10.0186 4.79304 10.004 4.79791 9.98941 4.80763ZM10.0478 4.90003C10.0478 4.90003 10.0672 4.8903 10.0769 4.88058C10.0672 4.88058 10.0575 4.8903 10.0478 4.89516V4.90003ZM10.145 11.3287C10.1645 11.3578 10.1791 11.4016 10.1985 11.4113C10.1791 11.3967 10.1596 11.3578 10.145 11.3287ZM10.2082 11.4211C10.3201 11.4162 10.4562 11.4843 10.534 11.3287C10.4611 11.4891 10.3201 11.4162 10.2082 11.4211ZM10.641 11.7274C10.6702 11.7323 10.7042 11.7371 10.7383 11.742C10.6994 11.7371 10.6702 11.7323 10.6362 11.7226L10.641 11.7274ZM11.8713 20.1838C12.0221 20.3395 12.2117 20.4562 12.3576 20.6166C12.2117 20.4562 12.0172 20.3395 11.8713 20.1838ZM12.5229 20.8792C12.4938 20.7966 12.4549 20.7285 12.4062 20.6653C12.4549 20.7285 12.4986 20.7966 12.5229 20.8792ZM12.5618 20.9084C12.5618 20.9084 12.5618 20.9084 12.557 20.9084C12.7661 21.0932 12.9752 21.2731 13.1843 21.4579C12.9752 21.2731 12.7661 21.098 12.5618 20.9133V20.9084ZM14.2249 22.4645C14.0839 22.3235 13.9331 22.1873 13.797 22.0414C13.6268 21.8566 13.4371 21.6864 13.2475 21.5211C13.4371 21.6913 13.6219 21.8615 13.797 22.0463C13.9331 22.1922 14.079 22.3283 14.2249 22.4694V22.4645ZM15.6838 23.8796C15.6838 23.8796 15.6838 23.8796 15.6789 23.8747C15.6789 23.8747 15.6838 23.8747 15.6886 23.8844C15.6983 23.8942 15.7081 23.9088 15.7178 23.9233C15.7081 23.9088 15.6983 23.899 15.6886 23.8844L15.6838 23.8796Z" fill="white" fill-opacity="0.5"/>
<path d="M10.47 10.9006C10.47 10.9006 10.4506 10.8666 10.4408 10.8472L10.1836 10.9588C10.1836 10.9588 10.2079 10.9976 10.2176 11.0122C10.3001 10.9734 10.3875 10.9345 10.47 10.8957V10.9006Z" fill="white" fill-opacity="0.5"/>
<path d="M27.101 9.26675C26.9405 8.36227 26.7071 7.4821 26.3278 6.6457C26.3181 6.61166 26.3083 6.58248 26.2986 6.54844C26.1479 6.27126 25.9825 5.99894 25.8123 5.73149C25.7686 5.66827 25.7248 5.60019 25.681 5.53697C25.6664 5.51752 25.6567 5.49321 25.6421 5.47376C25.5108 5.2987 25.3795 5.1285 25.2531 4.95344C25.1802 4.87563 25.1072 4.79783 25.0294 4.72489C24.7036 4.29696 24.2805 3.9128 23.8137 3.62589C23.7748 3.60644 23.7505 3.55295 23.7213 3.51891C23.7067 3.51405 23.6921 3.50918 23.6775 3.50432C23.2448 3.25145 22.812 2.99859 22.384 2.74572C22.0193 2.56093 21.6254 2.45882 21.2413 2.32266C20.5508 2.13301 19.8554 1.97253 19.1308 1.98226C19.1162 1.98226 19.1016 1.97253 19.0871 1.97253C18.9703 1.97253 18.8488 1.97253 18.7321 1.97253C18.7175 1.97253 18.7029 1.98226 18.6883 1.98226C17.0447 2.0163 15.4934 2.55607 14.1319 3.46542C13.0961 4.28723 12.1721 5.26466 11.5837 6.45605C11.292 7.00068 11.1364 7.59881 10.937 8.18234C10.8932 8.42062 10.8495 8.6589 10.8057 8.89718C10.8057 8.9069 10.8057 8.91663 10.8057 8.92635C10.796 8.95067 10.7911 8.97012 10.7814 8.99443C10.6598 9.51475 10.6793 10.0594 10.7133 10.5894C10.7133 10.6332 10.7133 10.677 10.7133 10.7207C10.8397 11.9656 11.1558 13.2348 11.822 14.3046C12.0214 14.6936 12.3278 15.0195 12.5709 15.3793C14.02 16.9792 15.6296 18.4575 17.1371 20.0087C17.706 20.6652 18.382 21.2244 18.9363 21.8906C18.946 21.8906 18.9558 21.8955 18.9655 21.8955C20.7696 19.892 22.7293 18.0004 24.6404 16.0941C25.3552 15.4133 25.929 14.611 26.3375 13.7162C26.5612 13.2397 26.7119 12.7388 26.887 12.2428C26.9405 11.9316 26.9988 11.6204 27.0523 11.3091C27.1836 10.7694 27.0912 10.2004 27.1156 9.64605C27.1156 9.6266 27.1156 9.60228 27.1204 9.58283C27.1204 9.48071 27.1204 9.37373 27.1058 9.27161L27.101 9.26675ZM20.7453 8.29419C20.7453 8.29419 20.7647 8.29905 20.7696 8.30391C20.7647 8.33309 20.755 8.33309 20.7307 8.3185C20.7307 8.30878 20.7355 8.29419 20.7453 8.29419ZM20.8182 10.9493C19.6414 13.016 16.573 11.7857 17.1663 9.49044C17.1711 9.47585 17.1808 9.46613 17.1857 9.45154C17.1857 9.44181 17.1857 9.42722 17.1906 9.4175C17.5164 8.46439 18.4743 7.98783 19.442 8.11426C19.6511 8.19207 19.8602 8.27474 20.0693 8.35254C20.4584 8.62486 20.7599 8.96039 20.9155 9.4175C21.0808 9.94268 21.0322 10.4533 20.8085 10.9493H20.8182ZM24.5869 6.31502C24.5529 6.3053 24.548 6.29071 24.5772 6.25667C24.5966 6.2664 24.6063 6.27126 24.6209 6.27612C24.6112 6.29071 24.6015 6.3053 24.5869 6.31502Z" fill="white"/>
<path d="M27.2438 11.8257C27.2438 11.8257 27.2049 11.8646 27.1806 11.8841C27.1708 11.8792 27.166 11.8695 27.1562 11.8646C27.1757 11.8452 27.1903 11.8208 27.2097 11.8014C27.2195 11.8111 27.2292 11.8208 27.2389 11.8306L27.2438 11.8257Z" fill="white" fill-opacity="0.5"/>
<path d="M37.0291 7.43835C36.9951 7.19521 36.9367 6.95693 36.893 6.71379C36.6304 5.67801 36.1781 4.72977 35.5314 3.87391C35.473 3.89336 35.4244 3.91768 35.3952 3.95658C35.4293 3.91768 35.4779 3.89336 35.5314 3.87391C35.3223 3.63563 35.1181 3.39736 34.909 3.15908C34.8555 3.10072 34.802 3.03751 34.7436 2.98402C34.1066 2.38589 33.3772 1.92879 32.5845 1.58353C32.3268 1.47168 32.0496 1.39388 31.7822 1.30148C31.7238 1.27717 31.6655 1.25286 31.6022 1.23827C30.7318 1.00485 29.8468 0.878419 28.9423 0.980538C28.5144 1.02917 28.0816 1.07779 27.6634 1.16532C26.9437 1.32093 26.2629 1.59811 25.621 1.96283C24.9013 2.37616 24.274 2.89649 23.7196 3.51406C23.7488 3.55296 23.7731 3.60159 23.812 3.62104C24.2691 3.87877 24.6095 4.26294 24.9742 4.62278C24.9985 4.6471 25.0083 4.686 25.0277 4.72004C25.0472 4.74435 25.0715 4.7638 25.0909 4.78812C25.1444 4.84161 25.1979 4.8951 25.2466 4.95345C25.3778 5.12852 25.5091 5.29871 25.6356 5.47378L25.6745 5.53699C25.7182 5.60021 25.762 5.66829 25.8058 5.7315C25.8933 5.86766 25.9808 6.00868 26.0684 6.14484C26.1462 6.27614 26.2191 6.4123 26.2969 6.54846C26.3066 6.5825 26.3164 6.61167 26.3261 6.64571C26.472 7.00556 26.613 7.36541 26.754 7.72526C26.7686 7.76416 26.7735 7.80792 26.7832 7.85169C26.861 8.18236 26.9339 8.51789 27.0118 8.84857C27.0409 8.98472 27.075 9.12575 27.0944 9.26677C27.109 9.36889 27.1041 9.47587 27.109 9.57799C27.109 9.59744 27.109 9.62175 27.1041 9.6412C27.1041 10.0983 27.1041 10.5505 27.0993 11.0077C27.0993 11.1049 27.0604 11.207 27.0409 11.3043C26.9874 11.6155 26.9291 11.9267 26.8756 12.2379C26.895 12.3012 26.9145 12.3644 26.9388 12.4276C26.9194 12.3644 26.8999 12.3012 26.8756 12.2379C26.7589 12.5735 26.647 12.909 26.5303 13.2397C26.472 13.4002 26.3942 13.5558 26.3261 13.7114C26.0052 14.3922 25.6161 15.0292 25.1104 15.5884C24.9548 15.7586 24.7894 15.9191 24.629 16.0893C24.4442 16.2692 24.2545 16.4491 24.0698 16.6291C23.6516 17.0473 23.2334 17.4606 22.8152 17.8788C22.1295 18.5742 21.439 19.2696 20.7582 19.965C20.1746 20.5631 19.6008 21.1612 19.0222 21.7642C18.993 21.7982 18.9735 21.842 18.9492 21.8858C19.3723 22.3234 19.7953 22.7562 20.2184 23.1939C20.2914 23.2668 20.3594 23.3397 20.4324 23.4175C20.8068 23.8066 21.1861 24.2005 21.5605 24.5895C21.5994 24.6332 21.6384 24.6819 21.6773 24.7208C21.9204 24.9639 22.1684 25.1973 22.4067 25.4453C22.7179 25.7663 23.0194 26.0921 23.3355 26.4276C23.6126 26.1213 23.8752 25.8392 24.133 25.5572C24.6727 24.9736 25.2174 24.3901 25.7571 23.8017C26.2969 23.2182 26.8416 22.6346 27.3813 22.0462C28.0135 21.3606 28.6457 20.6749 29.2778 19.9893C29.6814 19.5516 30.085 19.1188 30.4887 18.6812C30.8923 18.2435 31.2959 17.8107 31.6995 17.3731C32.1128 16.9306 32.5213 16.488 32.9346 16.0407C33.3383 15.603 33.7467 15.1702 34.1455 14.7326C34.5588 14.2852 34.977 13.8378 35.3709 13.3758C35.8572 12.8069 36.2268 12.165 36.4942 11.4696C36.679 10.9931 36.8152 10.4971 36.9416 10.0011C37.0097 9.74332 37.0145 9.47101 37.0486 9.20841C37.068 8.96041 37.0924 8.71241 37.1118 8.45954C37.1118 8.41578 37.1118 8.36715 37.1118 8.32338C37.0826 8.02189 37.0632 7.72039 37.0243 7.42376L37.0291 7.43835ZM32.2295 7.01042C32.2295 7.01042 32.2295 7.02501 32.2344 7.0396C32.2344 7.02987 32.2344 7.01529 32.2295 7.01042ZM27.1576 11.8635C27.1576 11.8635 27.1917 11.8197 27.2111 11.8003L27.2403 11.8295C27.2403 11.8295 27.2014 11.8684 27.1771 11.8878C27.1674 11.883 27.1625 11.8732 27.1528 11.8684L27.1576 11.8635Z" fill="white" fill-opacity="0.5"/>
<path d="M17.1915 9.45154C17.1915 9.45154 17.1768 9.47606 17.1719 9.49077C17.1768 9.47606 17.1866 9.46625 17.1915 9.45154Z" fill="white"/>
<path d="M24.5744 6.25684C24.5744 6.25684 24.6039 6.2716 24.6186 6.27651C24.6088 6.29127 24.599 6.30603 24.5842 6.31587C24.5842 6.31587 24.5547 6.30111 24.5547 6.29127C24.5547 6.28143 24.5694 6.2716 24.5744 6.25684Z" fill="white"/>
<path d="M20.7305 8.31871C20.7305 8.31871 20.7354 8.29419 20.7452 8.29419C20.7501 8.29419 20.7648 8.29909 20.7697 8.304C20.7697 8.31381 20.7648 8.32852 20.755 8.32852C20.7501 8.32852 20.7354 8.32361 20.7305 8.31871Z" fill="white"/>
</g>
<defs>
<clipPath id="clip0_1182_9958">
<rect width="119.251" height="25.4909" fill="white" transform="translate(0.757812 0.946533)"/>
</clipPath>
</defs>
</svg>
