<svg width="103" height="21" viewBox="0 0 103 21" fill="none" xmlns="http://www.w3.org/2000/svg">
<path d="M68.0327 17.3467C69.3768 17.3747 70.6774 16.8636 71.6505 15.925L73.4374 17.8825C72.2515 19.1135 70.6108 20.0305 68.057 20.0305C63.679 20.0305 60.8523 17.0952 60.8523 13.1163C60.8523 9.17183 63.8317 6.202 67.6607 6.202C72.0079 6.202 74.469 9.5482 74.2578 14.1895H63.9958C64.3596 16.1157 65.6982 17.3467 68.0375 17.3467M71.168 11.979C70.8951 10.1793 69.831 8.85628 67.7029 8.85628C65.7275 8.85628 64.3596 9.99195 63.9941 11.979H71.168Z" fill="white"/>
<path d="M0.578125 17.2021L8.48624 9.07486H0.76332V6.52577H12.1495V9.12746L4.2414 17.2546H12.2551V19.8037H0.578125V17.2021Z" fill="white"/>
<path d="M21.1331 17.3467C22.4772 17.3747 23.7778 16.8636 24.7508 15.925L26.5378 17.8825C25.3519 19.1135 23.7112 20.0305 21.1574 20.0305C16.7794 20.0305 13.9527 17.0952 13.9527 13.1163C13.9527 9.17183 16.9321 6.202 20.761 6.202C25.1082 6.202 27.5694 9.5482 27.3582 14.1895H17.0913C17.4552 16.1157 18.7938 17.3467 21.1331 17.3467ZM24.2635 11.9806C23.9906 10.181 22.9265 8.85792 20.7984 8.85792C18.823 8.85792 17.4552 9.99359 17.0896 11.9806H24.2635Z" fill="white"/>
<path d="M44.4383 13.1245C44.4383 8.87436 47.5752 6.22172 51.0273 6.22172C52.7671 6.22172 54.429 6.99253 55.4037 8.21531V0.375732H58.1995V19.7692H55.4037V17.9318C54.403 19.2334 52.7412 20.0305 51.0013 20.0305C47.6548 20.0305 44.4383 17.3483 44.4383 13.1278M55.5629 13.1015C55.5629 10.7381 53.7971 8.79875 51.3977 8.79875C49.0503 8.79547 47.2389 10.6806 47.2389 13.0965C47.2389 15.5125 49.0568 17.4256 51.4042 17.4256C53.8036 17.4256 55.5694 15.4862 55.5694 13.0965" fill="white"/>
<path d="M76.087 16.949L78.6164 15.621C78.9512 16.2241 79.4424 16.7233 80.037 17.0647C80.6315 17.4062 81.307 17.577 81.9905 17.5587C83.5727 17.5587 84.3899 16.7369 84.3899 15.8067C84.3899 14.745 82.8612 14.505 81.201 14.1632C78.9607 13.6816 76.6426 12.9371 76.6426 10.2023C76.6426 8.10355 78.6196 6.1642 81.7305 6.19214C84.1819 6.19214 86.0014 7.17825 87.0297 8.76753L84.6839 10.0692C84.078 9.13896 83.0496 8.55552 81.7322 8.55552C80.2295 8.55552 79.4579 9.30003 79.4579 10.1497C79.4579 11.1063 80.6697 11.3709 82.5688 11.7932C84.7294 12.2715 87.1808 12.9881 87.1808 15.7508C87.1808 17.5834 85.6001 20.0536 81.8556 20.024C79.1151 20.024 77.19 18.908 76.0837 16.9424" fill="white"/>
<path d="M94.7737 13.8674L92.5595 16.3113V19.7643H89.7654V0.375732H92.5595V13.0703L98.4906 6.48304H101.891L96.7508 12.168L102.022 19.7643H98.8594L94.7737 13.8674Z" fill="white"/>
<path d="M35.9941 6.21515C32.672 6.21515 29.8908 8.39281 29.8908 12.0053V19.7627H32.7386V12.3668C32.7386 10.1892 33.9764 8.88586 36.085 8.88586C38.1937 8.88586 39.2496 10.1892 39.2496 12.3668V19.7627H42.0974V12.0053C42.0974 8.38952 39.3162 6.21515 35.9941 6.21515Z" fill="white"/>
</svg>
