<svg width="73" height="22" viewBox="0 0 73 22" fill="none" xmlns="http://www.w3.org/2000/svg">
<path d="M35.5995 18.6117C37.0527 18.6419 38.4588 18.0894 39.5108 17.0747L41.4427 19.191C40.1606 20.5218 38.3867 21.5133 35.6258 21.5133C30.8925 21.5133 27.8365 18.3398 27.8365 14.038C27.8365 9.77357 31.0576 6.56278 35.1973 6.56278C39.8972 6.56278 42.558 10.1805 42.3297 15.1983H31.235C31.6284 17.2808 33.0756 18.6117 35.6047 18.6117M38.9892 12.8085C38.6941 10.8628 37.5437 9.43241 35.2429 9.43241C33.1073 9.43241 31.6284 10.6602 31.2333 12.8085H38.9892Z" fill="white"/>
<path d="M-37.3281 18.4553L-28.7784 9.66874H-37.1279V6.91282H-24.8179V9.7256L-33.3676 18.5122H-24.7037V21.2681H-37.3281V18.4553Z" fill="white"/>
<path d="M-15.1054 18.6117C-13.6522 18.6419 -12.2462 18.0894 -11.1941 17.0747L-9.26216 19.191C-10.5443 20.5218 -12.3182 21.5133 -15.0791 21.5133C-19.8124 21.5133 -22.8684 18.3398 -22.8684 14.038C-22.8684 9.77357 -19.6473 6.56278 -15.5076 6.56278C-10.8077 6.56278 -8.1469 10.1805 -8.37522 15.1983H-19.4752C-19.0817 17.2808 -17.6345 18.6117 -15.1054 18.6117ZM-11.721 12.8102C-12.0161 10.8646 -13.1665 9.43419 -15.4672 9.43419C-17.6029 9.43419 -19.0817 10.662 -19.4769 12.8102H-11.721Z" fill="white"/>
<path d="M10.0907 14.0469C10.0907 9.45196 13.4822 6.5841 17.2143 6.5841C19.0954 6.5841 20.8921 7.41745 21.9459 8.73944V0.263794H24.9685V21.2308H21.9459V19.2443C20.864 20.6515 19.0672 21.5133 17.1862 21.5133C13.5682 21.5133 10.0907 18.6135 10.0907 14.0505M22.118 14.0221C22.118 11.4669 20.2089 9.37022 17.6148 9.37022C15.0769 9.36667 13.1186 11.4047 13.1186 14.0167C13.1186 16.6287 15.0839 18.697 17.6218 18.697C20.2159 18.697 22.125 16.6003 22.125 14.0167" fill="white"/>
<path d="M44.3073 18.1817L47.0419 16.746C47.4039 17.398 47.9349 17.9377 48.5777 18.3069C49.2206 18.6761 49.9508 18.8607 50.6898 18.8409C52.4004 18.8409 53.2838 17.9525 53.2838 16.9468C53.2838 15.7989 51.6311 15.5395 49.8362 15.1699C47.4142 14.6493 44.908 13.8444 44.908 10.8877C44.908 8.61861 47.0454 6.52191 50.4087 6.55212C53.059 6.55212 55.0261 7.61823 56.1379 9.33646L53.6017 10.7437C52.9466 9.73804 51.8349 9.10725 50.4105 9.10725C48.7859 9.10725 47.9517 9.91217 47.9517 10.8308C47.9517 11.8649 49.2619 12.151 51.315 12.6077C53.6509 13.1247 56.3012 13.8995 56.3012 16.8864C56.3012 18.8676 54.5923 21.5382 50.544 21.5062C47.5811 21.5062 45.4998 20.2997 44.3038 18.1746" fill="white"/>
<path d="M64.5102 14.8501L62.1164 17.4923V21.2255H59.0955V0.263794H62.1164V13.9883L68.5287 6.86662H72.2047L66.6477 13.0128L72.3469 21.2255H68.9274L64.5102 14.8501Z" fill="white"/>
<path d="M0.961365 6.57699C-2.63031 6.57699 -5.63712 8.93134 -5.63712 12.8369V21.2237H-2.5583V13.2278C-2.5583 10.8735 -1.21998 9.4644 1.05972 9.4644C3.33942 9.4644 4.48103 10.8735 4.48103 13.2278V21.2237H7.55985V12.8369C7.55985 8.92778 4.55304 6.57699 0.961365 6.57699Z" fill="white"/>
</svg>
